# Blender v2.79 (sub 0) OBJ File: 'bird.blend'
# www.blender.org
o bar_table_round.003_Cylinder.003
v -0.011366 0.187538 0.006562
v -0.011366 0.009556 0.006562
v -0.000000 0.187538 0.013125
v -0.000000 0.009556 0.013125
v 0.011366 0.187538 0.006562
v 0.011366 0.009556 0.006562
v 0.011366 0.187538 -0.006562
v 0.011366 0.009556 -0.006562
v 0.000000 0.187538 -0.013125
v 0.000000 0.009556 -0.013125
v -0.011366 0.009556 -0.006562
v -0.011366 0.187538 -0.006562
vt 0.581811 0.383386
vt 0.591811 0.383386
vt 0.591811 0.393386
vt 0.581811 0.393386
vt 0.581811 0.383386
vt 0.591811 0.383386
vt 0.591811 0.393386
vt 0.581811 0.393386
vt 0.581811 0.383386
vt 0.591811 0.383386
vt 0.591811 0.393386
vt 0.581811 0.393386
vt 0.581811 0.383386
vt 0.591811 0.383386
vt 0.591811 0.393386
vt 0.581811 0.393386
vt 0.581811 0.383386
vt 0.591811 0.383386
vt 0.591811 0.393386
vt 0.581811 0.393386
vt 0.581811 0.383386
vt 0.591811 0.383386
vt 0.591811 0.393386
vt 0.581811 0.393386
vn 0.0000 0.0000 1.0000
vn -0.8660 0.0000 0.5000
vn 0.8660 0.0000 0.5000
vn -0.8660 0.0000 -0.5000
vn 0.0000 0.0000 -1.0000
vn 0.8660 0.0000 -0.5000
s 1
f 4/1/1 3/2/1 1/3/2 2/4/2
f 6/5/3 5/6/3 3/7/1 4/8/1
f 11/9/4 12/10/4 9/11/5 10/12/5
f 8/13/6 7/14/6 5/15/3 6/16/3
f 10/17/5 9/18/5 7/19/6 8/20/6
f 2/21/2 1/22/2 12/23/4 11/24/4
o bar_table_round.002_Cylinder.002
v 0.000000 -0.000000 -0.080000
v 0.000000 0.010000 -0.080000
v 0.069282 -0.000000 -0.040000
v 0.069282 0.010000 -0.040000
v 0.069282 -0.000000 0.040000
v 0.069282 0.010000 0.040000
v -0.000000 -0.000000 0.080000
v -0.000000 0.010000 0.080000
v -0.069282 -0.000000 0.040000
v -0.069282 0.010000 0.040000
v -0.069282 -0.000000 -0.040000
v -0.069282 0.010000 -0.040000
vt 0.622116 0.377185
vt 0.632116 0.377185
vt 0.632116 0.387185
vt 0.622116 0.387185
vt 0.622116 0.377185
vt 0.632116 0.377185
vt 0.632116 0.387185
vt 0.622116 0.387185
vt 0.622116 0.377185
vt 0.632116 0.377185
vt 0.632116 0.387185
vt 0.622116 0.387185
vt 0.622116 0.377185
vt 0.632116 0.377185
vt 0.632116 0.387185
vt 0.622116 0.387185
vt 0.627116 0.387185
vt 0.631446 0.384685
vt 0.631446 0.379685
vt 0.627116 0.377185
vt 0.622786 0.379685
vt 0.622786 0.384685
vt 0.622116 0.377185
vt 0.632116 0.377185
vt 0.632116 0.387185
vt 0.622116 0.387185
vt 0.622116 0.377185
vt 0.632116 0.377185
vt 0.632116 0.387185
vt 0.622116 0.387185
vn 0.0000 0.0000 -1.0000
vn 0.0000 0.6100 -0.7924
vn 0.6862 0.6100 -0.3962
vn 0.8660 0.0000 -0.5000
vn 0.6862 0.6100 0.3962
vn 0.8660 0.0000 0.5000
vn 0.0000 0.6100 0.7924
vn 0.0000 0.0000 1.0000
vn -0.6862 0.6100 0.3962
vn -0.8660 0.0000 0.5000
vn -0.6862 0.6100 -0.3962
vn -0.8660 0.0000 -0.5000
s 1
f 13/25/7 14/26/8 16/27/9 15/28/10
f 15/29/10 16/30/9 18/31/11 17/32/12
f 17/33/12 18/34/11 20/35/13 19/36/14
f 19/37/14 20/38/13 22/39/15 21/40/16
f 16/41/9 14/42/8 24/43/17 22/44/15 20/45/13 18/46/11
f 21/47/16 22/48/15 24/49/17 23/50/18
f 23/51/18 24/52/17 14/53/8 13/54/7
o bar_table_round.001_Cylinder.001
v 0.000000 0.186519 -0.100000
v 0.000000 0.200000 -0.100000
v 0.070711 0.186519 -0.070711
v 0.070711 0.200000 -0.070711
v 0.100000 0.186519 0.000000
v 0.100000 0.200000 0.000000
v 0.070711 0.186519 0.070711
v 0.070711 0.200000 0.070711
v -0.000000 0.186519 0.100000
v -0.000000 0.200000 0.100000
v -0.070711 0.186519 0.070711
v -0.070711 0.200000 0.070711
v -0.100000 0.186519 -0.000000
v -0.100000 0.200000 -0.000000
v -0.070711 0.186519 -0.070711
v -0.070711 0.200000 -0.070711
vt 0.867047 0.606614
vt 0.877047 0.606614
vt 0.877047 0.616614
vt 0.867047 0.616614
vt 0.867047 0.606614
vt 0.877047 0.606614
vt 0.877047 0.616614
vt 0.867047 0.616614
vt 0.867047 0.606614
vt 0.877047 0.606614
vt 0.877047 0.616614
vt 0.867047 0.616614
vt 0.867047 0.606614
vt 0.877047 0.606614
vt 0.877047 0.616614
vt 0.867047 0.616614
vt 0.867047 0.606614
vt 0.877047 0.606614
vt 0.877047 0.616614
vt 0.867047 0.616614
vt 0.867047 0.606614
vt 0.877047 0.606614
vt 0.877047 0.616614
vt 0.867047 0.616614
vt 0.872047 0.616614
vt 0.875583 0.615150
vt 0.877047 0.611614
vt 0.875583 0.608079
vt 0.872047 0.606614
vt 0.868512 0.608079
vt 0.867047 0.611614
vt 0.868512 0.615150
vt 0.867047 0.606614
vt 0.877047 0.606614
vt 0.877047 0.616614
vt 0.867047 0.616614
vt 0.867047 0.606614
vt 0.877047 0.606614
vt 0.877047 0.616614
vt 0.867047 0.616614
vt 0.872047 0.616614
vt 0.875583 0.615150
vt 0.877047 0.611614
vt 0.875583 0.608079
vt 0.872047 0.606614
vt 0.868512 0.608079
vt 0.867047 0.611614
vt 0.868512 0.615150
vn 0.0000 -0.6302 -0.7764
vn 0.0000 0.6302 -0.7764
vn 0.5490 0.6302 -0.5490
vn 0.5490 -0.6302 -0.5490
vn 0.7764 0.6302 0.0000
vn 0.7764 -0.6302 0.0000
vn 0.5490 0.6302 0.5490
vn 0.5490 -0.6302 0.5490
vn 0.0000 0.6302 0.7764
vn 0.0000 -0.6302 0.7764
vn -0.5490 0.6302 0.5490
vn -0.5490 -0.6302 0.5490
vn -0.7764 0.6302 0.0000
vn -0.7764 -0.6302 0.0000
vn -0.5490 0.6302 -0.5490
vn -0.5490 -0.6302 -0.5490
s 1
f 25/55/19 26/56/20 28/57/21 27/58/22
f 27/59/22 28/60/21 30/61/23 29/62/24
f 29/63/24 30/64/23 32/65/25 31/66/26
f 31/67/26 32/68/25 34/69/27 33/70/28
f 33/71/28 34/72/27 36/73/29 35/74/30
f 35/75/30 36/76/29 38/77/31 37/78/32
f 28/79/21 26/80/20 40/81/33 38/82/31 36/83/29 34/84/27 32/85/25 30/86/23
f 37/87/32 38/88/31 40/89/33 39/90/34
f 39/91/34 40/92/33 26/93/20 25/94/19
f 25/95/19 27/96/22 29/97/24 31/98/26 33/99/28 35/100/30 37/101/32 39/102/34
