# Blender v2.79 (sub 0) OBJ File: 'sofa.blend'
# www.blender.org
o bookshelf.018_Cube.116
v 0.070000 0.290000 0.190000
v 0.070000 0.290000 0.010000
v 0.070000 0.110000 0.190000
v 0.070000 0.110000 0.010000
v 0.070000 0.290000 0.100000
v 0.070000 0.110000 0.100000
v 0.070000 0.300000 0.100000
v 0.070000 0.300000 0.200000
v 0.070000 0.100000 0.200000
v 0.070000 0.100000 0.100000
v 0.070000 0.300000 0.000000
v 0.070000 0.100000 0.000000
vt 0.436128 0.688738
vt 0.562433 0.688738
vt 0.562433 0.702772
vt 0.422094 0.702772
vt 0.436128 0.436128
vt 0.422094 0.422094
vt 0.688737 0.688738
vt 0.688737 0.436128
vt 0.702771 0.422094
vt 0.702771 0.702772
vt 0.562433 0.436128
vt 0.562432 0.422094
vn 1.0000 0.0000 0.0000
s off
f 1/1/1 5/2/1 7/3/1 8/4/1
f 3/5/1 1/1/1 8/4/1 9/6/1
f 2/7/1 4/8/1 12/9/1 11/10/1
f 6/11/1 3/5/1 9/6/1 10/12/1
f 5/2/1 2/7/1 11/10/1 7/3/1
f 4/8/1 6/11/1 10/12/1 12/9/1
o bookshelf.017_Cube.115
v 0.070000 0.290000 -0.190000
v 0.070000 0.110000 -0.190000
v 0.070000 0.290000 -0.100000
v 0.070000 0.110000 -0.100000
vt 0.829795 0.422094
vt 0.829795 0.674704
vt 0.703490 0.674704
vt 0.703490 0.422094
vn 1.0000 0.0000 0.0000
s off
f 14/13/2 13/14/2 15/15/2 16/16/2
o bookshelf.016_Cube.114
v 0.070000 -0.000000 -0.200000
v 0.070000 -0.000000 -0.100000
v 0.070000 0.100000 -0.200000
v 0.070000 0.100000 -0.100000
vt 0.942785 0.141417
vt 0.942785 0.281756
vt 0.802447 0.281756
vt 0.802447 0.141417
vn 1.0000 0.0000 0.0000
s off
f 17/17/3 19/18/3 20/19/3 18/20/3
o bookshelf.015_Cube.113
v 0.070000 0.290000 0.010000
v 0.070000 0.110000 0.010000
v 0.070000 0.290000 0.100000
v 0.070000 0.110000 0.100000
vt 0.829795 0.675423
vt 0.829795 0.928032
vt 0.703490 0.928032
vt 0.703490 0.675423
vn 1.0000 0.0000 0.0000
s off
f 22/21/4 21/22/4 23/23/4 24/24/4
o bookshelf.014_Cube.112
v 0.070000 -0.000000 0.000000
v 0.070000 -0.000000 0.100000
v 0.070000 0.100000 0.100000
v 0.070000 0.100000 0.000000
vt 0.970853 0.422094
vt 0.970853 0.562433
vt 0.830514 0.562433
vt 0.830514 0.422094
vn 1.0000 0.0000 0.0000
s off
f 25/25/5 28/26/5 27/27/5 26/28/5
o bookshelf.013_Cube.111
v -0.000000 -0.000000 -0.200000
v -0.000000 0.300000 -0.200000
v -0.000000 -0.000000 0.000000
v -0.000000 0.300000 0.000000
v -0.000000 0.100000 -0.200000
v -0.000000 0.100000 0.000000
v -0.000000 0.300000 -0.100000
v -0.000000 -0.000000 -0.100000
v -0.000000 0.100000 -0.100000
vt 0.140698 0.140698
vt 0.421375 0.140698
vt 0.421375 0.281037
vt 0.140698 0.281037
vt 0.000360 0.140698
vt 0.000360 0.281037
vt 0.000360 0.000360
vt 0.140698 0.000360
vt 0.421375 0.000360
vn -1.0000 0.0000 0.0000
s off
f 37/29/6 35/30/6 30/31/6 33/32/6
f 36/33/6 37/29/6 33/32/6 29/34/6
f 31/35/6 34/36/6 37/29/6 36/33/6
f 34/36/6 32/37/6 35/30/6 37/29/6
o bookshelf.012_Cube.110
v 0.070000 -0.000000 0.200000
v 0.070000 -0.000000 0.100000
v 0.070000 0.100000 0.200000
v 0.070000 0.100000 0.100000
vt 0.942785 0.000360
vt 0.942785 0.140698
vt 0.802447 0.140698
vt 0.802447 0.000360
vn 1.0000 0.0000 0.0000
s off
f 39/38/7 41/39/7 40/40/7 38/41/7
o bookshelf.011_Cube.109
v 0.070000 -0.000000 0.000000
v 0.070000 -0.000000 -0.100000
v 0.070000 0.100000 0.000000
v 0.070000 0.100000 -0.100000
vt 0.970853 0.563152
vt 0.970853 0.703490
vt 0.830514 0.703490
vt 0.830514 0.563152
vn 1.0000 0.0000 0.0000
s off
f 43/42/8 45/43/8 44/44/8 42/45/8
o bookshelf.010_Cube.108
v -0.000000 -0.000000 0.200000
v -0.000000 0.300000 0.200000
v -0.000000 -0.000000 0.000000
v -0.000000 0.300000 0.000000
v -0.000000 0.100000 0.200000
v -0.000000 0.100000 0.000000
v -0.000000 -0.000000 0.100000
v -0.000000 0.300000 0.100000
v -0.000000 0.100000 0.100000
vt 0.562433 0.140698
vt 0.562433 0.421375
vt 0.422094 0.421375
vt 0.422094 0.140698
vt 0.562433 0.000360
vt 0.422094 0.000360
vt 0.702771 0.000360
vt 0.702771 0.140698
vt 0.702771 0.421375
vn -1.0000 0.0000 0.0000
s off
f 54/46/9 53/47/9 49/48/9 51/49/9
f 52/50/9 54/46/9 51/49/9 48/51/9
f 46/52/9 50/53/9 54/46/9 52/50/9
f 50/53/9 47/54/9 53/47/9 54/46/9
o bookshelf.009_Cube.107
v 0.070000 0.290000 -0.100000
v 0.070000 0.110000 -0.100000
v 0.070000 0.290000 -0.010000
v 0.070000 0.110000 -0.010000
vt 0.281036 0.563153
vt 0.281036 0.815762
vt 0.154732 0.815762
vt 0.154732 0.563153
vn 1.0000 0.0000 0.0000
s off
f 56/55/10 55/56/10 57/57/10 58/58/10
o bookshelf.008_Cube.106
v -0.000000 -0.000000 -0.200000
v 0.070000 -0.000000 -0.200000
v -0.000000 -0.000000 0.000000
v 0.070000 -0.000000 0.000000
v 0.070000 -0.000000 -0.100000
v -0.000000 -0.000000 -0.100000
vt 0.140698 0.816481
vt 0.140698 0.914718
vt 0.000360 0.914718
vt 0.000360 0.816481
vt 0.281037 0.816481
vt 0.281037 0.914718
vn 0.0000 -1.0000 0.0000
s off
f 64/59/11 63/60/11 62/61/11 61/62/11
f 59/63/11 60/64/11 63/60/11 64/59/11
o bookshelf.007_Cube.105
v -0.000000 0.300000 -0.200000
v -0.000000 0.300000 0.000000
v -0.000000 0.300000 -0.100000
v 0.070000 0.300000 -0.100000
v 0.070000 0.300000 0.000000
v 0.070000 0.300000 -0.200000
vt 0.562433 0.802447
vt 0.562433 0.900684
vt 0.422094 0.900684
vt 0.422094 0.802447
vt 0.702771 0.802447
vt 0.702771 0.900684
vn 0.0000 1.0000 0.0000
s off
f 68/65/12 67/66/12 66/67/12 69/68/12
f 70/69/12 65/70/12 67/66/12 68/65/12
o bookshelf.006_Cube.104
v -0.000000 0.300000 0.200000
v -0.000000 0.300000 0.000000
v -0.000000 0.300000 0.100000
v 0.070000 0.300000 0.100000
v 0.070000 0.300000 0.200000
v 0.070000 0.300000 0.000000
vt 0.562433 0.901403
vt 0.562433 0.999640
vt 0.422094 0.999640
vt 0.422094 0.901403
vt 0.702771 0.901403
vt 0.702771 0.999640
vn 0.0000 1.0000 0.0000
s off
f 74/71/13 73/72/13 71/73/13 75/74/13
f 76/75/13 72/76/13 73/72/13 74/71/13
o bookshelf.005_Cube.103
v -0.000000 -0.000000 0.200000
v 0.070000 -0.000000 0.200000
v -0.000000 -0.000000 0.000000
v 0.070000 -0.000000 0.000000
v -0.000000 -0.000000 0.100000
v 0.070000 -0.000000 0.100000
vt 0.562433 0.703491
vt 0.562433 0.801728
vt 0.422094 0.801728
vt 0.422094 0.703491
vt 0.702771 0.703491
vt 0.702771 0.801728
vn 0.0000 -1.0000 0.0000
s off
f 81/77/14 82/78/14 78/79/14 77/80/14
f 79/81/14 80/82/14 82/78/14 81/77/14
o bookshelf.004_Cube.102
v -0.000000 -0.000000 0.200000
v -0.000000 0.300000 0.200000
v 0.070000 -0.000000 0.200000
v -0.000000 0.100000 0.200000
v 0.070000 0.300000 0.200000
v 0.070000 0.100000 0.200000
vt 0.380089 0.422128
vt 0.379992 0.702805
vt 0.281755 0.702771
vt 0.281852 0.422094
vt 0.380138 0.281790
vt 0.281901 0.281756
vn 0.0000 0.0000 1.0000
s off
f 88/83/15 87/84/15 84/85/15 86/86/15
f 85/87/15 88/83/15 86/86/15 83/88/15
o bookshelf.003_Cube.101
v 0.070000 0.290000 0.190000
v 0.070000 0.110000 0.190000
v 0.070000 0.290000 0.100000
v 0.070000 0.110000 0.100000
vt 0.126664 0.563153
vt 0.126664 0.815762
vt 0.000360 0.815762
vt 0.000360 0.563153
vn 1.0000 0.0000 0.0000
s off
f 92/89/16 91/90/16 89/91/16 90/92/16
o bookshelf.002_Cube.100
v 0.070000 0.290000 -0.190000
v 0.070000 0.110000 -0.190000
v 0.070000 0.290000 -0.100000
v 0.070000 0.110000 -0.100000
v 0.070000 0.290000 -0.010000
v 0.070000 0.110000 -0.010000
v 0.070000 0.300000 -0.100000
v 0.070000 0.300000 0.000000
v 0.070000 0.300000 -0.200000
v 0.070000 0.100000 -0.200000
v 0.070000 0.100000 0.000000
v 0.070000 0.100000 -0.100000
vt 0.014393 0.548400
vt 0.140698 0.548400
vt 0.140698 0.562433
vt 0.000360 0.562433
vt 0.267002 0.548400
vt 0.267002 0.295790
vt 0.281036 0.281756
vt 0.281036 0.562433
vt 0.014393 0.295790
vt 0.000360 0.281756
vt 0.140698 0.295790
vt 0.140697 0.281756
vn 1.0000 0.0000 0.0000
s off
f 97/93/17 95/94/17 99/95/17 100/96/17
f 93/97/17 94/98/17 102/99/17 101/100/17
f 98/101/17 97/93/17 100/96/17 103/102/17
f 96/103/17 98/101/17 103/102/17 104/104/17
f 95/94/17 93/97/17 101/100/17 99/95/17
f 94/98/17 96/103/17 104/104/17 102/99/17
o bookshelf.001_Cube.099
v -0.000000 -0.000000 -0.200000
v -0.000000 0.300000 -0.200000
v 0.070000 -0.000000 -0.200000
v -0.000000 0.100000 -0.200000
v 0.070000 0.300000 -0.200000
v 0.070000 0.100000 -0.200000
vt 0.801727 0.140698
vt 0.801727 0.421375
vt 0.703490 0.421375
vt 0.703490 0.140698
vt 0.801727 0.000360
vt 0.703490 0.000360
vn 0.0000 0.0000 -1.0000
s off
f 108/105/18 106/106/18 109/107/18 110/108/18
f 105/109/18 108/105/18 110/108/18 107/110/18
