# Blender v2.79 (sub 0) OBJ File: 'sofa.blend'
# www.blender.org
o chair.009_Cube.065
v -0.062286 0.114054 -0.069339
v -0.021845 0.114054 -0.069339
v -0.066686 0.144103 -0.000035
v -0.021845 0.144103 -0.000035
vt 0.851299 0.630948
vt 0.851299 0.641409
vt 0.831759 0.642547
vt 0.831759 0.630948
vn 0.0000 0.9175 -0.3978
s 1
f 2/1/1 1/2/1 3/3/1 4/4/1
o chair.008_Cube.064
v -0.000138 0.052379 -0.069339
v -0.000138 0.052379 0.069270
v -0.021845 0.114054 0.069270
v -0.021845 0.114054 -0.069339
v -0.000138 0.052379 -0.000035
v -0.021845 0.144103 -0.000035
vt 0.394218 0.424135
vt 0.412146 0.424040
vt 0.412235 0.440954
vt 0.394218 0.448518
vt 0.376291 0.424040
vt 0.376201 0.440953
vn 0.9622 0.2723 -0.0000
vn 0.9605 0.2719 -0.0589
vn 0.9605 0.2719 0.0589
s 1
f 9/5/2 5/6/3 8/7/3 10/8/2
f 6/9/4 9/5/2 10/8/2 7/10/4
o chair.007_Cube.063
v -0.062285 0.114054 0.069270
v -0.021845 0.114054 0.069270
v -0.066686 0.144103 -0.000035
v -0.021845 0.144103 -0.000035
vt 0.363599 0.602056
vt 0.375199 0.602056
vt 0.374061 0.621597
vt 0.363599 0.621597
vn 0.0000 0.9175 0.3978
s 1
f 14/11/5 13/12/5 11/13/5 12/14/5
o chair.006_Cube.062
v 0.059484 0.048565 0.065773
v 0.059484 0.048565 -0.065843
v -0.000138 0.052379 -0.069339
v -0.000138 0.052379 0.069270
v 0.066410 0.052379 -0.000035
v -0.000138 0.052379 -0.000035
vt 0.404530 0.166451
vt 0.404530 0.183666
vt 0.386602 0.183699
vt 0.387478 0.168243
vt 0.421582 0.168243
vt 0.422457 0.183699
vn 0.0310 0.9995 0.0000
vn 0.0310 0.9991 0.0298
vn 0.0310 0.9991 -0.0298
s 1
f 19/15/6 20/16/6 18/17/7 15/18/7
f 16/19/8 17/20/8 20/16/6 19/15/6
o chair.005_Cube.061
v -0.052839 -0.000000 -0.069339
v -0.052839 -0.000000 0.069270
v 0.066410 -0.000000 0.069270
v 0.066410 -0.000000 -0.069339
v -0.000138 -0.000000 -0.069339
v -0.000138 -0.000000 0.069270
v -0.052839 -0.000000 -0.000035
v 0.066410 -0.000000 -0.000035
v -0.000138 -0.000000 -0.000035
vt 0.833940 0.167783
vt 0.833934 0.184998
vt 0.816006 0.184992
vt 0.816012 0.167777
vt 0.833945 0.154150
vt 0.816017 0.154144
vt 0.851872 0.154156
vt 0.851868 0.167789
vt 0.851862 0.185004
vn 0.0000 -1.0000 -0.0000
s 1
f 29/21/9 28/22/9 23/23/9 26/24/9
f 27/25/9 29/21/9 26/24/9 22/26/9
f 21/27/9 25/28/9 29/21/9 27/25/9
f 25/28/9 24/29/9 28/22/9 29/21/9
o chair.004_Cube.060
v -0.055928 0.055489 0.069270
v -0.052839 -0.000000 0.069270
v 0.066410 -0.000000 0.069270
v 0.059484 0.048565 0.065773
v -0.000138 -0.000000 0.069270
v -0.000138 0.052379 0.069270
v -0.062285 0.114054 0.069270
v -0.021845 0.114054 0.069270
vt 0.140898 0.129881
vt 0.132407 0.140440
vt 0.120656 0.132022
vt 0.130275 0.121338
vt 0.154336 0.140641
vt 0.145064 0.149353
vt 0.118033 0.149353
vt 0.109881 0.142797
vn 0.0144 0.0183 0.9997
vn 0.0101 0.0128 0.9999
vn -0.0000 0.0000 1.0000
vn 0.0288 0.0366 0.9989
s 1
f 34/30/10 35/31/11 30/32/12 31/33/12
f 32/34/13 33/35/13 35/31/11 34/30/10
f 30/32/12 35/31/11 37/36/12 36/37/12
o chair.003_Cube.059
v 0.066410 -0.000000 0.069270
v 0.059484 0.048565 0.065773
v 0.066410 -0.000000 -0.069339
v 0.059484 0.048565 -0.065843
v 0.066410 -0.000000 -0.000035
v 0.066410 0.052379 -0.000035
vt 0.150297 0.390064
vt 0.150292 0.403614
vt 0.133175 0.402622
vt 0.132370 0.389925
vt 0.168224 0.389937
vt 0.167410 0.402633
vn 0.9975 0.0703 -0.0000
vn 0.9961 0.0702 0.0530
vn 0.9961 0.0702 -0.0530
s 1
f 42/38/14 43/39/14 39/40/15 38/41/15
f 40/42/16 41/43/16 43/39/14 42/38/14
o chair.002_Cube.058
v -0.055928 0.055489 -0.069339
v -0.052839 -0.000000 -0.069339
v 0.066410 -0.000000 -0.069339
v 0.059484 0.048565 -0.065843
v -0.000138 -0.000000 -0.069339
v -0.000138 0.052379 -0.069339
v -0.062286 0.114054 -0.069339
v -0.021845 0.114054 -0.069339
vt 0.624246 0.176717
vt 0.615755 0.166158
vt 0.628413 0.157244
vt 0.637684 0.165956
vt 0.604005 0.174575
vt 0.593229 0.163801
vt 0.601381 0.157245
vt 0.613623 0.185260
vn 0.0144 0.0183 -0.9997
vn 0.0101 0.0128 -0.9999
vn 0.0288 0.0366 -0.9989
vn 0.0000 0.0000 -1.0000
s 1
f 48/44/17 49/45/18 47/46/19 46/47/19
f 49/45/18 44/48/20 50/49/20 51/50/20
f 45/51/20 44/48/20 49/45/18 48/44/17
o chair.001_Cube.057
v -0.055928 0.055489 -0.069339
v -0.052839 -0.000000 -0.069339
v -0.055928 0.055489 0.069270
v -0.052839 -0.000000 0.069270
v -0.062285 0.114054 0.069270
v -0.062286 0.114054 -0.069339
v -0.055928 0.055489 -0.000035
v -0.052839 -0.000000 -0.000035
v -0.066686 0.144103 -0.000035
vt 0.334346 0.852356
vt 0.348723 0.852356
vt 0.348722 0.870284
vt 0.334346 0.870284
vt 0.348722 0.834428
vt 0.363961 0.834428
vt 0.371814 0.852356
vt 0.363961 0.870285
vt 0.334346 0.834429
vn -0.9985 -0.0556 0.0000
vn -0.9963 -0.0856 0.0000
vn -0.9963 -0.0856 -0.0032
vn -0.9963 -0.0856 0.0032
vn -0.9933 -0.1155 0.0065
vn -0.9933 -0.1155 0.0000
vn -0.9933 -0.1155 -0.0065
s 1
f 59/52/21 58/53/22 52/54/23 53/55/21
f 58/53/22 54/56/24 56/57/25 60/58/26
f 52/54/23 58/53/22 60/58/26 57/59/27
f 55/60/21 54/56/24 58/53/22 59/52/21
