# Blender v2.79 (sub 0) OBJ File: 'sofa.blend'
# www.blender.org
o desk.012_Cube.045
v 0.064667 0.071932 0.117327
v 0.064667 0.076549 0.117327
v -0.064667 0.076549 0.117327
v -0.064667 0.071932 0.117327
vt 0.000000 0.000000
vt 1.000000 0.000000
vt 1.000000 1.000000
vt 0.000000 1.000000
vn 0.0000 0.0000 1.0000
s off
f 4/1/1 1/2/1 2/3/1 3/4/1
o desk.011_Cube.044
v 0.051099 -0.000000 0.092711
v 0.051099 -0.000000 -0.092711
v -0.051099 -0.000000 0.092711
v -0.051099 -0.000000 -0.092711
vt 0.000000 0.000000
vt 1.000000 0.000000
vt 1.000000 1.000000
vt 0.000000 1.000000
vn 0.0000 -1.0000 0.0000
s off
f 8/5/2 6/6/2 5/7/2 7/8/2
o desk.010_Cube.043
v 0.051099 -0.000000 0.092711
v 0.051099 -0.000000 -0.092711
v 0.051099 0.071932 0.092711
v 0.051099 0.071932 -0.092711
vt 0.000000 0.000000
vt 1.000000 0.000000
vt 1.000000 1.000000
vt 0.000000 1.000000
vn 1.0000 0.0000 0.0000
s off
f 10/9/3 12/10/3 11/11/3 9/12/3
o desk.009_Cube.042
v -0.064667 0.076549 -0.117327
v -0.064667 0.076549 0.117327
v -0.064667 0.071932 0.117327
v -0.064667 0.071932 -0.117327
vt 0.000000 0.000000
vt 1.000000 0.000000
vt 1.000000 1.000000
vt 0.000000 1.000000
vn -1.0000 0.0000 0.0000
s off
f 16/13/4 15/14/4 14/15/4 13/16/4
o desk.008_Cube.041
v 0.064667 0.076549 -0.117327
v -0.064667 0.076549 -0.117327
v -0.064667 0.071932 -0.117327
v 0.064667 0.071932 -0.117327
vt 0.000000 0.000000
vt 1.000000 0.000000
vt 1.000000 1.000000
vt 0.000000 1.000000
vn 0.0000 0.0000 -1.0000
s off
f 20/17/5 19/18/5 18/19/5 17/20/5
o desk.007_Cube.040
v 0.064667 0.071932 0.117327
v 0.064667 0.076549 0.117327
v 0.064667 0.076549 -0.117327
v 0.064667 0.071932 -0.117327
vt 0.000000 0.000000
vt 1.000000 0.000000
vt 1.000000 1.000000
vt 0.000000 1.000000
vn 1.0000 0.0000 0.0000
s off
f 21/21/6 24/22/6 23/23/6 22/24/6
o desk.006_Cube.039
v 0.051099 -0.000000 -0.092711
v -0.051099 -0.000000 -0.092711
v -0.051099 0.071932 -0.092711
v 0.051099 0.071932 -0.092711
vt 0.000000 0.000000
vt 1.000000 0.000000
vt 1.000000 1.000000
vt 0.000000 1.000000
vn 0.0000 0.0000 -1.0000
s off
f 26/25/7 27/26/7 28/27/7 25/28/7
o desk.005_Cube.038
v 0.064667 0.071932 0.117327
v -0.051099 0.071932 0.092711
v -0.051099 0.071932 -0.092711
v 0.051099 0.071932 0.092711
v -0.064667 0.071932 0.117327
v -0.064667 0.071932 -0.117327
v 0.064667 0.071932 -0.117327
v 0.051099 0.071932 -0.092711
vt 0.000000 0.000000
vt 1.000000 0.000000
vt 1.000000 1.000000
vt 0.000000 1.000000
vt 0.000000 0.000000
vt 1.000000 0.000000
vt 1.000000 1.000000
vt 0.000000 1.000000
vt 0.000000 0.000000
vt 1.000000 0.000000
vt 1.000000 1.000000
vt 0.000000 1.000000
vt 0.000000 0.000000
vt 1.000000 0.000000
vt 1.000000 1.000000
vt 0.000000 1.000000
vn 0.0000 -1.0000 0.0000
s off
f 32/29/8 36/30/8 35/31/8 29/32/8
f 31/33/8 30/34/8 33/35/8 34/36/8
f 30/37/8 32/38/8 29/39/8 33/40/8
f 36/41/8 31/42/8 34/43/8 35/44/8
o desk.004_Cube.037
v -0.043649 0.076549 0.066558
v -0.043649 0.076549 -0.066558
v 0.043649 0.076549 -0.066558
v 0.043649 0.076549 0.066558
vt 0.162510 0.089570
vt 0.837490 0.089570
vt 0.837490 0.910430
vt 0.162510 0.910430
vn 0.0000 1.0000 0.0000
s off
f 39/45/9 38/46/9 37/47/9 40/48/9
o desk.003_Cube.036
v -0.051099 0.071932 0.092711
v 0.051099 -0.000000 0.092711
v -0.051099 -0.000000 0.092711
v 0.051099 0.071932 0.092711
vt 0.000000 0.000000
vt 1.000000 0.000000
vt 1.000000 1.000000
vt 0.000000 1.000000
vn 0.0000 0.0000 1.0000
s off
f 42/49/10 44/50/10 41/51/10 43/52/10
o desk.002_Cube.035
v -0.043649 0.076549 0.066558
v -0.043649 0.076549 -0.066558
v 0.064667 0.076549 0.117327
v 0.064667 0.076549 -0.117327
v -0.064667 0.076549 -0.117327
v -0.064667 0.076549 0.117327
v 0.043649 0.076549 -0.066558
v 0.043649 0.076549 0.066558
vt 0.837490 0.910430
vt 0.837490 0.089570
vt 1.000000 0.000000
vt 1.000000 1.000000
vt 0.162510 0.089570
vt 0.000000 0.000000
vt 0.162510 0.910430
vt 0.000000 1.000000
vn 0.0000 1.0000 0.0000
s off
f 45/53/11 46/54/11 49/55/11 50/56/11
f 46/54/11 51/57/11 48/58/11 49/55/11
f 51/57/11 52/59/11 47/60/11 48/58/11
f 52/59/11 45/53/11 50/56/11 47/60/11
o desk.001_Cube.034
v -0.051099 0.071932 0.092711
v -0.051099 -0.000000 0.092711
v -0.051099 -0.000000 -0.092711
v -0.051099 0.071932 -0.092711
vt 0.000000 0.000000
vt 1.000000 0.000000
vt 1.000000 1.000000
vt 0.000000 1.000000
vn -1.0000 0.0000 0.0000
s off
f 54/61/12 53/62/12 56/63/12 55/64/12
