# Blender v2.79 (sub 0) OBJ File: 'monorail.blend'
# www.blender.org
o monorail.023_Cube.298
v 0.200000 0.800000 0.000001
v 0.400000 0.800000 0.700001
v 0.200000 0.800000 0.400001
v 0.400000 0.800000 0.400001
v -0.200000 0.800000 0.000001
v -0.400000 0.800000 0.700001
v 0.000000 0.800000 0.700001
v 0.000000 0.800000 0.400001
v -0.200000 0.800000 0.400001
v -0.400000 0.800000 0.400001
v 0.000000 0.800000 0.000001
vt 0.625422 0.600814
vt 0.635422 0.600814
vt 0.635422 0.610814
vt 0.625422 0.610814
vt 0.625422 0.600814
vt 0.635422 0.600814
vt 0.635422 0.610814
vt 0.625422 0.610814
vt 0.625422 0.600814
vt 0.625422 0.610814
vt 0.625422 0.600814
vt 0.625422 0.610814
vt 0.635422 0.600814
vt 0.625422 0.600814
vt 0.635422 0.600814
vt 0.625422 0.600814
vn 0.0000 -1.0000 0.0000
s off
f 4/1/1 2/2/1 7/3/1 3/4/1
f 1/5/1 3/6/1 8/7/1 11/8/1
f 3/9/1 7/3/1 8/10/1
f 10/11/1 9/12/1 7/3/1 6/13/1
f 5/14/1 11/8/1 8/7/1 9/15/1
f 9/16/1 8/10/1 7/3/1
o monorail.022_Cube.297
v 0.400000 0.200000 0.700000
v 0.400000 0.800000 0.700001
v 0.400000 0.500000 0.700000
v -0.400000 0.200000 0.700000
v 0.000000 0.200000 0.700000
v -0.400000 0.800000 0.700001
v 0.000000 0.800000 0.700001
v 0.000000 0.500000 0.700000
v -0.400000 0.500000 0.700000
vt 0.625422 0.600814
vt 0.635422 0.600814
vt 0.635422 0.610814
vt 0.625422 0.610814
vt 0.625422 0.600814
vt 0.635422 0.600814
vt 0.635422 0.610814
vt 0.625422 0.610814
vt 0.625422 0.600814
vt 0.635422 0.600814
vt 0.625422 0.600814
vt 0.635422 0.600814
vn 0.0000 0.0000 -1.0000
s off
f 14/17/2 12/18/2 16/19/2 19/20/2
f 13/21/2 14/22/2 19/23/2 18/24/2
f 20/25/2 19/20/2 16/19/2 15/26/2
f 17/27/2 18/24/2 19/23/2 20/28/2
o monorail.021_Cube.296
v 0.400000 0.200000 0.700000
v 0.400000 0.500000 0.700000
v 0.400000 0.500000 1.000000
v 0.400000 0.200000 1.000000
v -0.400000 0.200000 0.700000
v -0.400000 0.500000 0.700000
v -0.400000 0.500000 1.000000
v -0.400000 0.200000 1.000000
vt 0.871500 0.615578
vt 0.881500 0.615578
vt 0.881500 0.625578
vt 0.871500 0.625578
vt 0.871500 0.615578
vt 0.871500 0.625578
vt 0.881500 0.625578
vt 0.881500 0.615578
vn 1.0000 0.0000 0.0000
vn -1.0000 0.0000 0.0000
s off
f 21/29/3 22/30/3 23/31/3 24/32/3
f 25/33/4 28/34/4 27/35/4 26/36/4
o monorail.020_Cube.295
v 0.400000 0.200000 -1.000000
v 0.400000 0.200000 -0.820000
v 0.400000 0.200000 0.220000
v 0.400000 0.200000 -0.393792
v 0.400000 0.200000 -0.206208
v 0.400000 0.500000 0.400000
v 0.400000 0.500000 -1.000000
v 0.400000 0.500000 -0.206208
v 0.400000 0.500000 0.220000
v 0.400000 0.200000 0.400000
v 0.400000 0.500000 -0.820000
v 0.400000 0.500000 -0.393792
v -0.400000 0.200000 -1.000000
v -0.400000 0.200000 -0.820000
v -0.400000 0.200000 0.220000
v -0.400000 0.200000 -0.393792
v -0.400000 0.200000 -0.206208
v -0.400000 0.500000 0.400000
v -0.400000 0.500000 -1.000000
v -0.400000 0.500000 -0.206208
v -0.400000 0.500000 0.220000
v -0.400000 0.200000 0.400000
v -0.400000 0.500000 -0.820000
v -0.400000 0.500000 -0.393792
vt 0.871500 0.615578
vt 0.881500 0.615578
vt 0.881500 0.625578
vt 0.871500 0.625578
vt 0.871500 0.615578
vt 0.881500 0.615578
vt 0.881500 0.625578
vt 0.871500 0.625578
vt 0.871500 0.615578
vt 0.881500 0.615578
vt 0.881500 0.625578
vt 0.871500 0.625578
vt 0.871500 0.615578
vt 0.881500 0.615578
vt 0.881500 0.625578
vt 0.871500 0.625578
vt 0.871500 0.615578
vt 0.881500 0.615578
vt 0.881500 0.625578
vt 0.871500 0.625578
vt 0.871500 0.615578
vt 0.871500 0.625578
vt 0.881500 0.625578
vt 0.881500 0.615578
vt 0.871500 0.615578
vt 0.871500 0.625578
vt 0.881500 0.625578
vt 0.881500 0.615578
vt 0.871500 0.615578
vt 0.871500 0.625578
vt 0.881500 0.625578
vt 0.881500 0.615578
vt 0.871500 0.615578
vt 0.871500 0.625578
vt 0.881500 0.625578
vt 0.881500 0.615578
vt 0.871500 0.615578
vt 0.871500 0.625578
vt 0.881500 0.625578
vt 0.881500 0.615578
vn 1.0000 0.0000 0.0000
vn -1.0000 0.0000 0.0000
s off
f 31/37/5 37/38/5 34/39/5 38/40/5
f 29/41/5 35/42/5 39/43/5 30/44/5
f 30/45/5 39/46/5 40/47/5 32/48/5
f 32/49/5 40/50/5 36/51/5 33/52/5
f 33/53/5 36/54/5 37/55/5 31/56/5
f 43/57/6 50/58/6 46/59/6 49/60/6
f 41/61/6 42/62/6 51/63/6 47/64/6
f 42/65/6 44/66/6 52/67/6 51/68/6
f 44/69/6 45/70/6 48/71/6 52/72/6
f 45/73/6 43/74/6 49/75/6 48/76/6
o monorail.019_Cube.294
v 0.400000 0.000000 1.000000
v 0.200000 0.200000 1.000000
v 0.400000 0.200000 1.000000
v 0.200000 0.000000 1.000000
v -0.400000 0.000000 1.000000
v -0.200000 0.200000 1.000000
v -0.400000 0.200000 1.000000
v -0.200000 0.000000 1.000000
vt 0.847047 0.574869
vt 0.857047 0.574869
vt 0.857047 0.584869
vt 0.847047 0.584869
vt 0.847047 0.574869
vt 0.847047 0.584869
vt 0.857047 0.584869
vt 0.857047 0.574869
vn 0.0000 -0.0000 1.0000
s off
f 53/77/7 55/78/7 54/79/7 56/80/7
f 57/81/7 60/82/7 58/83/7 59/84/7
o monorail.018_Cube.293
v 0.200000 0.500000 0.400000
v 0.200000 0.800000 0.400001
v 0.200000 0.200000 0.400000
v 0.400000 0.800000 0.400001
v 0.400000 0.500000 0.400000
v 0.400000 0.200000 0.400000
v -0.200000 0.500000 0.400000
v -0.200000 0.800000 0.400001
v -0.200000 0.200000 0.400000
v -0.400000 0.800000 0.400001
v -0.400000 0.500000 0.400000
v -0.400000 0.200000 0.400000
vt 0.625422 0.600814
vt 0.635422 0.600814
vt 0.635422 0.610814
vt 0.625422 0.610814
vt 0.625422 0.600814
vt 0.635422 0.600814
vt 0.635422 0.610814
vt 0.625422 0.610814
vt 0.625422 0.600814
vt 0.625422 0.610814
vt 0.635422 0.610814
vt 0.635422 0.600814
vt 0.625422 0.600814
vt 0.625422 0.610814
vt 0.635422 0.610814
vt 0.635422 0.600814
vn 0.0000 -0.0000 1.0000
s off
f 65/85/8 64/86/8 62/87/8 61/88/8
f 66/89/8 65/90/8 61/91/8 63/92/8
f 71/93/8 67/94/8 68/95/8 70/96/8
f 72/97/8 69/98/8 67/99/8 71/100/8
o monorail.017_Cube.292
v 0.400000 1.000000 -0.300000
v 0.400000 1.000000 -1.000000
v 0.400000 1.000000 0.400001
v 0.000000 1.000000 -1.000000
v 0.000000 1.000000 -0.300000
v 0.000000 1.000000 0.400001
v -0.400000 1.000000 -0.300000
v -0.400000 1.000000 -1.000000
v -0.400000 1.000000 0.400001
vt 0.871500 0.120961
vt 0.881500 0.120961
vt 0.881500 0.130961
vt 0.871500 0.130961
vt 0.871500 0.120961
vt 0.881500 0.120961
vt 0.881500 0.130961
vt 0.871500 0.130961
vt 0.871500 0.120961
vt 0.871500 0.130961
vt 0.871500 0.120961
vt 0.871500 0.130961
vn 0.0000 1.0000 0.0000
s off
f 74/101/9 76/102/9 77/103/9 73/104/9
f 73/105/9 77/106/9 78/107/9 75/108/9
f 80/109/9 79/110/9 77/103/9 76/102/9
f 79/111/9 81/112/9 78/107/9 77/106/9
o monorail.016_Cube.291
v 0.200000 0.200000 0.000000
v 0.400000 0.200000 0.700000
v 0.200000 0.200000 0.400000
v 0.400000 0.200000 0.400000
v -0.200000 0.200000 0.000000
v 0.000000 0.200000 0.000000
v 0.000000 0.200000 0.400000
v -0.400000 0.200000 0.700000
v 0.000000 0.200000 0.700000
v -0.200000 0.200000 0.400000
v -0.400000 0.200000 0.400000
vt 0.625422 0.600814
vt 0.635422 0.600814
vt 0.635422 0.610814
vt 0.625422 0.610814
vt 0.635422 0.600814
vt 0.635422 0.610814
vt 0.625422 0.600814
vt 0.635422 0.600814
vt 0.635422 0.610814
vt 0.625422 0.610814
vt 0.625422 0.600814
vt 0.635422 0.600814
vt 0.635422 0.610814
vt 0.625422 0.610814
vt 0.635422 0.610814
vt 0.635422 0.600814
vn 0.0000 1.0000 0.0000
s off
f 84/113/10 82/114/10 87/115/10 88/116/10
f 90/117/10 84/118/10 88/116/10
f 90/119/10 83/120/10 85/121/10 84/122/10
f 91/123/10 88/116/10 87/115/10 86/124/10
f 90/117/10 88/116/10 91/125/10
f 90/119/10 91/126/10 92/127/10 89/128/10
o monorail.015_Cube.290
v 0.400000 0.500000 1.000000
v 0.200000 0.200000 1.000000
v 0.400000 0.200000 1.000000
v -0.400000 0.500000 1.000000
v 0.000000 0.500000 1.000000
v 0.000000 0.200000 1.000000
v -0.200000 0.200000 1.000000
v -0.400000 0.200000 1.000000
vt 0.871500 0.615578
vt 0.881500 0.625578
vt 0.871500 0.625578
vt 0.871500 0.615578
vt 0.881500 0.615578
vt 0.871500 0.625578
vt 0.871500 0.615578
vt 0.871500 0.615578
vt 0.871500 0.625578
vt 0.881500 0.615578
vn -0.0000 -0.0000 1.0000
s off
f 94/129/11 97/130/11 98/131/11
f 95/132/11 93/133/11 97/130/11 94/134/11
f 99/135/11 98/131/11 97/130/11
f 100/136/11 99/137/11 97/130/11 96/138/11
o monorail.014_Cube.289
v 0.200000 0.200000 0.000000
v 0.200000 0.800000 0.000001
v 0.200000 0.500000 0.000000
v 0.200000 0.500000 0.400000
v 0.200000 0.800000 0.400001
v 0.200000 0.200000 0.400000
v -0.200000 0.200000 0.000000
v -0.200000 0.800000 0.000001
v -0.200000 0.500000 0.000000
v -0.200000 0.500000 0.400000
v -0.200000 0.800000 0.400001
v -0.200000 0.200000 0.400000
vt 0.625422 0.600814
vt 0.635422 0.600814
vt 0.635422 0.610814
vt 0.625422 0.610814
vt 0.625422 0.600814
vt 0.635422 0.600814
vt 0.635422 0.610814
vt 0.625422 0.610814
vt 0.625422 0.600814
vt 0.625422 0.610814
vt 0.635422 0.610814
vt 0.635422 0.600814
vt 0.625422 0.600814
vt 0.625422 0.610814
vt 0.635422 0.610814
vt 0.635422 0.600814
vn -1.0000 -0.0000 0.0000
vn 1.0000 -0.0000 0.0000
s off
f 104/139/12 105/140/12 102/141/12 103/142/12
f 106/143/12 104/144/12 103/145/12 101/146/12
f 110/147/13 109/148/13 108/149/13 111/150/13
f 112/151/13 107/152/13 109/153/13 110/154/13
o monorail.013_Cube.288
v 0.400000 0.500000 1.000000
v 0.400000 0.800000 1.000001
v 0.400000 1.000000 1.000001
v -0.400000 0.500000 1.000000
v -0.400000 0.800000 1.000001
v 0.000000 0.800000 1.000000
v 0.000000 1.000000 1.000001
v -0.400000 1.000000 1.000001
v 0.000000 0.500000 1.000000
vt 0.859196 0.357196
vt 0.869196 0.357196
vt 0.869196 0.367196
vt 0.859196 0.367196
vt 0.859196 0.357196
vt 0.869196 0.357196
vt 0.869196 0.367196
vt 0.859196 0.367196
vt 0.859196 0.357196
vt 0.869196 0.357196
vt 0.859196 0.357196
vt 0.869196 0.357196
vn -0.0000 -0.0000 1.0000
s off
f 114/155/14 115/156/14 119/157/14 118/158/14
f 113/159/14 114/160/14 118/161/14 121/162/14
f 117/163/14 118/158/14 119/157/14 120/164/14
f 116/165/14 121/162/14 118/161/14 117/166/14
o monorail.012_Cube.287
v 0.400000 0.800000 0.220001
v 0.400000 0.500000 -0.206208
v 0.400000 0.500000 0.220000
v 0.400000 0.800000 -0.206208
v -0.400000 0.800000 0.220001
v -0.400000 0.500000 -0.206208
v -0.400000 0.500000 0.220000
v -0.400000 0.800000 -0.206208
vt 0.098814 0.856735
vt 0.108814 0.856735
vt 0.108814 0.866735
vt 0.098814 0.866735
vt 0.098814 0.856735
vt 0.098814 0.866735
vt 0.108814 0.866735
vt 0.108814 0.856735
vn 1.0000 0.0000 0.0000
vn -1.0000 0.0000 0.0000
s off
f 123/167/15 125/168/15 122/169/15 124/170/15
f 127/171/16 128/172/16 126/173/16 129/174/16
o monorail.011_Cube.286
v 0.200000 0.000000 -1.000000
v 0.400000 0.000000 -0.300000
v 0.400000 0.000000 1.000000
v 0.200000 0.000000 -0.300000
v 0.400000 0.000000 0.220000
v 0.200000 0.000000 0.220000
v 0.400000 0.000000 -1.000000
v 0.200000 0.000000 1.000000
v -0.200000 0.000000 -1.000000
v -0.400000 0.000000 -0.300000
v -0.400000 0.000000 1.000000
v -0.200000 0.000000 -0.300000
v -0.400000 0.000000 0.220000
v -0.200000 0.000000 0.220000
v -0.400000 0.000000 -1.000000
v -0.200000 0.000000 1.000000
vt 0.851969 0.599477
vt 0.861969 0.599477
vt 0.861969 0.609477
vt 0.851969 0.609477
vt 0.851969 0.599477
vt 0.861969 0.599477
vt 0.861969 0.609477
vt 0.851969 0.609477
vt 0.859351 0.594555
vt 0.869351 0.594555
vt 0.869351 0.604555
vt 0.859351 0.604555
vt 0.851969 0.599477
vt 0.851969 0.609477
vt 0.861969 0.609477
vt 0.861969 0.599477
vt 0.851969 0.599477
vt 0.851969 0.609477
vt 0.861969 0.609477
vt 0.861969 0.599477
vt 0.859351 0.594555
vt 0.859351 0.604555
vt 0.869351 0.604555
vt 0.869351 0.594555
vn 0.0000 -1.0000 0.0000
s off
f 136/175/17 131/176/17 133/177/17 130/178/17
f 131/179/17 134/180/17 135/181/17 133/182/17
f 134/183/17 132/184/17 137/185/17 135/186/17
f 144/187/17 138/188/17 141/189/17 139/190/17
f 139/191/17 141/192/17 143/193/17 142/194/17
f 142/195/17 143/196/17 145/197/17 140/198/17
o monorail.010_Cube.285
v 0.200000 0.200000 0.000000
v 0.200000 0.800000 0.000001
v 0.200000 0.500000 0.000000
v -0.200000 0.200000 0.000000
v -0.200000 0.800000 0.000001
v -0.200000 0.500000 0.000000
v 0.000000 0.200000 0.000000
v 0.000000 0.500000 0.000000
v 0.000000 0.800000 0.000001
vt 0.625422 0.600814
vt 0.635422 0.600814
vt 0.635422 0.610814
vt 0.625422 0.610814
vt 0.625422 0.600814
vt 0.635422 0.600814
vt 0.635422 0.610814
vt 0.625422 0.610814
vt 0.625422 0.600814
vt 0.635422 0.600814
vt 0.625422 0.600814
vt 0.635422 0.600814
vn 0.0000 -0.0000 1.0000
s off
f 148/199/18 147/200/18 154/201/18 153/202/18
f 146/203/18 148/204/18 153/205/18 152/206/18
f 151/207/18 153/202/18 154/201/18 150/208/18
f 149/209/18 152/206/18 153/205/18 151/210/18
o monorail.009_Cube.284
v 0.200000 0.000000 -1.000000
v 0.400000 0.200000 -1.000000
v 0.200000 0.200000 -1.000000
v 0.400000 0.000000 -1.000000
v -0.200000 0.000000 -1.000000
v -0.400000 0.200000 -1.000000
v -0.200000 0.200000 -1.000000
v -0.400000 0.000000 -1.000000
vt 0.851969 0.599477
vt 0.861969 0.599477
vt 0.861969 0.609477
vt 0.851969 0.609477
vt 0.851969 0.599477
vt 0.851969 0.609477
vt 0.861969 0.609477
vt 0.861969 0.599477
vn 0.0000 0.0000 -1.0000
s off
f 156/211/19 158/212/19 155/213/19 157/214/19
f 160/215/19 161/216/19 159/217/19 162/218/19
o monorail.008_Cube.283
v 0.400000 1.000000 1.000001
v 0.400000 1.000000 0.400001
v 0.000000 1.000000 1.000001
v -0.400000 1.000000 1.000001
v 0.000000 1.000000 0.400001
v -0.400000 1.000000 0.400001
vt 0.859196 0.357196
vt 0.869196 0.357196
vt 0.869196 0.367196
vt 0.859196 0.367196
vt 0.859196 0.357196
vt 0.859196 0.367196
vn 0.0000 1.0000 0.0000
s off
f 164/219/20 167/220/20 165/221/20 163/222/20
f 168/223/20 166/224/20 165/221/20 167/220/20
o monorail.007_Cube.282
v 0.400000 0.500000 -1.000000
v 0.400000 1.000000 -1.000000
v 0.000000 0.500000 -1.000000
v -0.400000 0.500000 -1.000000
v 0.000000 1.000000 -1.000000
v -0.400000 1.000000 -1.000000
vt 0.871500 0.120961
vt 0.881500 0.120961
vt 0.881500 0.130961
vt 0.871500 0.130961
vt 0.871500 0.120961
vt 0.881500 0.120961
vn 0.0000 0.0000 -1.0000
s off
f 170/225/21 169/226/21 171/227/21 173/228/21
f 174/229/21 173/228/21 171/227/21 172/230/21
o monorail.006_Cube.281
v 0.400000 0.200000 -1.000000
v 0.200000 0.200000 -1.000000
v 0.400000 0.500000 -1.000000
v 0.000000 0.200000 -1.000000
v -0.400000 0.200000 -1.000000
v -0.200000 0.200000 -1.000000
v 0.000000 0.500000 -1.000000
v -0.400000 0.500000 -1.000000
vt 0.871500 0.615578
vt 0.881500 0.615578
vt 0.881500 0.625578
vt 0.871500 0.615578
vt 0.881500 0.615578
vt 0.881500 0.625578
vt 0.871500 0.625578
vt 0.881500 0.615578
vt 0.871500 0.615578
vt 0.881500 0.625578
vt 0.881500 0.615578
vn 0.0000 0.0000 -1.0000
s off
f 181/231/22 176/232/22 178/233/22
f 177/234/22 175/235/22 176/236/22 181/237/22
f 181/231/22 178/233/22 180/238/22
f 182/239/22 181/237/22 180/240/22 179/241/22
o monorail.005_Cube.280
v 0.400000 0.800000 -0.393791
v 0.400000 0.500000 -0.820000
v 0.400000 0.800000 -0.820000
v 0.400000 0.500000 -0.393792
v -0.400000 0.800000 -0.393791
v -0.400000 0.500000 -0.820000
v -0.400000 0.800000 -0.820000
v -0.400000 0.500000 -0.393792
vt 0.098814 0.856735
vt 0.108814 0.856735
vt 0.108814 0.866735
vt 0.098814 0.866735
vt 0.098814 0.856735
vt 0.098814 0.866735
vt 0.108814 0.866735
vt 0.108814 0.856735
vn 1.0000 0.0000 0.0000
vn -1.0000 0.0000 0.0000
s off
f 184/242/23 185/243/23 183/244/23 186/245/23
f 188/246/24 190/247/24 187/248/24 189/249/24
o monorail.004_Cube.279
v 0.400000 0.800000 0.700001
v 0.400000 0.500000 0.700000
v 0.400000 0.800000 0.400001
v 0.400000 0.500000 1.000000
v 0.400000 0.800000 1.000001
v 0.400000 1.000000 1.000001
v 0.400000 1.000000 0.400001
v -0.400000 0.800000 0.700001
v -0.400000 0.500000 0.700000
v -0.400000 0.800000 0.400001
v -0.400000 0.500000 1.000000
v -0.400000 0.800000 1.000001
v -0.400000 1.000000 1.000001
v -0.400000 1.000000 0.400001
vt 0.859196 0.357196
vt 0.869196 0.367196
vt 0.859196 0.367196
vt 0.859196 0.357196
vt 0.869196 0.357196
vt 0.859196 0.367196
vt 0.859196 0.357196
vt 0.869196 0.357196
vt 0.869196 0.367196
vt 0.859196 0.367196
vt 0.859196 0.357196
vt 0.859196 0.367196
vt 0.869196 0.367196
vt 0.859196 0.357196
vt 0.859196 0.367196
vt 0.869196 0.357196
vt 0.859196 0.357196
vt 0.859196 0.367196
vt 0.869196 0.367196
vt 0.869196 0.357196
vn 1.0000 0.0000 0.0000
vn -1.0000 0.0000 0.0000
s off
f 191/250/25 196/251/25 195/252/25
f 193/253/25 197/254/25 196/251/25 191/255/25
f 192/256/25 191/257/25 195/258/25 194/259/25
f 198/260/26 202/261/26 203/262/26
f 200/263/26 198/264/26 203/262/26 204/265/26
f 199/266/26 201/267/26 202/268/26 198/269/26
o monorail.003_Cube.278
v 0.200000 0.000000 -1.000000
v 0.200000 0.200000 -1.000000
v 0.200000 0.000000 -0.300000
v 0.200000 0.000000 0.220000
v 0.200000 0.200000 0.400000
v 0.200000 0.200000 0.220000
v 0.200000 0.200000 -0.206208
v 0.200000 0.200000 -0.393792
v 0.200000 0.200000 -0.820000
v 0.200000 0.200000 1.000000
v 0.200000 0.000000 1.000000
v -0.200000 0.000000 -1.000000
v -0.200000 0.200000 -1.000000
v -0.200000 0.000000 -0.300000
v -0.200000 0.000000 0.220000
v -0.200000 0.200000 0.400000
v -0.200000 0.200000 0.220000
v -0.200000 0.200000 -0.206208
v -0.200000 0.200000 -0.393792
v -0.200000 0.200000 -0.820000
v -0.200000 0.200000 1.000000
v -0.200000 0.000000 1.000000
vt 0.829821 0.582251
vt 0.839821 0.582251
vt 0.839821 0.592251
vt 0.829821 0.592251
vt 0.807753 0.594633
vt 0.807753 0.594633
vt 0.807753 0.594633
vt 0.837282 0.609398
vt 0.837282 0.609398
vt 0.837282 0.609398
vt 0.837282 0.609398
vt 0.837282 0.609398
vt 0.837282 0.609398
vt 0.837282 0.609398
vt 0.837282 0.609398
vt 0.829821 0.582251
vt 0.829821 0.592251
vt 0.839821 0.592251
vt 0.839821 0.582251
vt 0.807753 0.594633
vt 0.807753 0.594633
vt 0.807753 0.594633
vt 0.837282 0.609398
vt 0.837282 0.609398
vt 0.837282 0.609398
vt 0.837282 0.609398
vt 0.837282 0.609398
vt 0.837282 0.609398
vt 0.837282 0.609398
vt 0.837282 0.609398
vn -1.0000 -0.0000 0.0000
vn 1.0000 -0.0000 0.0000
s off
f 208/270/27 215/271/27 214/272/27 209/273/27
f 209/274/27 210/275/27 208/276/27
f 213/277/27 206/278/27 205/279/27
f 210/280/27 211/281/27 207/282/27 208/283/27
f 211/281/27 212/284/27 207/282/27
f 212/284/27 213/277/27 205/279/27 207/282/27
f 219/285/28 220/286/28 225/287/28 226/288/28
f 220/289/28 219/290/28 221/291/28
f 224/292/28 216/293/28 217/294/28
f 221/295/28 219/296/28 218/297/28 222/298/28
f 222/298/28 218/297/28 223/299/28
f 223/299/28 218/297/28 216/293/28 224/292/28
o monorail.002_Cube.277
v 0.400000 0.200000 -1.000000
v 0.400000 0.000000 -0.300000
v 0.400000 0.000000 1.000000
v 0.400000 0.000000 0.220000
v 0.400000 0.200000 0.700000
v 0.400000 0.000000 -1.000000
v 0.400000 0.200000 -0.820000
v 0.400000 0.200000 0.220000
v 0.400000 0.200000 -0.393792
v 0.400000 0.200000 -0.206208
v 0.400000 0.200000 1.000000
v 0.400000 0.200000 0.400000
v -0.400000 0.200000 -1.000000
v -0.400000 0.000000 -0.300000
v -0.400000 0.000000 1.000000
v -0.400000 0.000000 0.220000
v -0.400000 0.200000 0.700000
v -0.400000 0.000000 -1.000000
v -0.400000 0.200000 -0.820000
v -0.400000 0.200000 0.220000
v -0.400000 0.200000 -0.393792
v -0.400000 0.200000 -0.206208
v -0.400000 0.200000 1.000000
v -0.400000 0.200000 0.400000
vt 0.851969 0.599477
vt 0.861969 0.599477
vt 0.861969 0.609477
vt 0.861969 0.599477
vt 0.861969 0.609477
vt 0.851969 0.609477
vt 0.851969 0.599477
vt 0.861969 0.599477
vt 0.861969 0.609477
vt 0.861969 0.599477
vt 0.861969 0.609477
vt 0.851969 0.609477
vt 0.847047 0.574869
vt 0.857047 0.574869
vt 0.857047 0.584869
vt 0.847047 0.574869
vt 0.857047 0.574869
vt 0.857047 0.584869
vt 0.847047 0.584869
vt 0.857047 0.574869
vt 0.857047 0.584869
vt 0.851969 0.599477
vt 0.861969 0.609477
vt 0.861969 0.599477
vt 0.851969 0.609477
vt 0.861969 0.609477
vt 0.861969 0.599477
vt 0.851969 0.599477
vt 0.861969 0.609477
vt 0.861969 0.599477
vt 0.851969 0.609477
vt 0.861969 0.609477
vt 0.861969 0.599477
vt 0.847047 0.574869
vt 0.857047 0.584869
vt 0.857047 0.574869
vt 0.847047 0.574869
vt 0.847047 0.584869
vt 0.857047 0.584869
vt 0.857047 0.574869
vt 0.857047 0.584869
vt 0.857047 0.574869
vn 1.0000 -0.0000 0.0000
vn -1.0000 -0.0000 0.0000
s off
f 232/300/29 227/301/29 233/302/29
f 232/300/29 233/303/29 235/304/29 228/305/29
f 228/306/29 235/307/29 236/308/29
f 228/306/29 236/309/29 234/310/29 230/311/29
f 229/312/29 231/313/29 237/314/29
f 230/315/29 238/316/29 231/317/29 229/318/29
f 230/315/29 234/319/29 238/320/29
f 244/321/30 245/322/30 239/323/30
f 244/321/30 240/324/30 247/325/30 245/326/30
f 240/327/30 248/328/30 247/329/30
f 240/327/30 242/330/30 246/331/30 248/332/30
f 241/333/30 249/334/30 243/335/30
f 242/336/30 241/337/30 243/338/30 250/339/30
f 242/336/30 250/340/30 246/341/30
o monorail.001_Cube.276
v 0.400000 0.800000 -0.393791
v 0.400000 0.800000 0.220001
v 0.400000 0.800000 0.400001
v 0.400000 0.500000 0.400000
v 0.400000 0.500000 -1.000000
v 0.400000 0.500000 -0.206208
v 0.400000 0.500000 0.220000
v 0.400000 0.500000 -0.820000
v 0.400000 0.800000 -0.820000
v 0.400000 0.500000 -0.393792
v 0.400000 1.000000 -0.300000
v 0.400000 0.800000 -0.206208
v 0.400000 1.000000 -1.000000
v 0.400000 1.000000 0.400001
v -0.400000 0.800000 -0.393791
v -0.400000 0.800000 0.220001
v -0.400000 0.800000 0.400001
v -0.400000 0.500000 0.400000
v -0.400000 0.500000 -1.000000
v -0.400000 0.500000 -0.206208
v -0.400000 0.500000 0.220000
v -0.400000 0.500000 -0.820000
v -0.400000 0.800000 -0.820000
v -0.400000 0.500000 -0.393792
v -0.400000 1.000000 -0.300000
v -0.400000 0.800000 -0.206208
v -0.400000 1.000000 -1.000000
v -0.400000 1.000000 0.400001
vt 0.824040 0.118915
vt 0.834040 0.128915
vt 0.824040 0.128915
vt 0.824040 0.118915
vt 0.834040 0.118915
vt 0.834040 0.128915
vt 0.824040 0.128915
vt 0.871500 0.120961
vt 0.881500 0.120961
vt 0.881500 0.130961
vt 0.871500 0.130961
vt 0.871500 0.120961
vt 0.881500 0.120961
vt 0.881500 0.130961
vt 0.871500 0.130961
vt 0.871500 0.120961
vt 0.881500 0.130961
vt 0.871500 0.130961
vt 0.871500 0.120961
vt 0.871500 0.130961
vt 0.871500 0.120961
vt 0.881500 0.120961
vt 0.881500 0.130961
vt 0.871500 0.130961
vt 0.824040 0.118915
vt 0.824040 0.128915
vt 0.834040 0.128915
vt 0.824040 0.118915
vt 0.824040 0.128915
vt 0.834040 0.128915
vt 0.834040 0.118915
vt 0.871500 0.120961
vt 0.871500 0.130961
vt 0.881500 0.130961
vt 0.881500 0.120961
vt 0.871500 0.120961
vt 0.871500 0.130961
vt 0.881500 0.130961
vt 0.881500 0.120961
vt 0.871500 0.120961
vt 0.871500 0.130961
vt 0.881500 0.130961
vt 0.871500 0.120961
vt 0.871500 0.130961
vt 0.871500 0.120961
vt 0.871500 0.130961
vt 0.881500 0.130961
vt 0.881500 0.120961
vn 1.0000 0.0000 0.0000
vn -1.0000 0.0000 0.0000
s off
f 252/342/31 264/343/31 253/344/31
f 257/345/31 252/346/31 253/347/31 254/348/31
f 255/349/31 263/350/31 259/351/31 258/352/31
f 260/353/31 251/354/31 262/355/31 256/356/31
f 259/357/31 263/350/31 261/358/31 251/359/31
f 251/360/31 261/358/31 262/361/31
f 262/362/31 261/363/31 264/364/31 252/365/31
f 266/366/32 267/367/32 278/368/32
f 271/369/32 268/370/32 267/371/32 266/372/32
f 269/373/32 272/374/32 273/375/32 277/376/32
f 274/377/32 270/378/32 276/379/32 265/380/32
f 273/381/32 265/382/32 275/383/32 277/376/32
f 265/384/32 276/385/32 275/383/32
f 276/386/32 266/387/32 278/388/32 275/389/32
