# Blender v2.79 (sub 0) OBJ File: 'sofa.blend'
# www.blender.org
o pipe.001_Cylinder.002
v -0.000000 0.200000 -0.500000
v 0.000000 0.200000 0.500000
v 0.141421 0.141421 -0.500000
v 0.141421 0.141421 0.500000
v 0.200000 -0.000000 -0.500000
v 0.200000 0.000000 0.500000
v 0.141421 -0.141421 -0.500000
v 0.141421 -0.141421 0.500000
v -0.000000 -0.200000 -0.500000
v -0.000000 -0.200000 0.500000
v -0.141421 -0.141421 -0.500000
v -0.141421 -0.141421 0.500000
v -0.200000 -0.000000 -0.500000
v -0.200000 0.000000 0.500000
v -0.141421 0.141421 -0.500000
v -0.141421 0.141421 0.500000
vt 0.294153 0.000099
vt 0.645977 0.668977
vt 0.725230 0.516807
vt 0.004940 0.291895
vt 0.667896 0.353415
vt 0.000099 0.703777
vt 0.510900 0.276216
vt 0.286828 0.999077
vt 0.343767 0.328530
vt 0.698444 0.999901
vt 0.262136 0.481618
vt 0.986789 0.705509
vt 0.317371 0.644044
vt 0.983939 0.293168
vt 0.477354 0.707754
vt 0.695961 0.000099
vn 0.0000 1.0000 0.0000
vn 0.7071 0.7071 0.0000
vn 1.0000 0.0000 0.0000
vn 0.7071 -0.7071 0.0000
vn 0.0000 -1.0000 0.0000
vn -0.7071 -0.7071 0.0000
vn -1.0000 0.0000 0.0000
vn -0.7071 0.7071 0.0000
s 1
f 1/1/1 2/2/1 4/3/2 3/4/2
f 3/4/2 4/3/2 6/5/3 5/6/3
f 5/6/3 6/5/3 8/7/4 7/8/4
f 7/8/4 8/7/4 10/9/5 9/10/5
f 9/10/5 10/9/5 12/11/6 11/12/6
f 11/12/6 12/11/6 14/13/7 13/14/7
f 13/14/7 14/13/7 16/15/8 15/16/8
f 15/16/8 16/15/8 2/2/1 1/1/1
