# Blender v2.79 (sub 0) OBJ File: 'monorail.blend'
# www.blender.org
o rail_turn.017_Cube.413
v 3.000001 0.200000 -3.000000
v 3.000001 0.200000 -1.000000
v 3.000001 2.000000 -1.000000
v 3.000001 2.000000 -3.000000
vt 0.863317 0.625897
vt 0.863317 0.625897
vt 0.863317 0.625897
vt 0.863317 0.625897
vn 1.0000 0.0000 0.0000
s 1
f 4/1/1 3/2/1 2/3/1 1/4/1
o rail_turn.016_Cube.412
v 3.000001 0.200000 -1.000000
v 3.000001 2.000000 -1.000000
v 1.000000 2.000000 -1.000000
v 1.000000 0.200000 -1.000000
vt 0.859949 0.626191
vt 0.859598 0.625897
vt 0.859598 0.625897
vt 0.859949 0.626191
vn 0.0000 0.0000 1.0000
s 1
f 6/5/2 7/6/2 8/7/2 5/8/2
o rail_turn.015_Cube.411
v 1.631921 0.200000 -4.758770
v 1.000001 0.200000 -4.464101
v -0.064177 0.200000 -3.571151
v -0.939231 0.200000 -1.694593
v 2.305408 0.200000 -4.939230
v -0.464101 0.200000 -3.000000
v -1.000000 2.000000 -1.000000
v -0.939231 2.000000 -1.694593
v -0.758770 2.000000 -2.368081
v -0.464101 2.000000 -3.000000
v -0.064177 2.000000 -3.571151
v 0.428851 2.000000 -4.064178
v 1.000001 2.000000 -4.464101
v 1.631921 2.000000 -4.758770
v 2.305408 2.000000 -4.939230
v 3.000001 2.000000 -4.999999
v -0.758770 0.200000 -2.368081
v -1.000000 0.200000 -1.000000
v 3.000001 0.200000 -4.999999
v 0.428851 0.200000 -4.064178
vt 0.905322 0.621742
vt 0.906183 0.621428
vt 0.906183 0.621428
vt 0.905322 0.621742
vt 0.900944 0.620970
vt 0.901738 0.621428
vt 0.901738 0.621428
vt 0.900944 0.620970
vt 0.902600 0.621742
vt 0.902600 0.621742
vt 0.906977 0.620970
vt 0.906977 0.620970
vt 0.903502 0.621901
vt 0.903502 0.621901
vt 0.907679 0.620381
vt 0.907679 0.620381
vt 0.904419 0.621901
vt 0.904419 0.621901
vt 0.900242 0.620381
vt 0.900242 0.620381
vn 0.5000 0.0000 0.8660
vn 0.3420 0.0000 0.9397
vn 0.9848 0.0000 0.1736
vn 0.9397 0.0000 0.3420
vn 0.8660 0.0000 0.5000
vn 0.1736 0.0000 0.9848
vn 0.7660 0.0000 0.6428
vn 0.0872 0.0000 0.9962
vn 0.6428 0.0000 0.7660
vn 0.9962 0.0000 0.0872
s 1
f 10/9/3 9/10/4 22/11/4 21/12/3
f 12/13/5 25/14/6 17/15/6 16/16/5
f 25/14/6 14/17/7 18/18/7 17/15/6
f 9/10/4 13/19/8 23/20/8 22/11/4
f 14/17/7 11/21/9 19/22/9 18/18/7
f 13/19/8 27/23/10 24/24/10 23/20/8
f 11/21/9 28/25/11 20/26/11 19/22/9
f 28/25/11 10/9/3 21/12/3 20/26/11
f 26/27/12 12/13/5 16/16/5 15/28/12
o rail_turn.014_Cube.410
v 0.020873 -0.030000 -2.720000
v 2.402651 -0.030000 -4.387738
v 1.823452 -0.030000 -4.232542
v 3.000001 0.200000 -4.439999
v -0.440000 0.200000 -1.000000
v -0.232542 0.200000 -2.176549
v 0.020873 0.200000 -2.720000
v 0.788811 0.200000 -3.635193
v 1.823452 0.200000 -4.232542
v 1.280001 0.200000 -3.979127
v 0.364808 -0.030000 -3.211189
v -0.387739 -0.030000 -1.597350
v 3.000001 -0.030000 -4.439999
v -0.232542 -0.030000 -2.176549
v -0.440000 -0.030000 -1.000000
v 1.280001 -0.030000 -3.979127
v 0.364808 0.200000 -3.211189
v -0.387739 0.200000 -1.597350
v 0.788811 -0.030000 -3.635193
v 2.402651 0.200000 -4.387738
vt 0.361692 0.866684
vt 0.361692 0.866382
vt 0.362480 0.866382
vt 0.362480 0.866684
vt 0.363269 0.866382
vt 0.363269 0.866684
vt 0.364057 0.866382
vt 0.364057 0.866684
vt 0.364846 0.866382
vt 0.364846 0.866684
vt 0.365634 0.866382
vt 0.365634 0.866684
vt 0.366422 0.866382
vt 0.366422 0.866684
vt 0.367211 0.866382
vt 0.367211 0.866684
vt 0.367999 0.866382
vt 0.367999 0.866684
vt 0.368787 0.866382
vt 0.368787 0.866684
vn 0.9962 0.0000 0.0872
vn 0.9848 0.0000 0.1736
vn 0.9397 0.0000 0.3420
vn 0.8660 0.0000 0.5000
vn 0.7660 0.0000 0.6428
vn 0.6428 0.0000 0.7660
vn 0.5000 0.0000 0.8660
vn 0.3420 0.0000 0.9397
vn 0.1736 0.0000 0.9848
vn 0.0872 0.0000 0.9962
s 1
f 33/29/13 43/30/13 40/31/14 46/32/14
f 46/32/14 40/31/14 42/33/15 34/34/15
f 34/34/15 42/33/15 29/35/16 35/36/16
f 35/36/16 29/35/16 39/37/17 45/38/17
f 45/38/17 39/37/17 47/39/18 36/40/18
f 36/40/18 47/39/18 44/41/19 38/42/19
f 38/42/19 44/41/19 31/43/20 37/44/20
f 37/44/20 31/43/20 30/45/21 48/46/21
f 48/46/21 30/45/21 41/47/22 32/48/22
o rail_turn.013_Cube.409
v -0.117691 0.200000 -2.800000
v 0.685965 0.200000 -3.757760
v 1.768728 0.200000 -4.382893
v 1.200001 0.200000 -4.117691
v 0.242241 0.200000 -3.314035
v 2.374868 0.200000 -4.545307
v -0.545308 0.200000 -1.625134
v 3.000001 0.200000 -4.599998
v -0.382893 0.200000 -2.231273
v -0.600000 0.200000 -1.000000
v 1.631921 0.200000 -4.758770
v 1.000001 0.200000 -4.464101
v -0.064177 0.200000 -3.571151
v -0.939231 0.200000 -1.694593
v 2.305408 0.200000 -4.939230
v -0.464101 0.200000 -3.000000
v -0.758770 0.200000 -2.368081
v -1.000000 0.200000 -1.000000
v 3.000001 0.200000 -4.999999
v 0.428851 0.200000 -4.064178
vt 0.341648 0.628193
vt 0.342020 0.627821
vt 0.342652 0.628352
vt 0.342351 0.628783
vt 0.343367 0.628764
vt 0.343144 0.629241
vt 0.344142 0.629046
vt 0.344006 0.629554
vt 0.344954 0.629190
vt 0.344909 0.629714
vt 0.345779 0.629190
vt 0.345825 0.629714
vt 0.346592 0.629046
vt 0.346728 0.629554
vt 0.347367 0.628764
vt 0.347589 0.629241
vt 0.348082 0.628352
vt 0.348383 0.628783
vt 0.348714 0.627821
vt 0.349086 0.628193
vn 0.0000 1.0000 0.0000
s 1
f 66/49/23 58/50/23 55/51/23 62/52/23
f 62/52/23 55/51/23 57/53/23 65/54/23
f 65/54/23 57/53/23 49/55/23 64/56/23
f 64/56/23 49/55/23 53/57/23 61/58/23
f 61/58/23 53/57/23 50/59/23 68/60/23
f 68/60/23 50/59/23 52/61/23 60/62/23
f 60/62/23 52/61/23 51/63/23 59/64/23
f 59/64/23 51/63/23 54/65/23 63/66/23
f 63/66/23 54/65/23 56/67/23 67/68/23
o rail_turn.012_Cube.408
v 0.600000 0.200000 -1.000000
v 1.800001 0.200000 -3.078461
v 3.000001 0.200000 -3.399999
v 3.000000 0.200000 -3.559999
v 1.038927 0.200000 -2.645536
v 1.720001 0.200000 -3.217025
v 0.478892 0.200000 -1.444539
v 1.354464 0.200000 -2.961073
v 2.124429 0.200000 -3.405612
v 2.555461 0.200000 -3.521107
v 0.440000 0.200000 -1.000000
v 2.179152 0.200000 -3.255262
v 2.583245 0.200000 -3.363538
v 0.744738 0.200000 -1.820848
v 0.921539 0.200000 -2.200000
v 0.636462 0.200000 -1.416756
v 0.594387 0.200000 -1.875571
v 1.457310 0.200000 -2.838506
v 1.161494 0.200000 -2.542690
v 0.782975 0.200000 -2.280000
vt 0.600337 0.373493
vt 0.600758 0.373847
vt 0.600637 0.374019
vt 0.600188 0.373642
vt 0.601234 0.374122
vt 0.601145 0.374313
vt 0.601751 0.374310
vt 0.601697 0.374513
vt 0.602293 0.374406
vt 0.602274 0.374615
vt 0.602843 0.374406
vt 0.602861 0.374615
vt 0.603384 0.374310
vt 0.603439 0.374513
vt 0.603901 0.374122
vt 0.603990 0.374313
vt 0.604378 0.373847
vt 0.604498 0.374019
vt 0.604799 0.373493
vt 0.604948 0.373642
vn 0.0000 1.0000 0.0000
s 1
f 69/69/24 84/70/24 75/71/24 79/72/24
f 84/70/24 82/73/24 85/74/24 75/71/24
f 82/73/24 83/75/24 88/76/24 85/74/24
f 83/75/24 87/77/24 73/78/24 88/76/24
f 87/77/24 86/79/24 76/80/24 73/78/24
f 86/79/24 70/81/24 74/82/24 76/80/24
f 70/81/24 80/83/24 77/84/24 74/82/24
f 80/83/24 81/85/24 78/86/24 77/84/24
f 81/85/24 71/87/24 72/88/24 78/86/24
o rail_turn.011_Cube.407
v 2.451273 0.160000 -4.111992
v 0.030572 0.160000 -2.080784
v 0.579300 0.160000 -3.031209
v 0.160000 0.160000 -1.000000
v 0.540488 0.160000 -2.420000
v 1.174484 0.160000 -3.175566
v 0.824434 0.160000 -2.825517
v 2.028664 0.160000 -3.668726
v 2.506840 0.160000 -3.796853
v 0.203146 0.160000 -1.493161
v 0.263360 0.160000 -2.580000
v -0.160000 0.160000 -1.000000
v 1.420001 0.160000 -3.736640
v 0.331273 0.160000 -1.971337
v 0.968792 0.160000 -3.420700
v 1.919217 0.160000 -3.969428
v -0.111992 0.160000 -1.548728
v 3.000001 0.160000 -4.159999
v 3.000001 0.160000 -3.839999
v 1.580001 0.160000 -3.459512
vt 0.596516 0.371063
vt 0.597080 0.371389
vt 0.596902 0.371770
vt 0.596275 0.371408
vt 0.597692 0.371611
vt 0.597583 0.372018
vt 0.598333 0.371724
vt 0.598296 0.372143
vt 0.598984 0.371724
vt 0.599020 0.372143
vt 0.599624 0.371611
vt 0.599733 0.372018
vt 0.600236 0.371389
vt 0.600414 0.371770
vt 0.600800 0.371063
vt 0.601041 0.371408
vt 0.601298 0.370645
vt 0.601596 0.370942
vt 0.595720 0.370942
vt 0.596018 0.370645
vn 0.0000 1.0000 -0.0000
s 1
f 98/89/25 102/90/25 90/91/25 105/92/25
f 102/90/25 93/93/25 99/94/25 90/91/25
f 93/93/25 95/95/25 91/96/25 99/94/25
f 95/95/25 94/97/25 103/98/25 91/96/25
f 108/99/25 101/100/25 103/98/25 94/97/25
f 108/99/25 96/101/25 104/102/25 101/100/25
f 96/101/25 97/103/25 89/104/25 104/102/25
f 107/105/25 106/106/25 89/104/25 97/103/25
f 98/89/25 105/92/25 100/107/25 92/108/25
o rail_turn.010_Cube.406
v -0.117691 0.200000 -2.800000
v 3.000001 0.200000 -4.439999
v -0.440000 0.200000 -1.000000
v -0.232542 0.200000 -2.176549
v 0.020873 0.200000 -2.720000
v 0.788811 0.200000 -3.635193
v 1.823452 0.200000 -4.232542
v 1.280001 0.200000 -3.979127
v 0.685965 0.200000 -3.757760
v 1.768728 0.200000 -4.382893
v 1.200001 0.200000 -4.117691
v 0.242241 0.200000 -3.314035
v 2.374868 0.200000 -4.545307
v -0.545308 0.200000 -1.625134
v 3.000001 0.200000 -4.599998
v -0.382893 0.200000 -2.231273
v -0.600000 0.200000 -1.000000
v 0.364808 0.200000 -3.211189
v -0.387739 0.200000 -1.597350
v 2.402651 0.200000 -4.387738
vt 0.595720 0.367699
vt 0.595869 0.367550
vt 0.596473 0.368057
vt 0.596352 0.368229
vt 0.597156 0.368451
vt 0.597067 0.368641
vt 0.597897 0.368721
vt 0.597842 0.368924
vt 0.598673 0.368857
vt 0.598655 0.369067
vt 0.599461 0.368857
vt 0.599480 0.369067
vt 0.600238 0.368721
vt 0.600292 0.368924
vt 0.600978 0.368451
vt 0.601067 0.368641
vt 0.601661 0.368057
vt 0.601782 0.368229
vt 0.602265 0.367550
vt 0.602414 0.367699
vn 0.0000 1.0000 -0.0000
s 1
f 125/109/26 111/110/26 127/111/26 122/112/26
f 122/112/26 127/111/26 112/113/26 124/114/26
f 124/114/26 112/113/26 113/115/26 109/116/26
f 109/116/26 113/115/26 126/117/26 120/118/26
f 120/118/26 126/117/26 114/119/26 117/120/26
f 117/120/26 114/119/26 116/121/26 119/122/26
f 119/122/26 116/121/26 115/123/26 118/124/26
f 118/124/26 115/123/26 128/125/26 121/126/26
f 121/126/26 128/125/26 110/127/26 123/128/26
o rail_turn.009_Cube.405
v 1.354464 -0.030000 -2.961073
v 0.594387 -0.030000 -1.875571
v 0.331273 -0.030000 -1.971337
v 2.506840 -0.030000 -3.796853
v 2.028664 -0.030000 -3.668726
v 1.580001 -0.030000 -3.459512
v 1.038927 -0.030000 -2.645536
v 0.782975 -0.030000 -2.280000
v 0.478892 -0.030000 -1.444539
v 0.203146 -0.030000 -1.493161
v 0.540488 -0.030000 -2.420000
v 0.440000 -0.030000 -1.000000
v 0.824434 -0.030000 -2.825517
v 3.000001 -0.030000 -3.839999
v 1.174484 -0.030000 -3.175566
v 0.160000 -0.030000 -1.000000
v 2.555461 -0.030000 -3.521107
v 3.000000 -0.030000 -3.559999
v 1.720001 -0.030000 -3.217025
v 2.124429 -0.030000 -3.405612
vt 0.361952 0.863748
vt 0.362402 0.864125
vt 0.362191 0.864426
vt 0.361692 0.864008
vt 0.362910 0.864418
vt 0.362754 0.864752
vt 0.363461 0.864619
vt 0.363366 0.864974
vt 0.364039 0.864721
vt 0.364007 0.865087
vt 0.364626 0.864721
vt 0.364658 0.865087
vt 0.365203 0.864619
vt 0.365299 0.864974
vt 0.365755 0.864418
vt 0.365910 0.864752
vt 0.366263 0.864125
vt 0.366474 0.864426
vt 0.366712 0.863748
vt 0.366973 0.864008
vn 0.0000 1.0000 0.0000
s 1
f 140/129/27 137/130/27 138/131/27 144/132/27
f 137/130/27 130/133/27 131/134/27 138/131/27
f 130/133/27 136/135/27 139/136/27 131/134/27
f 136/135/27 135/137/27 141/138/27 139/136/27
f 135/137/27 129/139/27 143/140/27 141/138/27
f 129/139/27 147/141/27 134/142/27 143/140/27
f 147/141/27 148/143/27 133/144/27 134/142/27
f 148/143/27 145/145/27 132/146/27 133/144/27
f 145/145/27 146/147/27 142/148/27 132/146/27
o rail_turn.008_Cube.404
v 0.160000 0.160000 -1.000000
v 0.540488 0.160000 -2.420000
v 1.174484 0.160000 -3.175566
v 0.331273 -0.030000 -1.971337
v 2.506840 -0.030000 -3.796853
v 0.824434 0.160000 -2.825517
v 2.028664 -0.030000 -3.668726
v 1.580001 -0.030000 -3.459512
v 2.028664 0.160000 -3.668726
v 2.506840 0.160000 -3.796853
v 0.203146 -0.030000 -1.493161
v 0.540488 -0.030000 -2.420000
v 0.824434 -0.030000 -2.825517
v 3.000001 -0.030000 -3.839999
v 1.174484 -0.030000 -3.175566
v 0.160000 -0.030000 -1.000000
v 0.203146 0.160000 -1.493161
v 0.331273 0.160000 -1.971337
v 3.000001 0.160000 -3.839999
v 1.580001 0.160000 -3.459512
vt 0.369135 0.857252
vt 0.369384 0.857252
vt 0.369384 0.857903
vt 0.369135 0.857903
vt 0.369384 0.858553
vt 0.369135 0.858553
vt 0.369384 0.859204
vt 0.369135 0.859204
vt 0.369384 0.859855
vt 0.369135 0.859855
vt 0.369384 0.860506
vt 0.369135 0.860506
vt 0.369384 0.861157
vt 0.369135 0.861157
vt 0.369384 0.861808
vt 0.369135 0.861808
vt 0.369384 0.862459
vt 0.369135 0.862459
vt 0.369384 0.863109
vt 0.369135 0.863109
vn 0.9962 0.0000 0.0872
vn 0.9848 0.0000 0.1736
vn 0.9397 0.0000 0.3420
vn 0.8660 0.0000 0.5000
vn 0.7660 0.0000 0.6428
vn 0.6428 0.0000 0.7660
vn 0.5000 0.0000 0.8660
vn 0.3420 0.0000 0.9397
vn 0.1736 0.0000 0.9848
vn 0.0872 0.0000 0.9962
s 1
f 149/149/28 164/150/28 159/151/29 165/152/29
f 165/152/29 159/151/29 152/153/30 166/154/30
f 166/154/30 152/153/30 160/155/31 150/156/31
f 150/156/31 160/155/31 161/157/32 154/158/32
f 154/158/32 161/157/32 163/159/33 151/160/33
f 151/160/33 163/159/33 156/161/34 168/162/34
f 168/162/34 156/161/34 155/163/35 157/164/35
f 157/164/35 155/163/35 153/165/36 158/166/36
f 158/166/36 153/165/36 162/167/37 167/168/37
o rail_turn.007_Cube.403
v 0.968792 -0.030000 -3.420700
v 3.000001 -0.030000 -4.159999
v 0.579300 -0.030000 -3.031209
v -0.111992 -0.030000 -1.548728
v 2.451273 -0.030000 -4.111992
v 0.020873 -0.030000 -2.720000
v 0.263360 -0.030000 -2.580000
v 0.030572 -0.030000 -2.080784
v -0.160000 -0.030000 -1.000000
v 1.919217 -0.030000 -3.969428
v 1.420001 -0.030000 -3.736640
v 2.402651 -0.030000 -4.387738
v 1.823452 -0.030000 -4.232542
v 0.364808 -0.030000 -3.211189
v -0.387739 -0.030000 -1.597350
v 3.000001 -0.030000 -4.439999
v -0.232542 -0.030000 -2.176549
v -0.440000 -0.030000 -1.000000
v 1.280001 -0.030000 -3.979127
v 0.788811 -0.030000 -3.635193
vt 0.361692 0.860931
vt 0.361952 0.860671
vt 0.362507 0.861137
vt 0.362296 0.861438
vt 0.363134 0.861499
vt 0.362979 0.861832
vt 0.363815 0.861746
vt 0.363720 0.862102
vt 0.364528 0.861872
vt 0.364496 0.862239
vt 0.365252 0.861872
vt 0.365284 0.862239
vt 0.365965 0.861746
vt 0.366061 0.862102
vt 0.366646 0.861499
vt 0.366802 0.861832
vt 0.367273 0.861137
vt 0.367484 0.861438
vt 0.367828 0.860671
vt 0.368088 0.860931
vn 0.0000 1.0000 0.0000
s 1
f 186/169/38 177/170/38 172/171/38 183/172/38
f 183/172/38 172/171/38 176/173/38 185/174/38
f 185/174/38 176/173/38 175/175/38 174/176/38
f 174/176/38 175/175/38 171/177/38 182/178/38
f 182/178/38 171/177/38 169/179/38 188/180/38
f 188/180/38 169/179/38 179/181/38 187/182/38
f 187/182/38 179/181/38 178/183/38 181/184/38
f 181/184/38 178/183/38 173/185/38 180/186/38
f 180/186/38 173/185/38 170/187/38 184/188/38
o rail_turn.006_Cube.402
v 1.354464 -0.030000 -2.961073
v 3.000000 0.200000 -3.559999
v 0.594387 -0.030000 -1.875571
v 1.038927 0.200000 -2.645536
v 1.720001 0.200000 -3.217025
v 0.478892 0.200000 -1.444539
v 1.354464 0.200000 -2.961073
v 2.124429 0.200000 -3.405612
v 2.555461 0.200000 -3.521107
v 1.038927 -0.030000 -2.645536
v 0.782975 -0.030000 -2.280000
v 0.478892 -0.030000 -1.444539
v 0.440000 -0.030000 -1.000000
v 2.555461 -0.030000 -3.521107
v 3.000000 -0.030000 -3.559999
v 1.720001 -0.030000 -3.217025
v 2.124429 -0.030000 -3.405612
v 0.440000 0.200000 -1.000000
v 0.594387 0.200000 -1.875571
v 0.782975 0.200000 -2.280000
vt 0.361692 0.866944
vt 0.362279 0.866944
vt 0.362279 0.867247
vt 0.361692 0.867247
vt 0.362865 0.866944
vt 0.362865 0.867247
vt 0.363452 0.866944
vt 0.363452 0.867247
vt 0.364039 0.866944
vt 0.364039 0.867247
vt 0.364626 0.866944
vt 0.364626 0.867247
vt 0.365212 0.866944
vt 0.365212 0.867247
vt 0.365799 0.866944
vt 0.365799 0.867247
vt 0.366386 0.866944
vt 0.366386 0.867247
vt 0.366972 0.866944
vt 0.366972 0.867247
vn -0.9962 0.0000 -0.0872
vn -0.9848 0.0000 -0.1736
vn -0.9397 0.0000 -0.3420
vn -0.8660 0.0000 -0.5000
vn -0.7660 0.0000 -0.6428
vn -0.6428 0.0000 -0.7660
vn -0.5000 0.0000 -0.8660
vn -0.3420 0.0000 -0.9397
vn -0.1736 0.0000 -0.9848
vn -0.0872 0.0000 -0.9962
s 1
f 206/189/39 194/190/40 200/191/40 201/192/39
f 194/190/40 207/193/41 191/194/41 200/191/40
f 207/193/41 208/195/42 199/196/42 191/194/41
f 208/195/42 192/197/43 198/198/43 199/196/42
f 192/197/43 195/199/44 189/200/44 198/198/43
f 195/199/44 193/201/45 204/202/45 189/200/44
f 193/201/45 196/203/46 205/204/46 204/202/45
f 196/203/46 197/205/47 202/206/47 205/204/46
f 197/205/47 190/207/48 203/208/48 202/206/47
o rail_turn.005_Cube.401
v 0.968792 -0.030000 -3.420700
v 3.000001 -0.030000 -4.159999
v 0.579300 -0.030000 -3.031209
v -0.111992 -0.030000 -1.548728
v 2.451273 0.160000 -4.111992
v 0.030572 0.160000 -2.080784
v 0.579300 0.160000 -3.031209
v 2.451273 -0.030000 -4.111992
v 0.263360 -0.030000 -2.580000
v 0.030572 -0.030000 -2.080784
v -0.160000 -0.030000 -1.000000
v 1.919217 -0.030000 -3.969428
v 1.420001 -0.030000 -3.736640
v 0.263360 0.160000 -2.580000
v -0.160000 0.160000 -1.000000
v 1.420001 0.160000 -3.736640
v 0.968792 0.160000 -3.420700
v 1.919217 0.160000 -3.969428
v -0.111992 0.160000 -1.548728
v 3.000001 0.160000 -4.159999
vt 0.361692 0.866689
vt 0.362416 0.866689
vt 0.362416 0.866939
vt 0.361692 0.866939
vt 0.363140 0.866689
vt 0.363140 0.866939
vt 0.363865 0.866689
vt 0.363865 0.866939
vt 0.364589 0.866689
vt 0.364589 0.866939
vt 0.365313 0.866689
vt 0.365313 0.866939
vt 0.366037 0.866689
vt 0.366037 0.866939
vt 0.366761 0.866689
vt 0.366761 0.866939
vt 0.367486 0.866689
vt 0.367486 0.866939
vt 0.368210 0.866689
vt 0.368210 0.866939
vn -0.9962 0.0000 -0.0872
vn -0.9848 0.0000 -0.1736
vn -0.9397 0.0000 -0.3420
vn -0.8660 0.0000 -0.5000
vn -0.7660 0.0000 -0.6428
vn -0.6428 0.0000 -0.7660
vn -0.5000 0.0000 -0.8660
vn -0.3420 0.0000 -0.9397
vn -0.1736 0.0000 -0.9848
vn -0.0872 0.0000 -0.9962
s 1
f 223/209/49 227/210/50 212/211/50 219/212/49
f 227/210/50 214/213/51 218/214/51 212/211/50
f 214/213/51 222/215/52 217/216/52 218/214/51
f 222/215/52 215/217/53 211/218/53 217/216/52
f 215/217/53 225/219/54 209/220/54 211/218/53
f 225/219/54 224/221/55 221/222/55 209/220/54
f 224/221/55 226/223/56 220/224/56 221/222/55
f 226/223/56 213/225/57 216/226/57 220/224/56
f 213/225/57 228/227/58 210/228/58 216/226/57
o rail_turn.004_Cube.400
v 0.600000 0.200000 -1.000000
v 2.000001 0.200000 -2.732051
v 2.315961 0.200000 -2.879385
v 2.652705 0.200000 -2.969615
v 1.714426 0.200000 -2.532089
v 1.267950 0.200000 -2.000000
v 3.000001 0.200000 -3.000000
v 1.800001 0.200000 -3.078461
v 3.000001 0.200000 -3.399999
v 2.179152 0.200000 -3.255262
v 2.583245 0.200000 -3.363538
v 0.744738 0.200000 -1.820848
v 0.921539 0.200000 -2.200000
v 0.636462 0.200000 -1.416756
v 1.457310 0.200000 -2.838506
v 1.161494 0.200000 -2.542690
v 1.467912 0.200000 -2.285575
v 1.120615 0.200000 -1.684040
v 1.030385 0.200000 -1.347296
v 1.000000 0.200000 -1.000000
vt 0.342020 0.635662
vt 0.342371 0.635957
vt 0.342070 0.636388
vt 0.341648 0.636034
vt 0.342768 0.636186
vt 0.342546 0.636663
vt 0.343199 0.636343
vt 0.343063 0.636851
vt 0.343650 0.636422
vt 0.343605 0.636946
vt 0.344109 0.636422
vt 0.344155 0.636946
vt 0.344560 0.636343
vt 0.344696 0.636851
vt 0.344991 0.636186
vt 0.345213 0.636663
vt 0.345388 0.635957
vt 0.345689 0.636388
vt 0.345739 0.635662
vt 0.346111 0.636034
vn 0.0000 1.0000 0.0000
s 1
f 248/229/59 247/230/59 242/231/59 229/232/59
f 247/230/59 246/233/59 240/234/59 242/231/59
f 246/233/59 234/235/59 241/236/59 240/234/59
f 234/235/59 245/237/59 244/238/59 241/236/59
f 245/237/59 233/239/59 243/240/59 244/238/59
f 233/239/59 230/241/59 236/242/59 243/240/59
f 230/241/59 231/243/59 238/244/59 236/242/59
f 231/243/59 232/245/59 239/246/59 238/244/59
f 232/245/59 235/247/59 237/248/59 239/246/59
o rail_turn.003_Cube.399
v -1.000000 2.000000 -1.000000
v -0.939231 2.000000 -1.694593
v -0.758770 2.000000 -2.368081
v -0.464101 2.000000 -3.000000
v -0.064177 2.000000 -3.571151
v 0.428851 2.000000 -4.064178
v 1.000001 2.000000 -4.464101
v 1.631921 2.000000 -4.758770
v 2.305408 2.000000 -4.939230
v 3.000001 2.000000 -4.999999
v -1.000000 2.000000 -4.999999
vt 0.201294 0.852370
vt 0.202197 0.852211
vt 0.201294 0.852370
vt 0.198613 0.851897
vt 0.199475 0.852211
vt 0.198613 0.851897
vt 0.203058 0.851897
vt 0.202197 0.852211
vt 0.200377 0.852370
vt 0.199475 0.852211
vt 0.197117 0.850850
vt 0.197819 0.851439
vt 0.197117 0.850850
vt 0.203852 0.851439
vt 0.203058 0.851897
vt 0.200377 0.852370
vt 0.197819 0.851439
vt 0.204554 0.850850
vt 0.203852 0.851439
vn 0.0000 1.0000 0.0000
s 1
f 254/249/60 255/250/60 259/251/60
f 251/252/60 252/253/60 259/254/60
f 255/250/60 256/255/60 259/256/60
f 252/253/60 253/257/60 259/258/60
f 249/259/60 250/260/60 259/261/60
f 256/255/60 257/262/60 259/263/60
f 253/257/60 254/249/60 259/264/60
f 250/260/60 251/252/60 259/265/60
f 257/262/60 258/266/60 259/267/60
o rail_turn.002_Cube.398
v 2.000001 0.200000 -2.732051
v 2.315961 0.200000 -2.879385
v 2.652705 0.200000 -2.969615
v 1.714426 0.200000 -2.532089
v 1.267950 0.200000 -2.000000
v 3.000001 0.200000 -3.000000
v 1.030385 2.000000 -1.347296
v 1.467912 2.000000 -2.285575
v 3.000001 2.000000 -3.000000
v 1.467912 0.200000 -2.285575
v 1.000000 2.000000 -1.000000
v 1.120615 2.000000 -1.684040
v 1.267950 2.000000 -2.000000
v 1.714426 2.000000 -2.532089
v 2.000001 2.000000 -2.732051
v 2.315961 2.000000 -2.879385
v 2.652705 2.000000 -2.969615
v 1.120615 0.200000 -1.684040
v 1.030385 0.200000 -1.347296
v 1.000000 0.200000 -1.000000
vt 0.889030 0.628610
vt 0.888572 0.628610
vt 0.888572 0.628610
vt 0.889030 0.628610
vt 0.887293 0.628144
vt 0.886942 0.627850
vt 0.886942 0.627850
vt 0.887293 0.628144
vt 0.889482 0.628530
vt 0.889482 0.628530
vt 0.887690 0.628374
vt 0.887690 0.628374
vt 0.888121 0.628530
vt 0.888121 0.628530
vt 0.889913 0.628374
vt 0.889913 0.628374
vt 0.890310 0.628144
vt 0.890310 0.628144
vt 0.890661 0.627850
vt 0.890661 0.627850
vn -0.6428 0.0000 -0.7660
vn -0.7660 0.0000 -0.6428
vn -0.9848 0.0000 -0.1736
vn -0.9962 0.0000 -0.0872
vn -0.5000 0.0000 -0.8660
vn -0.9397 0.0000 -0.3420
vn -0.8660 0.0000 -0.5000
vn -0.3420 0.0000 -0.9397
vn -0.1736 0.0000 -0.9848
vn -0.0872 0.0000 -0.9962
s 1
f 263/268/61 269/269/62 267/270/62 273/271/61
f 278/272/63 279/273/64 270/274/64 266/275/63
f 260/276/65 263/268/61 273/271/61 274/277/65
f 277/278/66 278/272/63 266/275/63 271/279/66
f 264/280/67 277/278/66 271/279/66 272/281/67
f 261/282/68 260/276/65 274/277/65 275/283/68
f 262/284/69 261/282/68 275/283/68 276/285/69
f 269/269/62 264/280/67 272/281/67 267/270/62
f 265/286/70 262/284/69 276/285/69 268/287/70
o rail_turn.001_Cube.397
v 3.000001 2.000000 -1.000000
v 1.030385 2.000000 -1.347296
v 1.467912 2.000000 -2.285575
v 3.000001 2.000000 -3.000000
v 1.000000 2.000000 -1.000000
v 1.120615 2.000000 -1.684040
v 1.267950 2.000000 -2.000000
v 1.714426 2.000000 -2.532089
v 2.000001 2.000000 -2.732051
v 2.315961 2.000000 -2.879385
v 2.652705 2.000000 -2.969615
vt 0.153315 0.874467
vt 0.152918 0.874238
vt 0.153315 0.874467
vt 0.156286 0.873943
vt 0.155935 0.874238
vt 0.156286 0.873943
vt 0.155107 0.874624
vt 0.154656 0.874704
vt 0.155107 0.874624
vt 0.153746 0.874624
vt 0.153746 0.874624
vt 0.155538 0.874467
vt 0.155538 0.874467
vt 0.154197 0.874704
vt 0.154197 0.874704
vt 0.152567 0.873943
vt 0.152918 0.874238
vt 0.155935 0.874238
vt 0.154656 0.874704
vn 0.0000 1.0000 0.0000
s 1
f 285/288/71 281/289/71 280/290/71
f 283/291/71 290/292/71 280/293/71
f 288/294/71 287/295/71 280/296/71
f 286/297/71 285/288/71 280/298/71
f 289/299/71 288/294/71 280/300/71
f 282/301/71 286/297/71 280/302/71
f 281/289/71 284/303/71 280/304/71
f 290/292/71 289/299/71 280/305/71
f 287/295/71 282/301/71 280/306/71
