# Blender v2.79 (sub 0) OBJ File: 'monorail.blend'
# www.blender.org
o rail.006_Cube.542
v 0.080000 0.080000 0.500000
v 0.080000 0.080000 -0.500000
v -0.080000 0.080000 0.500000
v 0.000000 0.080000 -0.500000
v 0.000000 0.080000 0.500000
v -0.080000 0.080000 -0.500000
vt 0.580745 0.369117
vt 0.590745 0.369117
vt 0.590745 0.379117
vt 0.580745 0.379117
vt 0.580745 0.369117
vt 0.580745 0.379117
vn 0.0000 1.0000 0.0000
s off
f 2/1/1 4/2/1 5/3/1 1/4/1
f 6/5/1 3/6/1 5/3/1 4/2/1
o rail.005_Cube.541
v 0.080000 -0.015000 -0.500000
v 0.080000 -0.015000 0.500000
v 0.220000 -0.015000 0.500000
v 0.220000 -0.015000 -0.500000
v -0.080000 -0.015000 -0.500000
v -0.080000 -0.015000 0.500000
v -0.220000 -0.015000 0.500000
v -0.220000 -0.015000 -0.500000
vt 0.378961 0.890803
vt 0.388961 0.890803
vt 0.388961 0.900803
vt 0.378961 0.900803
vt 0.378961 0.890803
vt 0.378961 0.900803
vt 0.388961 0.900803
vt 0.388961 0.890803
vn 0.0000 1.0000 0.0000
s off
f 7/7/2 8/8/2 9/9/2 10/10/2
f 11/11/2 14/12/2 13/13/2 12/14/2
o rail.004_Cube.540
v 0.300000 0.100000 0.500000
v 0.220000 0.100000 -0.500000
v 0.300000 0.100000 -0.500000
v 0.220000 0.100000 0.500000
v -0.300000 0.100000 0.500000
v -0.220000 0.100000 -0.500000
v -0.300000 0.100000 -0.500000
v -0.220000 0.100000 0.500000
vt 0.580745 0.369117
vt 0.590745 0.369117
vt 0.590745 0.379117
vt 0.580745 0.379117
vt 0.580745 0.369117
vt 0.580745 0.379117
vt 0.590745 0.379117
vt 0.590745 0.369117
vn 0.0000 1.0000 0.0000
s off
f 16/15/3 18/16/3 15/17/3 17/18/3
f 20/19/3 21/20/3 19/21/3 22/22/3
o rail.003_Cube.539
v 0.220000 0.100000 -0.500000
v 0.220000 0.100000 0.500000
v 0.220000 -0.015000 0.500000
v 0.220000 -0.015000 -0.500000
v -0.220000 0.100000 -0.500000
v -0.220000 0.100000 0.500000
v -0.220000 -0.015000 0.500000
v -0.220000 -0.015000 -0.500000
vt 0.378961 0.890803
vt 0.388961 0.890803
vt 0.388961 0.900803
vt 0.378961 0.900803
vt 0.378961 0.890803
vt 0.378961 0.900803
vt 0.388961 0.900803
vt 0.388961 0.890803
vn -1.0000 0.0000 0.0000
vn 1.0000 0.0000 0.0000
s off
f 26/23/4 25/24/4 24/25/4 23/26/4
f 30/27/5 27/28/5 28/29/5 29/30/5
o rail.002_Cube.538
v 0.500000 0.100000 -0.500000
v 0.500000 0.100000 0.500000
v 0.300000 0.100000 0.500000
v 0.300000 0.100000 -0.500000
v -0.500000 0.100000 -0.500000
v -0.500000 0.100000 0.500000
v -0.300000 0.100000 0.500000
v -0.300000 0.100000 -0.500000
vt 0.835288 0.897950
vt 0.845288 0.897950
vt 0.845288 0.897950
vt 0.835288 0.897950
vt 0.835288 0.897950
vt 0.835288 0.897950
vt 0.845288 0.897950
vt 0.845288 0.897950
vn 0.0000 1.0000 0.0000
s off
f 34/31/6 33/32/6 32/33/6 31/34/6
f 38/35/6 35/36/6 36/37/6 37/38/6
o rail.001_Cube.537
v 0.080000 -0.015000 -0.500000
v 0.080000 -0.015000 0.500000
v 0.080000 0.080000 0.500000
v 0.080000 0.080000 -0.500000
v -0.080000 -0.015000 -0.500000
v -0.080000 -0.015000 0.500000
v -0.080000 0.080000 0.500000
v -0.080000 0.080000 -0.500000
vt 0.378961 0.890803
vt 0.388961 0.890803
vt 0.388961 0.900803
vt 0.378961 0.900803
vt 0.378961 0.890803
vt 0.378961 0.900803
vt 0.388961 0.900803
vt 0.388961 0.890803
vn 1.0000 0.0000 0.0000
vn -1.0000 0.0000 0.0000
s off
f 39/39/7 42/40/7 41/41/7 40/42/7
f 43/43/8 44/44/8 45/45/8 46/46/8
