# Blender v2.79 (sub 0) OBJ File: 'monorail.blend'
# www.blender.org
o rail_turn.011_Cube.274
v -0.440000 0.200000 -1.000000
v -0.440000 -0.030000 -1.000000
v -0.387739 0.200000 -1.597350
v -0.387739 -0.030000 -1.597350
v -0.232542 0.200000 -2.176549
v -0.232542 -0.030000 -2.176549
v 0.020873 0.200000 -2.720000
v 0.020873 -0.030000 -2.720000
v 0.364808 0.200000 -3.211189
v 0.364808 -0.030000 -3.211189
v 0.788811 0.200000 -3.635193
v 0.788811 -0.030000 -3.635193
v 1.280001 0.200000 -3.979127
v 1.280001 -0.030000 -3.979127
v 1.823452 0.200000 -4.232542
v 1.823452 -0.030000 -4.232542
v 2.402651 0.200000 -4.387738
v 2.402651 -0.030000 -4.387738
v 3.000001 0.200000 -4.439999
v 3.000001 -0.030000 -4.439999
vt 0.361692 0.866684
vt 0.361692 0.866382
vt 0.362480 0.866382
vt 0.362480 0.866684
vt 0.363269 0.866382
vt 0.363269 0.866684
vt 0.364057 0.866382
vt 0.364057 0.866684
vt 0.364846 0.866382
vt 0.364846 0.866684
vt 0.365634 0.866382
vt 0.365634 0.866684
vt 0.366422 0.866382
vt 0.366422 0.866684
vt 0.367211 0.866382
vt 0.367211 0.866684
vt 0.367999 0.866382
vt 0.367999 0.866684
vt 0.368787 0.866382
vt 0.368787 0.866684
vn 0.9962 0.0000 0.0872
vn 0.9848 0.0000 0.1736
vn 0.9397 0.0000 0.3420
vn 0.8660 0.0000 0.5000
vn 0.7660 0.0000 0.6428
vn 0.6428 0.0000 0.7660
vn 0.5000 0.0000 0.8660
vn 0.3420 0.0000 0.9397
vn 0.1736 0.0000 0.9848
vn 0.0872 0.0000 0.9962
s 1
f 1/1/1 2/2/1 4/3/2 3/4/2
f 3/4/2 4/3/2 6/5/3 5/6/3
f 5/6/3 6/5/3 8/7/4 7/8/4
f 7/8/4 8/7/4 10/9/5 9/10/5
f 9/10/5 10/9/5 12/11/6 11/12/6
f 11/12/6 12/11/6 14/13/7 13/14/7
f 13/14/7 14/13/7 16/15/8 15/16/8
f 15/16/8 16/15/8 18/17/9 17/18/9
f 17/18/9 18/17/9 20/19/10 19/20/10
o rail_turn.010_Cube.273
v -0.600000 0.200000 -1.000000
v -1.000000 0.200000 -1.000000
v -0.545308 0.200000 -1.625134
v -0.939231 0.200000 -1.694593
v -0.382893 0.200000 -2.231273
v -0.758770 0.200000 -2.368081
v -0.117691 0.200000 -2.800000
v -0.464101 0.200000 -3.000000
v 0.242241 0.200000 -3.314035
v -0.064177 0.200000 -3.571151
v 0.685965 0.200000 -3.757760
v 0.428851 0.200000 -4.064178
v 1.200001 0.200000 -4.117691
v 1.000001 0.200000 -4.464101
v 1.768728 0.200000 -4.382893
v 1.631921 0.200000 -4.758770
v 2.374868 0.200000 -4.545307
v 2.305408 0.200000 -4.939230
v 3.000001 0.200000 -4.599998
v 3.000001 0.200000 -4.999999
vt 0.341648 0.628193
vt 0.342020 0.627821
vt 0.342652 0.628352
vt 0.342351 0.628783
vt 0.343367 0.628764
vt 0.343144 0.629241
vt 0.344142 0.629046
vt 0.344006 0.629554
vt 0.344954 0.629190
vt 0.344909 0.629714
vt 0.345779 0.629190
vt 0.345825 0.629714
vt 0.346592 0.629046
vt 0.346728 0.629554
vt 0.347367 0.628764
vt 0.347589 0.629241
vt 0.348082 0.628352
vt 0.348383 0.628783
vt 0.348714 0.627821
vt 0.349086 0.628193
vn 0.0000 1.0000 0.0000
s 1
f 22/21/11 21/22/11 23/23/11 24/24/11
f 24/24/11 23/23/11 25/25/11 26/26/11
f 26/26/11 25/25/11 27/27/11 28/28/11
f 28/28/11 27/27/11 29/29/11 30/30/11
f 30/30/11 29/29/11 31/31/11 32/32/11
f 32/32/11 31/31/11 33/33/11 34/34/11
f 34/34/11 33/33/11 35/35/11 36/36/11
f 36/36/11 35/35/11 37/37/11 38/38/11
f 38/38/11 37/37/11 39/39/11 40/40/11
o rail_turn.009_Cube.272
v 0.600000 0.200000 -1.000000
v 0.440000 0.200000 -1.000000
v 0.636462 0.200000 -1.416756
v 0.478892 0.200000 -1.444539
v 0.744738 0.200000 -1.820848
v 0.594387 0.200000 -1.875571
v 0.921539 0.200000 -2.200000
v 0.782975 0.200000 -2.280000
v 1.161494 0.200000 -2.542690
v 1.038927 0.200000 -2.645536
v 1.457310 0.200000 -2.838506
v 1.354464 0.200000 -2.961073
v 1.800001 0.200000 -3.078461
v 1.720001 0.200000 -3.217025
v 2.179152 0.200000 -3.255262
v 2.124429 0.200000 -3.405612
v 2.583245 0.200000 -3.363538
v 2.555461 0.200000 -3.521107
v 3.000001 0.200000 -3.399999
v 3.000000 0.200000 -3.559999
vt 0.600337 0.373493
vt 0.600758 0.373847
vt 0.600637 0.374019
vt 0.600188 0.373642
vt 0.601234 0.374122
vt 0.601145 0.374313
vt 0.601751 0.374310
vt 0.601697 0.374513
vt 0.602293 0.374406
vt 0.602274 0.374615
vt 0.602843 0.374406
vt 0.602861 0.374615
vt 0.603384 0.374310
vt 0.603439 0.374513
vt 0.603901 0.374122
vt 0.603990 0.374313
vt 0.604378 0.373847
vt 0.604498 0.374019
vt 0.604799 0.373493
vt 0.604948 0.373642
vn 0.0000 1.0000 0.0000
s 1
f 41/41/12 43/42/12 44/43/12 42/44/12
f 43/42/12 45/45/12 46/46/12 44/43/12
f 45/45/12 47/47/12 48/48/12 46/46/12
f 47/47/12 49/49/12 50/50/12 48/48/12
f 49/49/12 51/51/12 52/52/12 50/50/12
f 51/51/12 53/53/12 54/54/12 52/52/12
f 53/53/12 55/55/12 56/56/12 54/54/12
f 55/55/12 57/57/12 58/58/12 56/56/12
f 57/57/12 59/59/12 60/60/12 58/58/12
o rail_turn.008_Cube.271
v 0.160000 0.160000 -1.000000
v -0.160000 0.160000 -1.000000
v 0.203146 0.160000 -1.493161
v -0.111992 0.160000 -1.548728
v 0.331273 0.160000 -1.971337
v 0.030572 0.160000 -2.080784
v 0.540488 0.160000 -2.420000
v 0.263360 0.160000 -2.580000
v 0.824434 0.160000 -2.825517
v 0.579300 0.160000 -3.031209
v 1.174484 0.160000 -3.175566
v 0.968792 0.160000 -3.420700
v 1.580001 0.160000 -3.459512
v 1.420001 0.160000 -3.736640
v 2.028664 0.160000 -3.668726
v 1.919217 0.160000 -3.969428
v 2.506840 0.160000 -3.796853
v 2.451273 0.160000 -4.111992
v 3.000001 0.160000 -3.839999
v 3.000001 0.160000 -4.159999
vt 0.596516 0.371063
vt 0.597080 0.371389
vt 0.596902 0.371770
vt 0.596275 0.371408
vt 0.597692 0.371611
vt 0.597583 0.372018
vt 0.598333 0.371724
vt 0.598296 0.372143
vt 0.598984 0.371724
vt 0.599020 0.372143
vt 0.599624 0.371611
vt 0.599733 0.372018
vt 0.600236 0.371389
vt 0.600414 0.371770
vt 0.600800 0.371063
vt 0.601041 0.371408
vt 0.601298 0.370645
vt 0.601596 0.370942
vt 0.595720 0.370942
vt 0.596018 0.370645
vn 0.0000 1.0000 -0.0000
s 1
f 63/61/13 65/62/13 66/63/13 64/64/13
f 65/62/13 67/65/13 68/66/13 66/63/13
f 67/65/13 69/67/13 70/68/13 68/66/13
f 69/67/13 71/69/13 72/70/13 70/68/13
f 73/71/13 74/72/13 72/70/13 71/69/13
f 73/71/13 75/73/13 76/74/13 74/72/13
f 75/73/13 77/75/13 78/76/13 76/74/13
f 79/77/13 80/78/13 78/76/13 77/75/13
f 63/61/13 64/64/13 62/79/13 61/80/13
o rail_turn.007_Cube.270
v -0.600000 0.200000 -1.000000
v -0.440000 0.200000 -1.000000
v -0.545308 0.200000 -1.625134
v -0.387739 0.200000 -1.597350
v -0.382893 0.200000 -2.231273
v -0.232542 0.200000 -2.176549
v -0.117691 0.200000 -2.800000
v 0.020873 0.200000 -2.720000
v 0.242241 0.200000 -3.314035
v 0.364808 0.200000 -3.211189
v 0.685965 0.200000 -3.757760
v 0.788811 0.200000 -3.635193
v 1.200001 0.200000 -4.117691
v 1.280001 0.200000 -3.979127
v 1.768728 0.200000 -4.382893
v 1.823452 0.200000 -4.232542
v 2.374868 0.200000 -4.545307
v 2.402651 0.200000 -4.387738
v 3.000001 0.200000 -4.599998
v 3.000001 0.200000 -4.439999
vt 0.595720 0.367699
vt 0.595869 0.367550
vt 0.596473 0.368057
vt 0.596352 0.368229
vt 0.597156 0.368451
vt 0.597067 0.368641
vt 0.597897 0.368721
vt 0.597842 0.368924
vt 0.598673 0.368857
vt 0.598655 0.369067
vt 0.599461 0.368857
vt 0.599480 0.369067
vt 0.600238 0.368721
vt 0.600292 0.368924
vt 0.600978 0.368451
vt 0.601067 0.368641
vt 0.601661 0.368057
vt 0.601782 0.368229
vt 0.602265 0.367550
vt 0.602414 0.367699
vn 0.0000 1.0000 -0.0000
s 1
f 81/81/14 82/82/14 84/83/14 83/84/14
f 83/84/14 84/83/14 86/85/14 85/86/14
f 85/86/14 86/85/14 88/87/14 87/88/14
f 87/88/14 88/87/14 90/89/14 89/90/14
f 89/90/14 90/89/14 92/91/14 91/92/14
f 91/92/14 92/91/14 94/93/14 93/94/14
f 93/94/14 94/93/14 96/95/14 95/96/14
f 95/96/14 96/95/14 98/97/14 97/98/14
f 97/98/14 98/97/14 100/99/14 99/100/14
o rail_turn.006_Cube.269
v 0.160000 -0.030000 -1.000000
v 0.440000 -0.030000 -1.000000
v 0.203146 -0.030000 -1.493161
v 0.478892 -0.030000 -1.444539
v 0.331273 -0.030000 -1.971337
v 0.594387 -0.030000 -1.875571
v 0.540488 -0.030000 -2.420000
v 0.782975 -0.030000 -2.280000
v 0.824434 -0.030000 -2.825517
v 1.038927 -0.030000 -2.645536
v 1.174484 -0.030000 -3.175566
v 1.354464 -0.030000 -2.961073
v 1.580001 -0.030000 -3.459512
v 1.720001 -0.030000 -3.217025
v 2.028664 -0.030000 -3.668726
v 2.124429 -0.030000 -3.405612
v 2.506840 -0.030000 -3.796853
v 2.555461 -0.030000 -3.521107
v 3.000001 -0.030000 -3.839999
v 3.000000 -0.030000 -3.559999
vt 0.361952 0.863748
vt 0.362402 0.864125
vt 0.362191 0.864426
vt 0.361692 0.864008
vt 0.362910 0.864418
vt 0.362754 0.864752
vt 0.363461 0.864619
vt 0.363366 0.864974
vt 0.364039 0.864721
vt 0.364007 0.865087
vt 0.364626 0.864721
vt 0.364658 0.865087
vt 0.365203 0.864619
vt 0.365299 0.864974
vt 0.365755 0.864418
vt 0.365910 0.864752
vt 0.366263 0.864125
vt 0.366474 0.864426
vt 0.366712 0.863748
vt 0.366973 0.864008
vn 0.0000 1.0000 0.0000
s 1
f 102/101/15 104/102/15 103/103/15 101/104/15
f 104/102/15 106/105/15 105/106/15 103/103/15
f 106/105/15 108/107/15 107/108/15 105/106/15
f 108/107/15 110/109/15 109/110/15 107/108/15
f 110/109/15 112/111/15 111/112/15 109/110/15
f 112/111/15 114/113/15 113/114/15 111/112/15
f 114/113/15 116/115/15 115/116/15 113/114/15
f 116/115/15 118/117/15 117/118/15 115/116/15
f 118/117/15 120/119/15 119/120/15 117/118/15
o rail_turn.005_Cube.268
v 0.160000 0.160000 -1.000000
v 0.160000 -0.030000 -1.000000
v 0.203146 0.160000 -1.493161
v 0.203146 -0.030000 -1.493161
v 0.331273 0.160000 -1.971337
v 0.331273 -0.030000 -1.971337
v 0.540488 0.160000 -2.420000
v 0.540488 -0.030000 -2.420000
v 0.824434 0.160000 -2.825517
v 0.824434 -0.030000 -2.825517
v 1.174484 0.160000 -3.175566
v 1.174484 -0.030000 -3.175566
v 1.580001 0.160000 -3.459512
v 1.580001 -0.030000 -3.459512
v 2.028664 0.160000 -3.668726
v 2.028664 -0.030000 -3.668726
v 2.506840 0.160000 -3.796853
v 2.506840 -0.030000 -3.796853
v 3.000001 0.160000 -3.839999
v 3.000001 -0.030000 -3.839999
vt 0.369135 0.857252
vt 0.369384 0.857252
vt 0.369384 0.857903
vt 0.369135 0.857903
vt 0.369384 0.858553
vt 0.369135 0.858553
vt 0.369384 0.859204
vt 0.369135 0.859204
vt 0.369384 0.859855
vt 0.369135 0.859855
vt 0.369384 0.860506
vt 0.369135 0.860506
vt 0.369384 0.861157
vt 0.369135 0.861157
vt 0.369384 0.861808
vt 0.369135 0.861808
vt 0.369384 0.862459
vt 0.369135 0.862459
vt 0.369384 0.863109
vt 0.369135 0.863109
vn 0.9962 0.0000 0.0872
vn 0.9848 0.0000 0.1736
vn 0.9397 0.0000 0.3420
vn 0.8660 0.0000 0.5000
vn 0.7660 0.0000 0.6428
vn 0.6428 0.0000 0.7660
vn 0.5000 0.0000 0.8660
vn 0.3420 0.0000 0.9397
vn 0.1736 0.0000 0.9848
vn 0.0872 0.0000 0.9962
s 1
f 121/121/16 122/122/16 124/123/17 123/124/17
f 123/124/17 124/123/17 126/125/18 125/126/18
f 125/126/18 126/125/18 128/127/19 127/128/19
f 127/128/19 128/127/19 130/129/20 129/130/20
f 129/130/20 130/129/20 132/131/21 131/132/21
f 131/132/21 132/131/21 134/133/22 133/134/22
f 133/134/22 134/133/22 136/135/23 135/136/23
f 135/136/23 136/135/23 138/137/24 137/138/24
f 137/138/24 138/137/24 140/139/25 139/140/25
o rail_turn.004_Cube.267
v -0.160000 -0.030000 -1.000000
v -0.440000 -0.030000 -1.000000
v -0.111992 -0.030000 -1.548728
v -0.387739 -0.030000 -1.597350
v 0.030572 -0.030000 -2.080784
v -0.232542 -0.030000 -2.176549
v 0.263360 -0.030000 -2.580000
v 0.020873 -0.030000 -2.720000
v 0.579300 -0.030000 -3.031209
v 0.364808 -0.030000 -3.211189
v 0.968792 -0.030000 -3.420700
v 0.788811 -0.030000 -3.635193
v 1.420001 -0.030000 -3.736640
v 1.280001 -0.030000 -3.979127
v 1.919217 -0.030000 -3.969428
v 1.823452 -0.030000 -4.232542
v 2.451273 -0.030000 -4.111992
v 2.402651 -0.030000 -4.387738
v 3.000001 -0.030000 -4.159999
v 3.000001 -0.030000 -4.439999
vt 0.361692 0.860931
vt 0.361952 0.860671
vt 0.362507 0.861137
vt 0.362296 0.861438
vt 0.363134 0.861499
vt 0.362979 0.861832
vt 0.363815 0.861746
vt 0.363720 0.862102
vt 0.364528 0.861872
vt 0.364496 0.862239
vt 0.365252 0.861872
vt 0.365284 0.862239
vt 0.365965 0.861746
vt 0.366061 0.862102
vt 0.366646 0.861499
vt 0.366802 0.861832
vt 0.367273 0.861137
vt 0.367484 0.861438
vt 0.367828 0.860671
vt 0.368088 0.860931
vn 0.0000 1.0000 0.0000
s 1
f 142/141/26 141/142/26 143/143/26 144/144/26
f 144/144/26 143/143/26 145/145/26 146/146/26
f 146/146/26 145/145/26 147/147/26 148/148/26
f 148/148/26 147/147/26 149/149/26 150/150/26
f 150/150/26 149/149/26 151/151/26 152/152/26
f 152/152/26 151/151/26 153/153/26 154/154/26
f 154/154/26 153/153/26 155/155/26 156/156/26
f 156/156/26 155/155/26 157/157/26 158/158/26
f 158/158/26 157/157/26 159/159/26 160/160/26
o rail_turn.003_Cube.266
v 0.440000 0.200000 -1.000000
v 0.440000 -0.030000 -1.000000
v 0.478892 0.200000 -1.444539
v 0.478892 -0.030000 -1.444539
v 0.594387 0.200000 -1.875571
v 0.594387 -0.030000 -1.875571
v 0.782975 0.200000 -2.280000
v 0.782975 -0.030000 -2.280000
v 1.038927 0.200000 -2.645536
v 1.038927 -0.030000 -2.645536
v 1.354464 0.200000 -2.961073
v 1.354464 -0.030000 -2.961073
v 1.720001 0.200000 -3.217025
v 1.720001 -0.030000 -3.217025
v 2.124429 0.200000 -3.405612
v 2.124429 -0.030000 -3.405612
v 2.555461 0.200000 -3.521107
v 2.555461 -0.030000 -3.521107
v 3.000000 0.200000 -3.559999
v 3.000000 -0.030000 -3.559999
vt 0.361692 0.866944
vt 0.362279 0.866944
vt 0.362279 0.867247
vt 0.361692 0.867247
vt 0.362865 0.866944
vt 0.362865 0.867247
vt 0.363452 0.866944
vt 0.363452 0.867247
vt 0.364039 0.866944
vt 0.364039 0.867247
vt 0.364626 0.866944
vt 0.364626 0.867247
vt 0.365212 0.866944
vt 0.365212 0.867247
vt 0.365799 0.866944
vt 0.365799 0.867247
vt 0.366386 0.866944
vt 0.366386 0.867247
vt 0.366972 0.866944
vt 0.366972 0.867247
vn -0.9962 0.0000 -0.0872
vn -0.9848 0.0000 -0.1736
vn -0.9397 0.0000 -0.3420
vn -0.8660 0.0000 -0.5000
vn -0.7660 0.0000 -0.6428
vn -0.6428 0.0000 -0.7660
vn -0.5000 0.0000 -0.8660
vn -0.3420 0.0000 -0.9397
vn -0.1736 0.0000 -0.9848
vn -0.0872 0.0000 -0.9962
s 1
f 161/161/27 163/162/28 164/163/28 162/164/27
f 163/162/28 165/165/29 166/166/29 164/163/28
f 165/165/29 167/167/30 168/168/30 166/166/29
f 167/167/30 169/169/31 170/170/31 168/168/30
f 169/169/31 171/171/32 172/172/32 170/170/31
f 171/171/32 173/173/33 174/174/33 172/172/32
f 173/173/33 175/175/34 176/176/34 174/174/33
f 175/175/34 177/177/35 178/178/35 176/176/34
f 177/177/35 179/179/36 180/180/36 178/178/35
o rail_turn.002_Cube.265
v -0.160000 0.160000 -1.000000
v -0.160000 -0.030000 -1.000000
v -0.111992 0.160000 -1.548728
v -0.111992 -0.030000 -1.548728
v 0.030572 0.160000 -2.080784
v 0.030572 -0.030000 -2.080784
v 0.263360 0.160000 -2.580000
v 0.263360 -0.030000 -2.580000
v 0.579300 0.160000 -3.031209
v 0.579300 -0.030000 -3.031209
v 0.968792 0.160000 -3.420700
v 0.968792 -0.030000 -3.420700
v 1.420001 0.160000 -3.736640
v 1.420001 -0.030000 -3.736640
v 1.919217 0.160000 -3.969428
v 1.919217 -0.030000 -3.969428
v 2.451273 0.160000 -4.111992
v 2.451273 -0.030000 -4.111992
v 3.000001 0.160000 -4.159999
v 3.000001 -0.030000 -4.159999
vt 0.361692 0.866689
vt 0.362416 0.866689
vt 0.362416 0.866939
vt 0.361692 0.866939
vt 0.363140 0.866689
vt 0.363140 0.866939
vt 0.363865 0.866689
vt 0.363865 0.866939
vt 0.364589 0.866689
vt 0.364589 0.866939
vt 0.365313 0.866689
vt 0.365313 0.866939
vt 0.366037 0.866689
vt 0.366037 0.866939
vt 0.366761 0.866689
vt 0.366761 0.866939
vt 0.367486 0.866689
vt 0.367486 0.866939
vt 0.368210 0.866689
vt 0.368210 0.866939
vn -0.9962 0.0000 -0.0872
vn -0.9848 0.0000 -0.1736
vn -0.9397 0.0000 -0.3420
vn -0.8660 0.0000 -0.5000
vn -0.7660 0.0000 -0.6428
vn -0.6428 0.0000 -0.7660
vn -0.5000 0.0000 -0.8660
vn -0.3420 0.0000 -0.9397
vn -0.1736 0.0000 -0.9848
vn -0.0872 0.0000 -0.9962
s 1
f 181/181/37 183/182/38 184/183/38 182/184/37
f 183/182/38 185/185/39 186/186/39 184/183/38
f 185/185/39 187/187/40 188/188/40 186/186/39
f 187/187/40 189/189/41 190/190/41 188/188/40
f 189/189/41 191/191/42 192/192/42 190/190/41
f 191/191/42 193/193/43 194/194/43 192/192/42
f 193/193/43 195/195/44 196/196/44 194/194/43
f 195/195/44 197/197/45 198/198/45 196/196/44
f 197/197/45 199/199/46 200/200/46 198/198/45
o rail_turn.001_Cube.264
v 0.600000 0.200000 -1.000000
v 1.000000 0.200000 -1.000000
v 0.636462 0.200000 -1.416756
v 1.030385 0.200000 -1.347296
v 0.744738 0.200000 -1.820848
v 1.120615 0.200000 -1.684040
v 0.921539 0.200000 -2.200000
v 1.267950 0.200000 -2.000000
v 1.161494 0.200000 -2.542690
v 1.467912 0.200000 -2.285575
v 1.457310 0.200000 -2.838506
v 1.714426 0.200000 -2.532089
v 1.800001 0.200000 -3.078461
v 2.000001 0.200000 -2.732051
v 2.179152 0.200000 -3.255262
v 2.315961 0.200000 -2.879385
v 2.583245 0.200000 -3.363538
v 2.652705 0.200000 -2.969615
v 3.000001 0.200000 -3.399999
v 3.000001 0.200000 -3.000000
vt 0.342020 0.635662
vt 0.342371 0.635957
vt 0.342070 0.636388
vt 0.341648 0.636034
vt 0.342768 0.636186
vt 0.342546 0.636663
vt 0.343199 0.636343
vt 0.343063 0.636851
vt 0.343650 0.636422
vt 0.343605 0.636946
vt 0.344109 0.636422
vt 0.344155 0.636946
vt 0.344560 0.636343
vt 0.344696 0.636851
vt 0.344991 0.636186
vt 0.345213 0.636663
vt 0.345388 0.635957
vt 0.345689 0.636388
vt 0.345739 0.635662
vt 0.346111 0.636034
vn 0.0000 1.0000 0.0000
s 1
f 202/201/47 204/202/47 203/203/47 201/204/47
f 204/202/47 206/205/47 205/206/47 203/203/47
f 206/205/47 208/207/47 207/208/47 205/206/47
f 208/207/47 210/209/47 209/210/47 207/208/47
f 210/209/47 212/211/47 211/212/47 209/210/47
f 212/211/47 214/213/47 213/214/47 211/212/47
f 214/213/47 216/215/47 215/216/47 213/214/47
f 216/215/47 218/217/47 217/218/47 215/216/47
f 218/217/47 220/219/47 219/220/47 217/218/47
