# Blender v2.79 (sub 0) OBJ File: 'monorail.blend'
# www.blender.org
o rail.006_Cube.513
v 0.160000 0.160000 1.000000
v 0.160000 0.160000 -1.000000
v 0.160000 -0.030000 1.000000
v 0.160000 -0.030000 -1.000000
v -0.160000 0.160000 1.000000
v -0.160000 0.160000 -1.000000
v -0.160000 -0.030000 1.000000
v -0.160000 -0.030000 -1.000000
vt 0.378961 0.890803
vt 0.388961 0.890803
vt 0.388961 0.900803
vt 0.378961 0.900803
vt 0.378961 0.890803
vt 0.378961 0.900803
vt 0.388961 0.900803
vt 0.388961 0.890803
vn 1.0000 0.0000 0.0000
vn -1.0000 0.0000 0.0000
s off
f 4/1/1 2/2/1 1/3/1 3/4/1
f 8/5/2 7/6/2 5/7/2 6/8/2
o rail.005_Cube.512
v 0.600000 0.200000 1.000000
v 1.000000 0.200000 -1.000000
v 1.000000 0.200000 1.000000
v 0.600000 0.200000 -1.000000
v -0.600000 0.200000 1.000000
v -1.000000 0.200000 -1.000000
v -1.000000 0.200000 1.000000
v -0.600000 0.200000 -1.000000
vt 0.835288 0.897950
vt 0.845288 0.897950
vt 0.845288 0.897950
vt 0.835288 0.897950
vt 0.835288 0.897950
vt 0.835288 0.897950
vt 0.845288 0.897950
vt 0.845288 0.897950
vn 0.0000 1.0000 0.0000
s off
f 12/9/3 9/10/3 11/11/3 10/12/3
f 16/13/3 14/14/3 15/15/3 13/16/3
o rail.004_Cube.511
v 0.440000 0.200000 -1.000000
v 0.440000 -0.030000 1.000000
v 0.440000 -0.030000 -1.000000
v 0.440000 0.200000 1.000000
v -0.440000 0.200000 -1.000000
v -0.440000 -0.030000 1.000000
v -0.440000 -0.030000 -1.000000
v -0.440000 0.200000 1.000000
vt 0.378961 0.890803
vt 0.388961 0.890803
vt 0.388961 0.900803
vt 0.378961 0.900803
vt 0.378961 0.890803
vt 0.378961 0.900803
vt 0.388961 0.900803
vt 0.388961 0.890803
vn -1.0000 0.0000 0.0000
vn 1.0000 0.0000 0.0000
s off
f 19/17/4 18/18/4 20/19/4 17/20/4
f 23/21/5 21/22/5 24/23/5 22/24/5
o rail.003_Cube.510
v 0.600000 0.200000 1.000000
v 0.440000 0.200000 -1.000000
v 0.600000 0.200000 -1.000000
v 0.440000 0.200000 1.000000
v -0.600000 0.200000 1.000000
v -0.440000 0.200000 -1.000000
v -0.600000 0.200000 -1.000000
v -0.440000 0.200000 1.000000
vt 0.580745 0.369117
vt 0.590745 0.369117
vt 0.590745 0.379117
vt 0.580745 0.379117
vt 0.580745 0.369117
vt 0.580745 0.379117
vt 0.590745 0.379117
vt 0.590745 0.369117
vn 0.0000 1.0000 0.0000
s off
f 26/25/6 28/26/6 25/27/6 27/28/6
f 30/29/6 31/30/6 29/31/6 32/32/6
o rail.002_Cube.509
v 0.160000 -0.030000 1.000000
v 0.160000 -0.030000 -1.000000
v 0.440000 -0.030000 1.000000
v 0.440000 -0.030000 -1.000000
v -0.160000 -0.030000 1.000000
v -0.160000 -0.030000 -1.000000
v -0.440000 -0.030000 1.000000
v -0.440000 -0.030000 -1.000000
vt 0.378961 0.890803
vt 0.388961 0.890803
vt 0.388961 0.900803
vt 0.378961 0.900803
vt 0.378961 0.890803
vt 0.378961 0.900803
vt 0.388961 0.900803
vt 0.388961 0.890803
vn 0.0000 1.0000 0.0000
s off
f 34/33/7 33/34/7 35/35/7 36/36/7
f 38/37/7 40/38/7 39/39/7 37/40/7
o rail.001_Cube.508
v 0.160000 0.160000 1.000000
v 0.160000 0.160000 -1.000000
v -0.160000 0.160000 1.000000
v 0.000000 0.160000 -1.000000
v 0.000000 0.160000 1.000000
v -0.160000 0.160000 -1.000000
vt 0.580745 0.369117
vt 0.590745 0.369117
vt 0.590745 0.379117
vt 0.580745 0.379117
vt 0.580745 0.369117
vt 0.580745 0.379117
vn 0.0000 1.0000 0.0000
s off
f 42/41/8 44/42/8 45/43/8 41/44/8
f 46/45/8 43/46/8 45/43/8 44/42/8
