# Blender v2.79 (sub 0) OBJ File: 'monorail.blend'
# www.blender.org
o rail.006_Cube.425
v 0.160000 0.160000 -1.000000
v 0.160000 0.160000 1.000000
v -0.160000 0.160000 -1.000000
v -0.160000 0.160000 1.000000
v 0.000000 0.160000 -1.000000
v 0.000000 0.160000 1.000000
vt 0.580745 0.369117
vt 0.590745 0.369117
vt 0.590745 0.379117
vt 0.580745 0.379117
vt 0.580745 0.369117
vt 0.580745 0.379117
vn 0.0000 1.0000 0.0000
s off
f 1/1/1 5/2/1 6/3/1 2/4/1
f 3/5/1 4/6/1 6/3/1 5/2/1
o rail.005_Cube.424
v 0.160000 -0.030000 -1.000000
v 0.160000 -0.030000 1.000000
v 0.440000 -0.030000 -1.000000
v 0.440000 -0.030000 1.000000
v -0.160000 -0.030000 -1.000000
v -0.160000 -0.030000 1.000000
v -0.440000 -0.030000 -1.000000
v -0.440000 -0.030000 1.000000
vt 0.378961 0.890803
vt 0.388961 0.890803
vt 0.388961 0.900803
vt 0.378961 0.900803
vt 0.378961 0.890803
vt 0.378961 0.900803
vt 0.388961 0.900803
vt 0.388961 0.890803
vn 0.0000 1.0000 0.0000
s off
f 7/7/2 8/8/2 10/9/2 9/10/2
f 11/11/2 13/12/2 14/13/2 12/14/2
o rail.004_Cube.423
v 0.600000 0.200000 -1.000000
v 0.440000 0.200000 1.000000
v 0.440000 0.200000 -1.000000
v 0.600000 0.200000 1.000000
v -0.600000 0.200000 -1.000000
v -0.440000 0.200000 1.000000
v -0.440000 0.200000 -1.000000
v -0.600000 0.200000 1.000000
vt 0.580745 0.369117
vt 0.590745 0.369117
vt 0.590745 0.379117
vt 0.580745 0.379117
vt 0.580745 0.369117
vt 0.580745 0.379117
vt 0.590745 0.379117
vt 0.590745 0.369117
vn 0.0000 1.0000 0.0000
s off
f 17/15/3 16/16/3 18/17/3 15/18/3
f 21/19/3 19/20/3 22/21/3 20/22/3
o rail.003_Cube.422
v 0.440000 0.200000 1.000000
v 0.440000 0.200000 -1.000000
v 0.440000 -0.030000 -1.000000
v 0.440000 -0.030000 1.000000
v -0.440000 0.200000 1.000000
v -0.440000 0.200000 -1.000000
v -0.440000 -0.030000 -1.000000
v -0.440000 -0.030000 1.000000
vt 0.378961 0.890803
vt 0.388961 0.890803
vt 0.388961 0.900803
vt 0.378961 0.900803
vt 0.378961 0.890803
vt 0.378961 0.900803
vt 0.388961 0.900803
vt 0.388961 0.890803
vn -1.0000 0.0000 0.0000
vn 1.0000 0.0000 0.0000
s off
f 25/23/4 26/24/4 23/25/4 24/26/4
f 29/27/5 28/28/5 27/29/5 30/30/5
o rail.002_Cube.421
v 1.000000 0.200000 -1.000000
v 1.000000 0.200000 1.000000
v 0.600000 0.200000 -1.000000
v 0.600000 0.200000 1.000000
v -1.000000 0.200000 -1.000000
v -1.000000 0.200000 1.000000
v -0.600000 0.200000 -1.000000
v -0.600000 0.200000 1.000000
vt 0.352866 0.614747
vt 0.362866 0.614747
vt 0.362866 0.614747
vt 0.352866 0.614747
vt 0.352866 0.614747
vt 0.352866 0.614747
vt 0.362866 0.614747
vt 0.362866 0.614747
vn 0.0000 1.0000 0.0000
s off
f 33/31/6 34/32/6 32/33/6 31/34/6
f 37/35/6 35/36/6 36/37/6 38/38/6
o rail.001_Cube.420
v 0.160000 0.160000 -1.000000
v 0.160000 0.160000 1.000000
v 0.160000 -0.030000 -1.000000
v 0.160000 -0.030000 1.000000
v -0.160000 0.160000 -1.000000
v -0.160000 0.160000 1.000000
v -0.160000 -0.030000 -1.000000
v -0.160000 -0.030000 1.000000
vt 0.378961 0.890803
vt 0.388961 0.890803
vt 0.388961 0.900803
vt 0.378961 0.900803
vt 0.378961 0.890803
vt 0.378961 0.900803
vt 0.388961 0.900803
vt 0.388961 0.890803
vn 1.0000 0.0000 0.0000
vn -1.0000 0.0000 0.0000
s off
f 41/39/7 39/40/7 40/41/7 42/42/7
f 45/43/8 46/44/8 44/45/8 43/46/8
