# Blender v2.79 (sub 0) OBJ File: 'monorail.blend'
# www.blender.org
o rail_turn.017_Cube.559
v -0.080000 -0.015000 -0.500000
v 0.484396 -0.015000 -1.710350
v 0.131680 -0.015000 -1.290000
v 0.959609 -0.015000 -1.984714
v 0.289650 0.080000 -1.515604
v 0.710001 0.080000 -1.868320
v 0.959609 0.080000 -1.984714
v -0.055996 -0.015000 -0.774364
v 1.225636 -0.015000 -2.055996
v 0.289650 -0.015000 -1.515604
v 0.015286 -0.015000 -1.040392
v 0.710001 -0.015000 -1.868320
v 1.500000 -0.015000 -2.079999
v 1.225636 0.080000 -2.055996
v -0.055996 0.080000 -0.774364
v 0.131680 0.080000 -1.290000
v -0.080000 0.080000 -0.500000
v 1.500000 0.080000 -2.079999
v 0.015286 0.080000 -1.040392
v 0.484396 0.080000 -1.710350
vt 0.361692 0.866689
vt 0.362416 0.866689
vt 0.362416 0.866939
vt 0.361692 0.866939
vt 0.363140 0.866689
vt 0.363140 0.866939
vt 0.363865 0.866689
vt 0.363865 0.866939
vt 0.364589 0.866689
vt 0.364589 0.866939
vt 0.365313 0.866689
vt 0.365313 0.866939
vt 0.366037 0.866689
vt 0.366037 0.866939
vt 0.366761 0.866689
vt 0.366761 0.866939
vt 0.367486 0.866689
vt 0.367486 0.866939
vt 0.368210 0.866689
vt 0.368210 0.866939
vn -0.9962 0.0000 -0.0872
vn -0.9848 0.0000 -0.1736
vn -0.9397 0.0000 -0.3420
vn -0.8660 0.0000 -0.5000
vn -0.7660 0.0000 -0.6428
vn -0.6428 0.0000 -0.7660
vn -0.5000 0.0000 -0.8660
vn -0.3420 0.0000 -0.9397
vn -0.1736 0.0000 -0.9848
vn -0.0872 0.0000 -0.9962
s 1
f 17/1/1 15/2/2 8/3/2 1/4/1
f 15/2/2 19/5/3 11/6/3 8/3/2
f 19/5/3 16/7/4 3/8/4 11/6/3
f 16/7/4 5/9/5 10/10/5 3/8/4
f 5/9/5 20/11/6 2/12/6 10/10/5
f 20/11/6 6/13/7 12/14/7 2/12/6
f 6/13/7 7/15/8 4/16/8 12/14/7
f 7/15/8 14/17/9 9/18/9 4/16/8
f 14/17/9 18/19/10 13/20/10 9/18/9
o rail_turn.016_Cube.558
v 1.277731 -0.015000 -1.760553
v 1.500000 -0.015000 -1.779999
v 0.391488 -0.015000 -1.140000
v 0.239446 -0.015000 -0.722270
v 1.500000 0.100000 -1.779999
v 0.677232 -0.015000 -1.480537
v 1.062215 -0.015000 -1.702806
v 0.860000 0.100000 -1.608512
v 0.519463 -0.015000 -1.322768
v 0.860000 -0.015000 -1.608512
v 0.391488 0.100000 -1.140000
v 1.062215 0.100000 -1.702806
v 0.519463 0.100000 -1.322768
v 0.239446 0.100000 -0.722270
v 0.220000 0.100000 -0.500000
v 0.297194 0.100000 -0.937786
v 0.677232 0.100000 -1.480537
v 1.277731 0.100000 -1.760553
v 0.220000 -0.015000 -0.500000
v 0.297194 -0.015000 -0.937786
vt 0.361692 0.866944
vt 0.362279 0.866944
vt 0.362279 0.867247
vt 0.361692 0.867247
vt 0.362865 0.866944
vt 0.362865 0.867247
vt 0.363452 0.866944
vt 0.363452 0.867247
vt 0.364039 0.866944
vt 0.364039 0.867247
vt 0.364626 0.866944
vt 0.364626 0.867247
vt 0.365212 0.866944
vt 0.365212 0.867247
vt 0.365799 0.866944
vt 0.365799 0.867247
vt 0.366386 0.866944
vt 0.366386 0.867247
vt 0.366972 0.866944
vt 0.366972 0.867247
vn -0.9962 0.0000 -0.0872
vn -0.9848 0.0000 -0.1736
vn -0.9397 0.0000 -0.3420
vn -0.8660 0.0000 -0.5000
vn -0.7660 0.0000 -0.6428
vn -0.6428 0.0000 -0.7660
vn -0.5000 0.0000 -0.8660
vn -0.3420 0.0000 -0.9397
vn -0.1736 0.0000 -0.9848
vn -0.0872 0.0000 -0.9962
s 1
f 35/21/11 34/22/12 24/23/12 39/24/11
f 34/22/12 36/25/13 40/26/13 24/23/12
f 36/25/13 31/27/14 23/28/14 40/26/13
f 31/27/14 33/29/15 29/30/15 23/28/14
f 33/29/15 37/31/16 26/32/16 29/30/15
f 37/31/16 28/33/17 30/34/17 26/32/16
f 28/33/17 32/35/18 27/36/18 30/34/17
f 32/35/18 38/37/19 21/38/19 27/36/18
f 38/37/19 25/39/20 22/40/20 21/38/19
o rail_turn.015_Cube.557
v 0.182404 -0.015000 -1.605595
v 0.394406 -0.015000 -1.817596
v -0.080000 -0.015000 -0.500000
v 0.484396 -0.015000 -1.710350
v 0.131680 -0.015000 -1.290000
v 0.911726 -0.015000 -2.116271
v 0.959609 -0.015000 -1.984714
v -0.055996 -0.015000 -0.774364
v 1.225636 -0.015000 -2.055996
v 0.289650 -0.015000 -1.515604
v 0.015286 -0.015000 -1.040392
v 0.710001 -0.015000 -1.868320
v 1.500000 -0.015000 -2.079999
v 0.010437 -0.015000 -1.360000
v -0.193869 -0.015000 -0.798675
v 0.640000 -0.015000 -1.989563
v 1.201326 -0.015000 -2.193869
v 1.500000 -0.015000 -2.219999
v -0.116271 -0.015000 -1.088275
v -0.220000 -0.015000 -0.500000
vt 0.361692 0.860931
vt 0.361952 0.860671
vt 0.362507 0.861137
vt 0.362296 0.861438
vt 0.363134 0.861499
vt 0.362979 0.861832
vt 0.363815 0.861746
vt 0.363720 0.862102
vt 0.364528 0.861872
vt 0.364496 0.862239
vt 0.365252 0.861872
vt 0.365284 0.862239
vt 0.365965 0.861746
vt 0.366061 0.862102
vt 0.366646 0.861499
vt 0.366802 0.861832
vt 0.367273 0.861137
vt 0.367484 0.861438
vt 0.367828 0.860671
vt 0.368088 0.860931
vn 0.0000 1.0000 0.0000
s 1
f 60/41/21 43/42/21 48/43/21 55/44/21
f 55/44/21 48/43/21 51/45/21 59/46/21
f 59/46/21 51/45/21 45/47/21 54/48/21
f 54/48/21 45/47/21 50/49/21 41/50/21
f 41/50/21 50/49/21 44/51/21 42/52/21
f 42/52/21 44/51/21 52/53/21 56/54/21
f 56/54/21 52/53/21 47/55/21 46/56/21
f 46/56/21 47/55/21 49/57/21 57/58/21
f 57/58/21 49/57/21 53/59/21 58/60/21
o rail_turn.014_Cube.556
v 1.014332 0.080000 -1.834363
v 0.587242 0.080000 -1.587783
v 0.101573 0.080000 -0.746580
v 1.014332 -0.015000 -1.834363
v 0.270244 -0.015000 -1.210000
v 0.080000 -0.015000 -0.500000
v 0.587242 -0.015000 -1.587783
v 0.165637 -0.015000 -0.985669
v 0.270244 0.080000 -1.210000
v 1.500001 0.080000 -1.920000
v 0.412217 -0.015000 -1.412758
v 0.101573 -0.015000 -0.746580
v 0.165637 0.080000 -0.985669
v 0.790000 -0.015000 -1.729756
v 1.253420 -0.015000 -1.898427
v 1.500001 -0.015000 -1.920000
v 0.080000 0.080000 -0.500000
v 0.412217 0.080000 -1.412758
v 1.253420 0.080000 -1.898427
v 0.790000 0.080000 -1.729756
vt 0.369135 0.857252
vt 0.369384 0.857252
vt 0.369384 0.857903
vt 0.369135 0.857903
vt 0.369384 0.858553
vt 0.369135 0.858553
vt 0.369384 0.859204
vt 0.369135 0.859204
vt 0.369384 0.859855
vt 0.369135 0.859855
vt 0.369384 0.860506
vt 0.369135 0.860506
vt 0.369384 0.861157
vt 0.369135 0.861157
vt 0.369384 0.861808
vt 0.369135 0.861808
vt 0.369384 0.862459
vt 0.369135 0.862459
vt 0.369384 0.863109
vt 0.369135 0.863109
vn 0.9962 0.0000 0.0872
vn 0.9848 0.0000 0.1736
vn 0.9397 0.0000 0.3420
vn 0.8660 0.0000 0.5000
vn 0.7660 0.0000 0.6428
vn 0.6428 0.0000 0.7660
vn 0.5000 0.0000 0.8660
vn 0.3420 0.0000 0.9397
vn 0.1736 0.0000 0.9848
vn 0.0872 0.0000 0.9962
s 1
f 77/61/22 66/62/22 72/63/23 63/64/23
f 63/64/23 72/63/23 68/65/24 73/66/24
f 73/66/24 68/65/24 65/67/25 69/68/25
f 69/68/25 65/67/25 71/69/26 78/70/26
f 78/70/26 71/69/26 67/71/27 62/72/27
f 62/72/27 67/71/27 74/73/28 80/74/28
f 80/74/28 74/73/28 64/75/29 61/76/29
f 61/76/29 64/75/29 75/77/30 79/78/30
f 79/78/30 75/77/30 76/79/31 70/80/31
o rail_turn.013_Cube.555
v 1.277731 -0.015000 -1.760553
v 1.500000 -0.015000 -1.779999
v 0.391488 -0.015000 -1.140000
v 0.239446 -0.015000 -0.722270
v 0.677232 -0.015000 -1.480537
v 1.062215 -0.015000 -1.702806
v 0.519463 -0.015000 -1.322768
v 0.860000 -0.015000 -1.608512
v 1.014332 -0.015000 -1.834363
v 0.270244 -0.015000 -1.210000
v 0.080000 -0.015000 -0.500000
v 0.587242 -0.015000 -1.587783
v 0.165637 -0.015000 -0.985669
v 0.220000 -0.015000 -0.500000
v 0.297194 -0.015000 -0.937786
v 0.412217 -0.015000 -1.412758
v 0.101573 -0.015000 -0.746580
v 0.790000 -0.015000 -1.729756
v 1.253420 -0.015000 -1.898427
v 1.500001 -0.015000 -1.920000
vt 0.361952 0.863748
vt 0.362402 0.864125
vt 0.362191 0.864426
vt 0.361692 0.864008
vt 0.362910 0.864418
vt 0.362754 0.864752
vt 0.363461 0.864619
vt 0.363366 0.864974
vt 0.364039 0.864721
vt 0.364007 0.865087
vt 0.364626 0.864721
vt 0.364658 0.865087
vt 0.365203 0.864619
vt 0.365299 0.864974
vt 0.365755 0.864418
vt 0.365910 0.864752
vt 0.366263 0.864125
vt 0.366474 0.864426
vt 0.366712 0.863748
vt 0.366973 0.864008
vn 0.0000 1.0000 0.0000
s 1
f 94/81/32 84/82/32 97/83/32 91/84/32
f 84/82/32 95/85/32 93/86/32 97/83/32
f 95/85/32 83/87/32 90/88/32 93/86/32
f 83/87/32 87/89/32 96/90/32 90/88/32
f 87/89/32 85/91/32 92/92/32 96/90/32
f 85/91/32 88/93/32 98/94/32 92/92/32
f 88/93/32 86/95/32 89/96/32 98/94/32
f 86/95/32 81/97/32 99/98/32 89/96/32
f 81/97/32 82/99/32 100/100/32 99/98/32
o rail_turn.012_Cube.554
v -0.220000 0.100000 -0.500000
v 0.911726 0.100000 -2.116271
v 0.182404 0.100000 -1.605595
v 1.201326 0.100000 -2.193869
v -0.116271 0.100000 -1.088275
v 0.010437 0.100000 -1.360000
v 0.640000 0.100000 -1.989563
v -0.058845 0.100000 -1.400000
v 0.121120 0.100000 -1.657018
v 1.187434 0.100000 -2.272654
v 0.342983 0.100000 -1.878880
v -0.191447 0.100000 -1.115636
v 0.884364 0.100000 -2.191446
v 0.600001 0.100000 -2.058846
v -0.300000 0.100000 -0.500000
v 1.500000 0.100000 -2.219999
v 0.394406 0.100000 -1.817596
v -0.272654 0.100000 -0.812567
v 1.500000 0.100000 -2.299999
v -0.193869 0.100000 -0.798675
vt 0.595720 0.367699
vt 0.595869 0.367550
vt 0.596473 0.368057
vt 0.596352 0.368229
vt 0.597156 0.368451
vt 0.597067 0.368641
vt 0.597897 0.368721
vt 0.597842 0.368924
vt 0.598673 0.368857
vt 0.598655 0.369067
vt 0.599461 0.368857
vt 0.599480 0.369067
vt 0.600238 0.368721
vt 0.600292 0.368924
vt 0.600978 0.368451
vt 0.601067 0.368641
vt 0.601661 0.368057
vt 0.601782 0.368229
vt 0.602265 0.367550
vt 0.602414 0.367699
vn 0.0000 1.0000 -0.0000
s 1
f 115/101/33 101/102/33 120/103/33 118/104/33
f 118/104/33 120/103/33 105/105/33 112/106/33
f 112/106/33 105/105/33 106/107/33 108/108/33
f 108/108/33 106/107/33 103/109/33 109/110/33
f 109/110/33 103/109/33 117/111/33 111/112/33
f 111/112/33 117/111/33 107/113/33 114/114/33
f 114/114/33 107/113/33 102/115/33 113/116/33
f 113/116/33 102/115/33 104/117/33 110/118/33
f 110/118/33 104/117/33 116/119/33 119/120/33
o rail_turn.011_Cube.553
v 0.289650 0.080000 -1.515604
v 0.710001 0.080000 -1.868320
v 0.959609 0.080000 -1.984714
v 1.014332 0.080000 -1.834363
v 1.225636 0.080000 -2.055996
v -0.055996 0.080000 -0.774364
v 0.587242 0.080000 -1.587783
v 0.101573 0.080000 -0.746580
v 0.131680 0.080000 -1.290000
v -0.080000 0.080000 -0.500000
v 1.500000 0.080000 -2.079999
v 0.015286 0.080000 -1.040392
v 0.484396 0.080000 -1.710350
v 0.270244 0.080000 -1.210000
v 1.500001 0.080000 -1.920000
v 0.165637 0.080000 -0.985669
v 0.080000 0.080000 -0.500000
v 0.412217 0.080000 -1.412758
v 1.253420 0.080000 -1.898427
v 0.790000 0.080000 -1.729756
vt 0.596516 0.371063
vt 0.597080 0.371389
vt 0.596902 0.371770
vt 0.596275 0.371408
vt 0.597692 0.371611
vt 0.597583 0.372018
vt 0.598333 0.371724
vt 0.598296 0.372143
vt 0.598984 0.371724
vt 0.599020 0.372143
vt 0.599624 0.371611
vt 0.599733 0.372018
vt 0.600236 0.371389
vt 0.600414 0.371770
vt 0.600800 0.371063
vt 0.601041 0.371408
vt 0.601298 0.370645
vt 0.601596 0.370942
vt 0.595720 0.370942
vt 0.596018 0.370645
vn 0.0000 1.0000 -0.0000
s 1
f 128/121/34 136/122/34 132/123/34 126/124/34
f 136/122/34 134/125/34 129/126/34 132/123/34
f 134/125/34 138/127/34 121/128/34 129/126/34
f 138/127/34 127/129/34 133/130/34 121/128/34
f 140/131/34 122/132/34 133/130/34 127/129/34
f 140/131/34 124/133/34 123/134/34 122/132/34
f 124/133/34 139/135/34 125/136/34 123/134/34
f 135/137/34 131/138/34 125/136/34 139/135/34
f 128/121/34 126/124/34 130/139/34 137/140/34
o rail_turn.010_Cube.552
v 1.500000 0.100000 -1.779999
v 0.860000 0.100000 -1.608512
v 0.391488 0.100000 -1.140000
v 0.580747 0.100000 -1.271345
v 0.300000 0.100000 -0.500000
v 1.291623 0.100000 -1.681769
v 0.900000 0.100000 -1.539230
v 1.500000 0.100000 -1.699999
v 0.460770 0.100000 -1.100000
v 1.062215 0.100000 -1.702806
v 0.372369 0.100000 -0.910424
v 0.318231 0.100000 -0.708378
v 0.519463 0.100000 -1.322768
v 0.239446 0.100000 -0.722270
v 0.728655 0.100000 -1.419253
v 1.089576 0.100000 -1.627631
v 0.220000 0.100000 -0.500000
v 0.297194 0.100000 -0.937786
v 0.677232 0.100000 -1.480537
v 1.277731 0.100000 -1.760553
vt 0.600337 0.373493
vt 0.600758 0.373847
vt 0.600637 0.374019
vt 0.600188 0.373642
vt 0.601234 0.374122
vt 0.601145 0.374313
vt 0.601751 0.374310
vt 0.601697 0.374513
vt 0.602293 0.374406
vt 0.602274 0.374615
vt 0.602843 0.374406
vt 0.602861 0.374615
vt 0.603384 0.374310
vt 0.603439 0.374513
vt 0.603901 0.374122
vt 0.603990 0.374313
vt 0.604378 0.373847
vt 0.604498 0.374019
vt 0.604799 0.373493
vt 0.604948 0.373642
vn 0.0000 1.0000 0.0000
s 1
f 145/141/35 152/142/35 154/143/35 157/144/35
f 152/142/35 151/145/35 158/146/35 154/143/35
f 151/145/35 149/147/35 143/148/35 158/146/35
f 149/147/35 144/149/35 153/150/35 143/148/35
f 144/149/35 155/151/35 159/152/35 153/150/35
f 155/151/35 147/153/35 142/154/35 159/152/35
f 147/153/35 156/155/35 150/156/35 142/154/35
f 156/155/35 146/157/35 160/158/35 150/156/35
f 146/157/35 148/159/35 141/160/35 160/158/35
o rail_turn.009_Cube.551
v -0.379385 0.100000 -1.184040
v -0.232051 0.100000 -1.500000
v -0.032089 0.100000 -1.785575
v 0.500001 0.100000 -2.232050
v 1.152704 0.100000 -2.469615
v 1.500001 0.100000 -2.500000
v -0.058845 0.100000 -1.400000
v 0.121120 0.100000 -1.657018
v 1.187434 0.100000 -2.272654
v 0.815960 0.100000 -2.379385
v -0.500000 0.100000 -0.500000
v 0.342983 0.100000 -1.878880
v -0.191447 0.100000 -1.115636
v 0.214425 0.100000 -2.032089
v -0.469615 0.100000 -0.847296
v 0.884364 0.100000 -2.191446
v 0.600001 0.100000 -2.058846
v -0.300000 0.100000 -0.500000
v -0.272654 0.100000 -0.812567
v 1.500000 0.100000 -2.299999
vt 0.892430 0.874287
vt 0.892801 0.873915
vt 0.893433 0.874445
vt 0.893132 0.874876
vt 0.894148 0.874858
vt 0.893926 0.875335
vt 0.894923 0.875140
vt 0.894787 0.875648
vt 0.895736 0.875283
vt 0.895690 0.875807
vt 0.896561 0.875283
vt 0.896607 0.875807
vt 0.897373 0.875140
vt 0.897509 0.875648
vt 0.898148 0.874858
vt 0.898371 0.875335
vt 0.898863 0.874445
vt 0.899165 0.874876
vt 0.899495 0.873915
vt 0.899867 0.874287
vn 0.0000 1.0000 0.0000
s 1
f 171/161/36 178/162/36 179/163/36 175/164/36
f 175/164/36 179/163/36 173/165/36 161/166/36
f 161/166/36 173/165/36 167/167/36 162/168/36
f 162/168/36 167/167/36 168/169/36 163/170/36
f 163/170/36 168/169/36 172/171/36 174/172/36
f 174/172/36 172/171/36 177/173/36 164/174/36
f 164/174/36 177/173/36 176/175/36 170/176/36
f 170/176/36 176/175/36 169/177/36 165/178/36
f 165/178/36 169/177/36 180/179/36 166/180/36
o rail_turn.008_Cube.550
v 0.182404 -0.015000 -1.605595
v 0.394406 -0.015000 -1.817596
v 0.911726 -0.015000 -2.116271
v -0.220000 0.100000 -0.500000
v 0.911726 0.100000 -2.116271
v 0.182404 0.100000 -1.605595
v 1.201326 0.100000 -2.193869
v -0.116271 0.100000 -1.088275
v 0.010437 -0.015000 -1.360000
v 0.010437 0.100000 -1.360000
v 0.640000 0.100000 -1.989563
v -0.193869 -0.015000 -0.798675
v 0.640000 -0.015000 -1.989563
v 1.201326 -0.015000 -2.193869
v 1.500000 -0.015000 -2.219999
v -0.116271 -0.015000 -1.088275
v -0.220000 -0.015000 -0.500000
v 1.500000 0.100000 -2.219999
v 0.394406 0.100000 -1.817596
v -0.193869 0.100000 -0.798675
vt 0.361692 0.866684
vt 0.361692 0.866382
vt 0.362480 0.866382
vt 0.362480 0.866684
vt 0.363269 0.866382
vt 0.363269 0.866684
vt 0.364057 0.866382
vt 0.364057 0.866684
vt 0.364846 0.866382
vt 0.364846 0.866684
vt 0.365634 0.866382
vt 0.365634 0.866684
vt 0.366422 0.866382
vt 0.366422 0.866684
vt 0.367211 0.866382
vt 0.367211 0.866684
vt 0.367999 0.866382
vt 0.367999 0.866684
vt 0.368787 0.866382
vt 0.368787 0.866684
vn 0.9962 0.0000 0.0872
vn 0.9848 0.0000 0.1736
vn 0.9397 0.0000 0.3420
vn 0.8660 0.0000 0.5000
vn 0.7660 0.0000 0.6428
vn 0.6428 0.0000 0.7660
vn 0.5000 0.0000 0.8660
vn 0.3420 0.0000 0.9397
vn 0.1736 0.0000 0.9848
vn 0.0872 0.0000 0.9962
s 1
f 184/181/37 197/182/37 192/183/38 200/184/38
f 200/184/38 192/183/38 196/185/39 188/186/39
f 188/186/39 196/185/39 189/187/40 190/188/40
f 190/188/40 189/187/40 181/189/41 186/190/41
f 186/190/41 181/189/41 182/191/42 199/192/42
f 199/192/42 182/191/42 193/193/43 191/194/43
f 191/194/43 193/193/43 183/195/44 185/196/44
f 185/196/44 183/195/44 194/197/45 187/198/45
f 187/198/45 194/197/45 195/199/46 198/200/46
o rail_turn.007_Cube.549
v 0.500001 1.000000 -2.232050
v -0.500000 1.000000 -0.500000
v -0.379385 0.100000 -1.184040
v -0.232051 0.100000 -1.500000
v -0.032089 0.100000 -1.785575
v -0.379385 1.000000 -1.184040
v 0.500001 0.100000 -2.232050
v 1.152704 0.100000 -2.469615
v 1.500001 0.100000 -2.500000
v -0.469615 1.000000 -0.847296
v -0.232051 1.000000 -1.500000
v -0.032089 1.000000 -1.785575
v 0.214425 1.000000 -2.032089
v 0.815960 1.000000 -2.379385
v 1.152704 1.000000 -2.469615
v 1.500001 1.000000 -2.500000
v 0.815960 0.100000 -2.379385
v -0.500000 0.100000 -0.500000
v 0.214425 0.100000 -2.032089
v -0.469615 0.100000 -0.847296
vt 0.905322 0.621742
vt 0.906183 0.621428
vt 0.906183 0.621428
vt 0.905322 0.621742
vt 0.900944 0.620970
vt 0.901738 0.621428
vt 0.901738 0.621428
vt 0.900944 0.620970
vt 0.902600 0.621742
vt 0.902600 0.621742
vt 0.906977 0.620970
vt 0.906977 0.620970
vt 0.903502 0.621901
vt 0.903502 0.621901
vt 0.907679 0.620381
vt 0.907679 0.620381
vt 0.904419 0.621901
vt 0.904419 0.621901
vt 0.900242 0.620381
vt 0.900242 0.620381
vn 0.5000 0.0000 0.8660
vn 0.3420 0.0000 0.9397
vn 0.9848 0.0000 0.1736
vn 0.9397 0.0000 0.3420
vn 0.8660 0.0000 0.5000
vn 0.1736 0.0000 0.9848
vn 0.7660 0.0000 0.6428
vn 0.0872 0.0000 0.9962
vn 0.6428 0.0000 0.7660
vn 0.9962 0.0000 0.0872
s 1
f 207/201/47 217/202/48 214/203/48 201/204/47
f 220/205/49 203/206/50 206/207/50 210/208/49
f 203/206/50 204/209/51 211/210/51 206/207/50
f 217/202/48 208/211/52 215/212/52 214/203/48
f 204/209/51 205/213/53 212/214/53 211/210/51
f 208/211/52 209/215/54 216/216/54 215/212/52
f 205/213/53 219/217/55 213/218/55 212/214/53
f 219/217/55 207/201/47 201/204/47 213/218/55
f 218/219/56 220/205/49 210/208/49 202/220/56
o rail_turn.006_Cube.548
v 0.500000 0.100000 -0.500000
v 0.500000 1.000000 -0.500000
v 1.500001 1.000000 -0.500000
v 1.500001 0.100000 -0.500000
vt 0.859949 0.626191
vt 0.859598 0.625897
vt 0.859598 0.625897
vt 0.859949 0.626191
vn 0.0000 0.0000 1.0000
s 1
f 223/221/57 222/222/57 221/223/57 224/224/57
o rail_turn.005_Cube.547
v 1.500001 0.100000 -1.500000
v 1.500001 1.000000 -1.500000
v 1.500001 1.000000 -0.500000
v 1.500001 0.100000 -0.500000
vt 0.863317 0.625897
vt 0.863317 0.625897
vt 0.863317 0.625897
vt 0.863317 0.625897
vn 1.0000 0.0000 0.0000
s 1
f 226/225/58 227/226/58 228/227/58 225/228/58
o rail_turn.004_Cube.546
v 0.515192 1.000000 -0.673648
v 0.733956 1.000000 -1.142788
v 1.000000 1.000000 -1.366025
v 1.157980 1.000000 -1.439692
v 1.326352 1.000000 -1.484808
v 0.500000 1.000000 -0.500000
v 1.500001 1.000000 -1.500000
v 0.560308 1.000000 -0.842020
v 0.857213 1.000000 -1.266044
v 0.633975 1.000000 -1.000000
v 1.500001 1.000000 -0.500000
vt 0.153315 0.874467
vt 0.152918 0.874238
vt 0.153315 0.874467
vt 0.156286 0.873943
vt 0.155935 0.874238
vt 0.156286 0.873943
vt 0.155107 0.874624
vt 0.154656 0.874704
vt 0.155107 0.874624
vt 0.153746 0.874624
vt 0.153746 0.874624
vt 0.155538 0.874467
vt 0.155538 0.874467
vt 0.154197 0.874704
vt 0.154197 0.874704
vt 0.152567 0.873943
vt 0.152918 0.874238
vt 0.155935 0.874238
vt 0.154656 0.874704
vn 0.0000 1.0000 0.0000
s 1
f 236/229/59 229/230/59 239/231/59
f 235/232/59 233/233/59 239/234/59
f 231/235/59 237/236/59 239/237/59
f 238/238/59 236/229/59 239/239/59
f 232/240/59 231/235/59 239/241/59
f 230/242/59 238/238/59 239/243/59
f 229/230/59 234/244/59 239/245/59
f 233/233/59 232/240/59 239/246/59
f 237/236/59 230/242/59 239/247/59
o rail_turn.003_Cube.545
v 0.633975 0.100000 -1.000000
v 0.515192 0.100000 -0.673648
v 1.326352 0.100000 -1.484808
v 0.560308 0.100000 -0.842020
v 1.500001 0.100000 -1.500000
v 0.500000 0.100000 -0.500000
v 0.515192 1.000000 -0.673648
v 1.157980 0.100000 -1.439692
v 0.733956 1.000000 -1.142788
v 1.000000 1.000000 -1.366025
v 1.157980 1.000000 -1.439692
v 1.326352 1.000000 -1.484808
v 1.000000 0.100000 -1.366025
v 0.857213 0.100000 -1.266044
v 0.733956 0.100000 -1.142788
v 0.500000 1.000000 -0.500000
v 1.500001 1.000000 -1.500000
v 0.560308 1.000000 -0.842020
v 0.857213 1.000000 -1.266044
v 0.633975 1.000000 -1.000000
vt 0.889030 0.628610
vt 0.888572 0.628610
vt 0.888572 0.628610
vt 0.889030 0.628610
vt 0.887293 0.628144
vt 0.886942 0.627850
vt 0.886942 0.627850
vt 0.887293 0.628144
vt 0.889482 0.628530
vt 0.889482 0.628530
vt 0.887690 0.628374
vt 0.887690 0.628374
vt 0.888121 0.628530
vt 0.888121 0.628530
vt 0.889913 0.628374
vt 0.889913 0.628374
vt 0.890310 0.628144
vt 0.890310 0.628144
vt 0.890661 0.627850
vt 0.890661 0.627850
vn -0.6428 0.0000 -0.7660
vn -0.7660 0.0000 -0.6428
vn -0.9848 0.0000 -0.1736
vn -0.9962 0.0000 -0.0872
vn -0.5000 0.0000 -0.8660
vn -0.9397 0.0000 -0.3420
vn -0.8660 0.0000 -0.5000
vn -0.3420 0.0000 -0.9397
vn -0.1736 0.0000 -0.9848
vn -0.0872 0.0000 -0.9962
s 1
f 253/248/60 254/249/61 248/250/61 258/251/60
f 241/252/62 245/253/63 255/254/63 246/255/62
f 252/256/64 253/248/60 258/251/60 249/257/64
f 243/258/65 241/252/62 246/255/62 257/259/65
f 240/260/66 243/258/65 257/259/65 259/261/66
f 247/262/67 252/256/64 249/257/64 250/263/67
f 242/264/68 247/262/67 250/263/67 251/265/68
f 254/249/61 240/260/66 259/261/66 248/250/61
f 244/266/69 242/264/68 251/265/68 256/267/69
o rail_turn.002_Cube.544
v 0.500001 1.000000 -2.232050
v -0.500000 1.000000 -0.500000
v -0.500000 1.000000 -2.500000
v -0.379385 1.000000 -1.184040
v -0.469615 1.000000 -0.847296
v -0.232051 1.000000 -1.500000
v -0.032089 1.000000 -1.785575
v 0.214425 1.000000 -2.032089
v 0.815960 1.000000 -2.379385
v 1.152704 1.000000 -2.469615
v 1.500001 1.000000 -2.500000
vt 0.201294 0.852370
vt 0.202197 0.852211
vt 0.201294 0.852370
vt 0.198613 0.851897
vt 0.199475 0.852211
vt 0.198613 0.851897
vt 0.203058 0.851897
vt 0.202197 0.852211
vt 0.200377 0.852370
vt 0.199475 0.852211
vt 0.197117 0.850850
vt 0.197819 0.851439
vt 0.197117 0.850850
vt 0.203852 0.851439
vt 0.203058 0.851897
vt 0.200377 0.852370
vt 0.197819 0.851439
vt 0.204554 0.850850
vt 0.203852 0.851439
vn 0.0000 1.0000 0.0000
s 1
f 267/268/70 260/269/70 262/270/70
f 263/271/70 265/272/70 262/273/70
f 260/269/70 268/274/70 262/275/70
f 265/272/70 266/276/70 262/277/70
f 261/278/70 264/279/70 262/280/70
f 268/274/70 269/281/70 262/282/70
f 266/276/70 267/268/70 262/283/70
f 264/279/70 263/271/70 262/284/70
f 269/281/70 270/285/70 262/286/70
o rail_turn.001_Cube.543
v 0.580747 0.100000 -1.271345
v 0.300000 0.100000 -0.500000
v 1.291623 0.100000 -1.681769
v 0.633975 0.100000 -1.000000
v 0.515192 0.100000 -0.673648
v 1.326352 0.100000 -1.484808
v 0.560308 0.100000 -0.842020
v 0.900000 0.100000 -1.539230
v 1.500001 0.100000 -1.500000
v 1.500000 0.100000 -1.699999
v 0.460770 0.100000 -1.100000
v 0.500000 0.100000 -0.500000
v 1.157980 0.100000 -1.439692
v 1.000000 0.100000 -1.366025
v 0.857213 0.100000 -1.266044
v 0.733956 0.100000 -1.142788
v 0.372369 0.100000 -0.910424
v 0.318231 0.100000 -0.708378
v 0.728655 0.100000 -1.419253
v 1.089576 0.100000 -1.627631
vt 0.892801 0.881756
vt 0.893153 0.882051
vt 0.892851 0.882481
vt 0.892430 0.882128
vt 0.893549 0.882280
vt 0.893327 0.882756
vt 0.893980 0.882437
vt 0.893844 0.882944
vt 0.894432 0.882516
vt 0.894386 0.883040
vt 0.894890 0.882516
vt 0.894936 0.883040
vt 0.895341 0.882437
vt 0.895477 0.882945
vt 0.895772 0.882280
vt 0.895994 0.882756
vt 0.896169 0.882051
vt 0.896471 0.882481
vt 0.896520 0.881756
vt 0.896892 0.882128
vn 0.0000 1.0000 0.0000
s 1
f 282/287/71 275/288/71 288/289/71 272/290/71
f 275/288/71 277/291/71 287/292/71 288/289/71
f 277/291/71 274/293/71 281/294/71 287/292/71
f 274/293/71 286/295/71 271/296/71 281/294/71
f 286/295/71 285/297/71 289/298/71 271/296/71
f 285/297/71 284/299/71 278/300/71 289/298/71
f 284/299/71 283/301/71 290/302/71 278/300/71
f 283/301/71 276/303/71 273/304/71 290/302/71
f 276/303/71 279/305/71 280/306/71 273/304/71
