# Blender v2.79 (sub 0) OBJ File: 'monorail.blend'
# www.blender.org
o rail.006_Cube.180
v 0.600000 0.200000 1.000000
v 0.600000 -0.100000 1.000000
v 0.600000 -0.100000 -1.000000
v 0.600000 0.200000 -1.000000
v -0.600000 0.200000 1.000000
v -0.600000 -0.100000 1.000000
v -0.600000 -0.100000 -1.000000
v -0.600000 0.200000 -1.000000
vt 0.374039 0.900803
vt 0.384039 0.900803
vt 0.374039 0.900803
vt 0.384039 0.900803
vt 0.374039 0.900803
vt 0.384039 0.900803
vt 0.374039 0.900803
vt 0.384039 0.900803
vn 1.0000 0.0000 0.0000
vn -1.0000 0.0000 0.0000
s off
f 3/1/1 4/2/1 1/3/1 2/4/1
f 7/5/2 6/6/2 5/7/2 8/8/2
o rail.005_Cube.179
v 0.160000 0.160000 -1.000000
v 0.160000 -0.030000 1.000000
v 0.160000 0.160000 1.000000
v 0.160000 -0.030000 -1.000000
v -0.160000 0.160000 -1.000000
v -0.160000 -0.030000 1.000000
v -0.160000 0.160000 1.000000
v -0.160000 -0.030000 -1.000000
vt 0.378961 0.890803
vt 0.388961 0.890803
vt 0.388961 0.900803
vt 0.378961 0.900803
vt 0.378961 0.890803
vt 0.378961 0.900803
vt 0.388961 0.900803
vt 0.388961 0.890803
vn 1.0000 0.0000 0.0000
vn -1.0000 0.0000 0.0000
s off
f 12/9/3 9/10/3 11/11/3 10/12/3
f 16/13/4 14/14/4 15/15/4 13/16/4
o rail.004_Cube.178
v 0.160000 0.160000 -1.000000
v 0.160000 0.160000 1.000000
v -0.160000 0.160000 -1.000000
v 0.000000 0.160000 -1.000000
v 0.000000 0.160000 1.000000
v -0.160000 0.160000 1.000000
vt 0.580745 0.369117
vt 0.590745 0.369117
vt 0.590745 0.379117
vt 0.580745 0.379117
vt 0.580745 0.369117
vt 0.580745 0.379117
vn 0.0000 1.0000 0.0000
s off
f 17/17/5 20/18/5 21/19/5 18/20/5
f 19/21/5 22/22/5 21/19/5 20/18/5
o rail.003_Cube.177
v 0.440000 -0.030000 1.000000
v 0.440000 -0.030000 -1.000000
v 0.160000 -0.030000 1.000000
v 0.160000 -0.030000 -1.000000
v -0.440000 -0.030000 1.000000
v -0.440000 -0.030000 -1.000000
v -0.160000 -0.030000 1.000000
v -0.160000 -0.030000 -1.000000
vt 0.378961 0.890803
vt 0.388961 0.890803
vt 0.388961 0.900803
vt 0.378961 0.900803
vt 0.378961 0.890803
vt 0.378961 0.900803
vt 0.388961 0.900803
vt 0.388961 0.890803
vn 0.0000 1.0000 0.0000
s off
f 26/23/6 25/24/6 23/25/6 24/26/6
f 30/27/6 28/28/6 27/29/6 29/30/6
o rail.002_Cube.176
v 0.440000 0.200000 1.000000
v 0.440000 0.200000 -1.000000
v 0.600000 0.200000 1.000000
v 0.600000 0.200000 -1.000000
v -0.440000 0.200000 1.000000
v -0.440000 0.200000 -1.000000
v -0.600000 0.200000 1.000000
v -0.600000 0.200000 -1.000000
vt 0.580745 0.369117
vt 0.590745 0.369117
vt 0.590745 0.379117
vt 0.580745 0.379117
vt 0.580745 0.369117
vt 0.580745 0.379117
vt 0.590745 0.379117
vt 0.590745 0.369117
vn 0.0000 1.0000 0.0000
s off
f 32/31/7 31/32/7 33/33/7 34/34/7
f 36/35/7 38/36/7 37/37/7 35/38/7
o rail.001_Cube.175
v 0.440000 0.200000 1.000000
v 0.440000 0.200000 -1.000000
v 0.440000 -0.030000 1.000000
v 0.440000 -0.030000 -1.000000
v -0.440000 0.200000 1.000000
v -0.440000 0.200000 -1.000000
v -0.440000 -0.030000 1.000000
v -0.440000 -0.030000 -1.000000
vt 0.378961 0.890803
vt 0.388961 0.890803
vt 0.388961 0.900803
vt 0.378961 0.900803
vt 0.378961 0.890803
vt 0.378961 0.900803
vt 0.388961 0.900803
vt 0.388961 0.890803
vn -1.0000 0.0000 0.0000
vn 1.0000 0.0000 0.0000
s off
f 42/39/8 41/40/8 39/41/8 40/42/8
f 46/43/9 44/44/9 43/45/9 45/46/9
