# Blender v2.79 (sub 0) OBJ File: 'env_test.blend'
# www.blender.org
o Cube
v -0.166667 0.000000 0.700000
v 0.000000 0.000000 0.700000
v 0.166667 0.000000 0.700000
v 0.333333 0.000000 0.700000
v -0.500000 0.600000 0.700000
v 0.500000 0.600000 0.700000
v -0.500000 0.000000 0.700000
v 0.500000 0.000000 0.700000
v 0.500000 0.000000 -0.700000
v -0.500000 0.000000 -0.700000
v 0.500000 0.600000 -0.700000
v -0.500000 0.600000 -0.700000
v 0.333333 0.000000 -0.700000
v 0.166667 0.000000 -0.700000
v 0.000000 0.000000 -0.700000
v -0.166667 0.000000 -0.700000
v -0.333333 0.000000 -0.700000
v 0.333333 0.600000 -0.700000
v 0.166667 0.600000 -0.700000
v 0.000000 0.600000 -0.700000
v -0.166667 0.600000 -0.700000
v -0.333333 0.600000 -0.700000
v 0.500000 0.166302 -0.700000
v 0.500000 0.461673 -0.700000
v -0.500000 0.166302 -0.700000
v -0.500000 0.461673 -0.700000
v 0.312332 0.456395 -0.700000
v 0.354335 0.456395 -0.700000
v 0.333333 0.477397 -0.700000
v 0.354335 0.166301 -0.700000
v 0.312332 0.166301 -0.700000
v 0.333333 0.145300 -0.700000
v 0.145665 0.456395 -0.700000
v 0.187669 0.456395 -0.700000
v 0.166667 0.477397 -0.700000
v 0.187669 0.166301 -0.700000
v 0.145665 0.166301 -0.700000
v 0.166667 0.145300 -0.700000
v -0.021002 0.456395 -0.700000
v 0.021002 0.456395 -0.700000
v 0.000000 0.477397 -0.700000
v 0.021002 0.166301 -0.700000
v -0.021002 0.166301 -0.700000
v 0.000000 0.145300 -0.700000
v -0.187668 0.456395 -0.700000
v -0.145665 0.456395 -0.700000
v -0.166667 0.477397 -0.700000
v -0.145665 0.166301 -0.700000
v -0.187668 0.166301 -0.700000
v -0.166667 0.145300 -0.700000
v -0.354335 0.456395 -0.700000
v -0.312331 0.456395 -0.700000
v -0.333333 0.477397 -0.700000
v -0.312331 0.166301 -0.700000
v -0.354335 0.166301 -0.700000
v -0.333333 0.145300 -0.700000
v -0.333333 0.000000 0.700000
v 0.333333 0.600000 0.700000
v 0.166667 0.600000 0.700000
v 0.000000 0.600000 0.700000
v -0.166667 0.600000 0.700000
v -0.333333 0.600000 0.700000
v 0.500000 0.166302 0.700000
v 0.500000 0.461673 0.700000
v -0.500000 0.166302 0.700000
v -0.500000 0.461673 0.700000
v -0.333333 0.461673 0.700000
v -0.333333 0.166302 0.700000
v -0.166667 0.461673 0.700000
v -0.166667 0.166302 0.700000
v 0.000000 0.461673 0.700000
v 0.000000 0.166302 0.700000
v 0.166667 0.461673 0.700000
v 0.166667 0.166302 0.700000
v 0.333333 0.461673 0.700000
v 0.333333 0.166302 0.700000
v -0.490000 -0.000000 0.065120
v -0.490000 0.470000 0.065120
v -0.490000 -0.000000 -0.690000
v -0.490000 0.470000 -0.690000
v -0.373128 -0.000000 0.065120
v -0.373128 0.470000 0.065120
v -0.373128 -0.000000 -0.690000
v -0.373128 0.470000 -0.690000
v -0.113046 0.106044 -0.457175
v -0.113046 -0.000000 -0.457175
v -0.113046 0.106044 -0.327941
v -0.113046 -0.000000 -0.327941
v 0.113046 -0.000000 -0.327941
v 0.113046 0.106044 -0.327941
v 0.113046 -0.000000 -0.457175
v 0.113046 0.106044 -0.457175
v -0.092093 0.066764 -0.053974
v -0.092093 -0.000000 -0.053974
v -0.092093 0.066764 0.313373
v -0.092093 -0.000000 0.313373
v 0.092093 -0.000000 0.313373
v 0.092093 0.066764 0.313373
v 0.092093 -0.000000 -0.053974
v 0.092093 0.066764 -0.053974
v -0.276534 0.055489 -0.025544
v -0.276534 -0.000000 -0.025544
v -0.276534 0.055489 0.284943
v -0.276534 -0.000000 0.284943
v -0.153921 -0.000000 0.284943
v -0.153921 0.052379 0.284943
v -0.153921 -0.000000 -0.025544
v -0.153921 0.052379 -0.025544
v -0.220469 -0.000000 -0.025544
v -0.220469 0.052379 -0.025544
v -0.220469 -0.000000 0.284943
v -0.220469 0.052379 0.284943
v -0.287017 0.144103 0.284943
v -0.287017 0.144103 -0.025544
v -0.242177 0.144103 0.284943
v -0.242177 0.144103 -0.025544
v 0.267522 0.055489 0.284943
v 0.267522 -0.000000 0.284943
v 0.267522 0.055489 -0.025544
v 0.267522 -0.000000 -0.025544
v 0.144909 -0.000000 -0.025544
v 0.144909 0.052379 -0.025544
v 0.144909 -0.000000 0.284943
v 0.144909 0.052379 0.284943
v 0.211457 -0.000000 0.284943
v 0.211457 0.052379 0.284943
v 0.211457 -0.000000 -0.025544
v 0.211457 0.052379 -0.025544
v 0.278005 0.144103 -0.025544
v 0.278005 0.144103 0.284943
v 0.233164 0.144103 -0.025544
v 0.233164 0.144103 0.284943
v -0.070389 0.055489 0.488567
v -0.070389 -0.000000 0.488567
v 0.068220 0.055489 0.488567
v 0.068220 -0.000000 0.488567
v 0.068220 -0.000000 0.366228
v 0.068220 0.052379 0.366228
v -0.070389 -0.000000 0.366228
v -0.070389 0.052379 0.366228
v -0.070389 -0.000000 0.432776
v -0.070389 0.052379 0.432776
v 0.068220 -0.000000 0.432776
v 0.068220 0.052379 0.432776
v 0.068220 0.144103 0.499325
v -0.070389 0.144103 0.499325
v 0.068220 0.144103 0.454484
v -0.070389 0.144103 0.454484
v 0.072528 0.055489 -0.621250
v 0.072528 -0.000000 -0.621250
v -0.066081 0.055489 -0.621250
v -0.066081 -0.000000 -0.621250
v -0.066081 -0.000000 -0.500060
v -0.066081 0.052379 -0.500060
v 0.072528 -0.000000 -0.500060
v 0.072528 0.052379 -0.500060
v 0.072528 -0.000000 -0.566608
v 0.072528 0.052379 -0.566608
v -0.066081 -0.000000 -0.566608
v -0.066081 0.052379 -0.566608
v -0.066081 0.144103 -0.633156
v 0.072528 0.144103 -0.633157
v -0.066081 0.144103 -0.588316
v 0.072528 0.144103 -0.588316
vn 0.0000 1.0000 0.0000
vn -1.0000 0.0000 0.0000
vn 0.0000 -0.0000 1.0000
vn 1.0000 0.0000 0.0000
vn 0.0000 -1.0000 0.0000
vn 0.0000 0.0000 -1.0000
vn 0.9731 0.2303 0.0000
vn -0.9931 -0.1175 0.0000
vn -0.9731 0.2303 -0.0000
vn 0.9931 -0.1175 0.0000
vn -0.0000 0.2303 -0.9731
vn 0.0000 -0.1205 0.9927
vn 0.0000 0.2303 0.9731
vn -0.0000 -0.1332 -0.9911
s off
f 16//1 17//1 57//1 1//1
f 24//2 23//2 63//2 64//2
f 17//1 10//1 7//1 57//1
f 15//1 16//1 1//1 2//1
f 23//2 9//2 8//2 63//2
f 19//3 20//3 41//3 40//3 33//3 35//3
f 23//3 30//3 32//3 13//3 9//3
f 20//3 21//3 47//3 46//3 39//3 41//3
f 21//3 22//3 53//3 52//3 45//3 47//3
f 22//3 12//3 26//3 51//3 53//3
f 50//3 49//3 54//3 56//3 17//3 16//3
f 44//3 43//3 48//3 50//3 16//3 15//3
f 38//3 37//3 42//3 44//3 15//3 14//3
f 24//3 28//3 30//3 23//3
f 32//3 31//3 36//3 38//3 14//3 13//3
f 18//3 19//3 35//3 34//3 27//3 29//3
f 51//3 26//3 25//3 55//3
f 56//3 55//3 25//3 10//3 17//3
f 27//3 28//3 29//3
f 30//3 31//3 32//3
f 33//3 34//3 35//3
f 36//3 37//3 38//3
f 39//3 40//3 41//3
f 42//3 43//3 44//3
f 45//3 46//3 47//3
f 48//3 49//3 50//3
f 51//3 52//3 53//3
f 54//3 55//3 56//3
f 27//3 31//3 30//3 28//3
f 33//3 37//3 36//3 34//3
f 39//3 43//3 42//3 40//3
f 45//3 49//3 48//3 46//3
f 51//3 55//3 54//3 52//3
f 11//3 18//3 29//3 28//3 24//3
f 11//2 24//2 64//2 6//2
f 10//4 25//4 65//4 7//4
f 18//5 11//5 6//5 58//5
f 26//4 12//4 5//4 66//4
f 25//4 26//4 66//4 65//4
f 19//5 18//5 58//5 59//5
f 12//5 22//5 62//5 5//5
f 20//5 19//5 59//5 60//5
f 9//1 13//1 4//1 8//1
f 21//5 20//5 60//5 61//5
f 13//1 14//1 3//1 4//1
f 22//5 21//5 61//5 62//5
f 14//1 15//1 2//1 3//1
f 76//6 63//6 8//6 4//6
f 75//6 64//6 63//6 76//6
f 62//6 67//6 66//6 5//6
f 66//6 67//6 68//6 65//6
f 61//6 69//6 67//6 62//6
f 65//6 68//6 57//6 7//6
f 67//6 69//6 70//6 68//6
f 58//6 6//6 64//6 75//6
f 68//6 70//6 1//6 57//6
f 69//6 71//6 72//6 70//6
f 61//6 60//6 71//6 69//6
f 70//6 72//6 2//6 1//6
f 71//6 73//6 74//6 72//6
f 60//6 59//6 73//6 71//6
f 72//6 74//6 3//6 2//6
f 73//6 75//6 76//6 74//6
f 59//6 58//6 75//6 73//6
f 74//6 76//6 4//6 3//6
f 77//2 78//2 80//2 79//2
f 79//6 80//6 84//6 83//6
f 83//4 84//4 82//4 81//4
f 81//3 82//3 78//3 77//3
f 79//5 83//5 81//5 77//5
f 84//1 80//1 78//1 82//1
f 88//2 87//2 85//2 86//2
f 86//6 85//6 92//6 91//6
f 91//4 92//4 90//4 89//4
f 89//3 90//3 87//3 88//3
f 86//5 91//5 89//5 88//5
f 92//1 85//1 87//1 90//1
f 96//2 95//2 93//2 94//2
f 94//6 93//6 100//6 99//6
f 99//4 100//4 98//4 97//4
f 97//3 98//3 95//3 96//3
f 94//5 99//5 97//5 96//5
f 100//1 93//1 95//1 98//1
f 104//2 103//2 101//2 102//2
f 109//6 110//6 108//6 107//6
f 107//4 108//4 106//4 105//4
f 111//3 112//3 103//3 104//3
f 109//5 107//5 105//5 111//5
f 110//6 101//6 114//6 116//6
f 108//1 110//1 112//1 106//1
f 102//5 109//5 111//5 104//5
f 105//3 106//3 112//3 111//3
f 102//6 101//6 110//6 109//6
f 116//1 114//1 113//1 115//1
f 103//3 112//3 115//3 113//3
f 112//7 110//7 116//7 115//7
f 101//8 103//8 113//8 114//8
f 120//4 119//4 117//4 118//4
f 125//3 126//3 124//3 123//3
f 123//2 124//2 122//2 121//2
f 127//6 128//6 119//6 120//6
f 125//5 123//5 121//5 127//5
f 126//3 117//3 130//3 132//3
f 124//1 126//1 128//1 122//1
f 118//5 125//5 127//5 120//5
f 121//6 122//6 128//6 127//6
f 118//3 117//3 126//3 125//3
f 132//1 130//1 129//1 131//1
f 119//6 128//6 131//6 129//6
f 128//9 126//9 132//9 131//9
f 117//10 119//10 129//10 130//10
f 136//3 135//3 133//3 134//3
f 141//2 142//2 140//2 139//2
f 139//6 140//6 138//6 137//6
f 143//4 144//4 135//4 136//4
f 141//5 139//5 137//5 143//5
f 142//2 133//2 146//2 148//2
f 140//1 142//1 144//1 138//1
f 134//5 141//5 143//5 136//5
f 137//4 138//4 144//4 143//4
f 134//2 133//2 142//2 141//2
f 148//1 146//1 145//1 147//1
f 135//4 144//4 147//4 145//4
f 144//11 142//11 148//11 147//11
f 133//12 135//12 145//12 146//12
f 152//6 151//6 149//6 150//6
f 157//4 158//4 156//4 155//4
f 155//3 156//3 154//3 153//3
f 159//2 160//2 151//2 152//2
f 157//5 155//5 153//5 159//5
f 158//4 149//4 162//4 164//4
f 156//1 158//1 160//1 154//1
f 150//5 157//5 159//5 152//5
f 153//2 154//2 160//2 159//2
f 150//4 149//4 158//4 157//4
f 164//1 162//1 161//1 163//1
f 151//2 160//2 163//2 161//2
f 160//13 158//13 164//13 163//13
f 149//14 151//14 161//14 162//14
