# Blender v2.79 (sub 0) OBJ File: 'sofa.blend'
# www.blender.org
o room.006_Cube.117
v -0.500000 0.500000 0.400000
v -0.500000 0.500000 -0.700000
v 0.500000 0.500000 -0.700000
v 0.500000 0.500000 0.400000
v -0.314633 0.500000 -0.700000
v 0.314633 0.500000 -0.700000
v -0.176653 0.500000 -0.700000
v -0.156681 0.500000 -0.700000
v -0.009986 0.500000 -0.700000
v 0.009986 0.500000 -0.700000
v 0.156681 0.500000 -0.700000
v 0.176653 0.500000 -0.700000
vt 0.479415 0.399547
vt 0.000206 0.399547
vt 0.000206 0.000206
vt 0.479415 0.000206
vt 0.479415 0.066763
vt 0.479415 0.129332
vt 0.479415 0.137307
vt 0.479415 0.195889
vt 0.479416 0.203864
vt 0.479415 0.262446
vt 0.479415 0.270421
vt 0.479415 0.332990
vn 0.0000 -1.0000 0.0000
s off
f 3/1/1 4/2/1 1/3/1 2/4/1 5/5/1 7/6/1 8/7/1 9/8/1 10/9/1 11/10/1 12/11/1 6/12/1
o room.005_Cube.116
v 0.500000 0.000000 0.400000
v 0.500000 0.000000 -0.700000
v 0.500000 0.500000 -0.700000
v 0.500000 0.500000 0.400000
v 0.500000 0.135250 -0.700000
v 0.500000 0.386605 -0.700000
vt 0.879168 0.799712
vt 0.399959 0.799712
vt 0.399959 0.600041
vt 0.879168 0.600041
vt 0.879168 0.666598
vt 0.879168 0.733155
vn -1.0000 0.0000 0.0000
s off
f 14/13/2 13/14/2 16/15/2 15/16/2 18/17/2 17/18/2
o room.004_Cube.115
v -0.500000 0.000000 -0.700000
v -0.500000 0.500000 0.400000
v -0.500000 0.500000 -0.700000
v -0.500000 0.000000 0.400000
v -0.500000 0.135250 -0.700000
v -0.500000 0.386605 -0.700000
v -0.500000 0.386605 0.400000
v -0.500000 0.135250 0.400000
vt 0.399959 0.533073
vt 0.879168 0.533073
vt 0.879168 0.599629
vt 0.399959 0.599629
vt 0.399959 0.399959
vt 0.879168 0.399959
vt 0.879168 0.466516
vt 0.399959 0.466516
vn 1.0000 0.0000 0.0000
s off
f 25/19/3 24/20/3 21/21/3 20/22/3
f 22/23/3 19/24/3 23/25/3 26/26/3
f 26/26/3 23/25/3 24/20/3 25/19/3
o room.003_Cube.114
v 0.500000 0.000000 0.400000
v 0.500000 0.000000 -0.700000
v -0.500000 0.000000 -0.700000
v -0.500000 0.000000 0.400000
v 0.314633 0.000000 -0.700000
v -0.314633 0.000000 -0.700000
v -0.314633 0.000000 0.400000
v 0.314633 0.000000 0.400000
v 0.176653 0.000000 -0.700000
v 0.156681 0.000000 -0.700000
v 0.009986 0.000000 -0.700000
v -0.009986 0.000000 -0.700000
v -0.156681 0.000000 -0.700000
v -0.176653 0.000000 -0.700000
v -0.156681 0.000000 0.400000
v -0.176653 0.000000 0.400000
v 0.009986 0.000000 0.400000
v -0.009986 0.000000 0.400000
v 0.176653 0.000000 0.400000
v 0.156681 0.000000 0.400000
vt 0.066763 0.399959
vt 0.066763 0.879168
vt 0.000206 0.879168
vt 0.000206 0.399959
vt 0.332990 0.399959
vt 0.332990 0.879168
vt 0.270421 0.879168
vt 0.270421 0.399959
vt 0.262446 0.399959
vt 0.262446 0.879168
vt 0.203864 0.879168
vt 0.203864 0.399959
vt 0.399547 0.399959
vt 0.399547 0.879168
vt 0.129332 0.399959
vt 0.129332 0.879168
vt 0.195889 0.399959
vt 0.195889 0.879168
vt 0.137307 0.879168
vt 0.137307 0.399959
vn 0.0000 1.0000 0.0000
s off
f 31/27/4 34/28/4 27/29/4 28/30/4
f 32/31/4 33/32/4 42/33/4 40/34/4
f 39/35/4 41/36/4 44/37/4 38/38/4
f 29/39/4 30/40/4 33/32/4 32/31/4
f 35/41/4 45/42/4 34/28/4 31/27/4
f 37/43/4 43/44/4 46/45/4 36/46/4
f 41/36/4 39/35/4 40/34/4 42/33/4
f 43/44/4 37/43/4 38/38/4 44/37/4
f 45/42/4 35/41/4 36/46/4 46/45/4
o room.002_Cube.113
v 0.500000 0.000000 0.400000
v -0.500000 0.500000 0.400000
v 0.500000 0.500000 0.400000
v -0.500000 0.000000 0.400000
v -0.314633 0.000000 0.400000
v 0.314633 0.000000 0.400000
v -0.500000 0.386605 0.400000
v -0.500000 0.135250 0.400000
v -0.156681 0.000000 0.400000
v -0.176653 0.000000 0.400000
v 0.009986 0.000000 0.400000
v -0.009986 0.000000 0.400000
v 0.176653 0.000000 0.400000
v 0.156681 0.000000 0.400000
vt 0.679498 0.000206
vt 0.679498 0.066763
vt 0.679498 0.129332
vt 0.679498 0.137307
vt 0.679498 0.195889
vt 0.679498 0.203864
vt 0.679498 0.262446
vt 0.679498 0.270421
vt 0.679498 0.332990
vt 0.679498 0.399547
vt 0.612941 0.399547
vt 0.546384 0.399547
vt 0.479827 0.399547
vt 0.479827 0.000206
vn -0.0000 0.0000 -1.0000
s off
f 47/47/5 52/48/5 59/49/5 60/50/5 57/51/5 58/52/5 55/53/5 56/54/5 51/55/5 50/56/5 54/57/5 53/58/5 48/59/5 49/60/5
o room.001_Cube.112
v 0.500000 0.000000 -0.700000
v -0.500000 0.000000 -0.700000
v -0.500000 0.500000 -0.700000
v 0.500000 0.500000 -0.700000
v 0.314633 0.000000 -0.700000
v 0.314633 0.135250 -0.700000
v -0.314633 0.386605 -0.700000
v -0.314633 0.135250 -0.700000
v -0.314633 0.000000 -0.700000
v 0.500000 0.135250 -0.700000
v 0.500000 0.386605 -0.700000
v -0.500000 0.135250 -0.700000
v -0.314633 0.500000 -0.700000
v -0.500000 0.386605 -0.700000
v 0.314633 0.500000 -0.700000
v 0.176653 0.000000 -0.700000
v 0.156681 0.000000 -0.700000
v 0.009986 0.000000 -0.700000
v -0.009986 0.000000 -0.700000
v -0.156681 0.000000 -0.700000
v -0.176653 0.000000 -0.700000
v -0.176653 0.500000 -0.700000
v -0.156681 0.500000 -0.700000
v -0.009986 0.500000 -0.700000
v 0.009986 0.500000 -0.700000
v 0.156681 0.500000 -0.700000
v 0.176653 0.500000 -0.700000
v 0.314633 0.386605 -0.700000
v -0.156681 0.135250 -0.700000
v -0.156681 0.386605 -0.700000
v -0.176653 0.386605 -0.700000
v -0.176653 0.135250 -0.700000
v 0.009986 0.135250 -0.700000
v 0.009986 0.386605 -0.700000
v -0.009986 0.386605 -0.700000
v -0.009986 0.135250 -0.700000
v 0.176653 0.135250 -0.700000
v 0.176653 0.386605 -0.700000
v 0.156681 0.386605 -0.700000
v 0.156681 0.135250 -0.700000
vt 0.670174 0.800123
vt 0.732743 0.800123
vt 0.732743 0.866680
vt 0.670174 0.866680
vt 0.732743 0.933237
vt 0.799300 0.933237
vt 0.799300 0.999794
vt 0.732743 0.999794
vt 0.399959 0.933237
vt 0.466516 0.933237
vt 0.466516 0.999794
vt 0.399959 0.999794
vt 0.529085 0.933237
vt 0.529085 0.999794
vt 0.537060 0.933237
vt 0.595642 0.933237
vt 0.595642 0.999794
vt 0.537060 0.999794
vt 0.603617 0.933237
vt 0.662199 0.933237
vt 0.662199 0.999794
vt 0.603617 0.999794
vt 0.670174 0.933237
vt 0.670174 0.999794
vt 0.662199 0.866680
vt 0.662199 0.800123
vt 0.603617 0.800123
vt 0.603617 0.866680
vt 0.595642 0.866680
vt 0.595642 0.800123
vt 0.537060 0.800123
vt 0.537060 0.866680
vt 0.529085 0.866680
vt 0.529085 0.800123
vt 0.466516 0.800123
vt 0.466516 0.866680
vt 0.399959 0.800124
vt 0.399959 0.866680
vt 0.799300 0.800124
vt 0.799300 0.866680
vn -0.0000 0.0000 1.0000
s off
f 76/61/6 65/62/6 66/63/6 97/64/6
f 88/65/6 71/66/6 64/67/6 75/68/6
f 74/69/6 67/70/6 73/71/6 63/72/6
f 67/70/6 91/73/6 82/74/6 73/71/6
f 90/75/6 95/76/6 84/77/6 83/78/6
f 94/79/6 99/80/6 86/81/6 85/82/6
f 90/75/6 83/78/6 82/74/6 91/73/6
f 94/79/6 85/82/6 84/77/6 95/76/6
f 98/83/6 87/84/6 86/81/6 99/80/6
f 98/83/6 88/65/6 75/68/6 87/84/6
f 76/61/6 97/64/6 100/85/6 77/86/6
f 97/64/6 98/83/6 99/80/6 100/85/6
f 78/87/6 93/88/6 96/89/6 79/90/6
f 93/88/6 94/79/6 95/76/6 96/89/6
f 80/91/6 89/92/6 92/93/6 81/94/6
f 89/92/6 90/75/6 91/73/6 92/93/6
f 78/87/6 77/86/6 100/85/6 93/88/6
f 80/91/6 79/90/6 96/89/6 89/92/6
f 69/95/6 81/94/6 92/93/6 68/96/6
f 62/97/6 69/95/6 68/96/6 72/98/6
f 72/98/6 68/96/6 67/70/6 74/69/6
f 65/62/6 61/99/6 70/100/6 66/63/6
f 66/63/6 70/100/6 71/66/6 88/65/6
