# Blender v2.79 (sub 0) OBJ File: 'room.blend'
# www.blender.org
o Cube
v -0.166667 0.000000 0.700000
v 0.000000 0.000000 0.700000
v 0.166667 0.000000 0.700000
v 0.333333 0.000000 0.700000
v -0.500000 0.600000 0.700000
v 0.500000 0.600000 0.700000
v -0.500000 0.000000 0.700000
v 0.500000 0.000000 0.700000
v 0.500000 0.000000 -0.700000
v -0.500000 0.000000 -0.700000
v 0.500000 0.600000 -0.700000
v -0.500000 0.600000 -0.700000
v 0.333333 0.000000 -0.700000
v 0.166667 0.000000 -0.700000
v 0.000000 0.000000 -0.700000
v -0.166667 0.000000 -0.700000
v -0.333333 0.000000 -0.700000
v 0.333333 0.600000 -0.700000
v 0.166667 0.600000 -0.700000
v 0.000000 0.600000 -0.700000
v -0.166667 0.600000 -0.700000
v -0.333333 0.600000 -0.700000
v 0.500000 0.166302 -0.700000
v 0.500000 0.461673 -0.700000
v -0.500000 0.166302 -0.700000
v -0.500000 0.461673 -0.700000
v 0.312332 0.456395 -0.700000
v 0.354335 0.456395 -0.700000
v 0.333333 0.477397 -0.700000
v 0.354335 0.166301 -0.700000
v 0.312332 0.166301 -0.700000
v 0.333333 0.145300 -0.700000
v 0.145665 0.456395 -0.700000
v 0.187669 0.456395 -0.700000
v 0.166667 0.477397 -0.700000
v 0.187669 0.166301 -0.700000
v 0.145665 0.166301 -0.700000
v 0.166667 0.145300 -0.700000
v -0.021002 0.456395 -0.700000
v 0.021002 0.456395 -0.700000
v 0.000000 0.477397 -0.700000
v 0.021002 0.166301 -0.700000
v -0.021002 0.166301 -0.700000
v 0.000000 0.145300 -0.700000
v -0.187668 0.456395 -0.700000
v -0.145665 0.456395 -0.700000
v -0.166667 0.477397 -0.700000
v -0.145665 0.166301 -0.700000
v -0.187668 0.166301 -0.700000
v -0.166667 0.145300 -0.700000
v -0.354335 0.456395 -0.700000
v -0.312331 0.456395 -0.700000
v -0.333333 0.477397 -0.700000
v -0.312331 0.166301 -0.700000
v -0.354335 0.166301 -0.700000
v -0.333333 0.145300 -0.700000
v -0.333333 0.000000 0.700000
v 0.333333 0.600000 0.700000
v 0.166667 0.600000 0.700000
v 0.000000 0.600000 0.700000
v -0.166667 0.600000 0.700000
v -0.333333 0.600000 0.700000
v 0.500000 0.166302 0.700000
v 0.500000 0.461673 0.700000
v -0.500000 0.166302 0.700000
v -0.500000 0.461673 0.700000
v -0.333333 0.461673 0.700000
v -0.333333 0.166302 0.700000
v -0.166667 0.461673 0.700000
v -0.166667 0.166302 0.700000
v 0.000000 0.461673 0.700000
v 0.000000 0.166302 0.700000
v 0.166667 0.461673 0.700000
v 0.166667 0.166302 0.700000
v 0.333333 0.461673 0.700000
v 0.333333 0.166302 0.700000
v -0.490000 -0.000000 -0.690000
v -0.490000 0.470000 -0.690000
v -0.373128 -0.000000 -0.690000
v -0.373128 0.470000 -0.690000
v -0.113046 0.106044 -0.457175
v -0.113046 -0.000000 -0.457175
v -0.113046 0.106044 -0.327941
v -0.113046 -0.000000 -0.327941
v 0.113046 -0.000000 -0.327941
v 0.113046 0.106044 -0.327941
v 0.113046 -0.000000 -0.457175
v 0.113046 0.106044 -0.457175
v -0.092093 0.066764 -0.053974
v -0.092093 -0.000000 -0.053974
v -0.092093 0.066764 0.313373
v -0.092093 -0.000000 0.313373
v 0.092093 -0.000000 0.313373
v 0.092093 0.066764 0.313373
v 0.092093 -0.000000 -0.053974
v 0.092093 0.066764 -0.053974
v -0.276534 0.055489 -0.025544
v -0.276534 -0.000000 -0.025544
v -0.276534 0.055489 0.284943
v -0.276534 -0.000000 0.284943
v -0.153921 -0.000000 0.284943
v -0.153921 0.052379 0.284943
v -0.153921 -0.000000 -0.025544
v -0.153921 0.052379 -0.025544
v -0.220469 -0.000000 -0.025544
v -0.220469 0.052379 -0.025544
v -0.220469 -0.000000 0.284943
v -0.220469 0.052379 0.284943
v -0.287017 0.144103 0.284943
v -0.287017 0.144103 -0.025544
v -0.242177 0.144103 0.284943
v -0.242177 0.144103 -0.025544
v 0.267522 0.055489 0.284943
v 0.267522 -0.000000 0.284943
v 0.267522 0.055489 -0.025544
v 0.267522 -0.000000 -0.025544
v 0.144909 -0.000000 -0.025544
v 0.144909 0.052379 -0.025544
v 0.144909 -0.000000 0.284943
v 0.144909 0.052379 0.284943
v 0.211457 -0.000000 0.284943
v 0.211457 0.052379 0.284943
v 0.211457 -0.000000 -0.025544
v 0.211457 0.052379 -0.025544
v 0.278005 0.144103 -0.025544
v 0.278005 0.144103 0.284943
v 0.233164 0.144103 -0.025544
v 0.233164 0.144103 0.284943
v -0.070389 0.055489 0.488567
v -0.070389 -0.000000 0.488567
v 0.068220 0.055489 0.488567
v 0.068220 -0.000000 0.488567
v 0.068220 -0.000000 0.366228
v 0.068220 0.052379 0.366228
v -0.070389 -0.000000 0.366228
v -0.070389 0.052379 0.366228
v -0.070389 -0.000000 0.432776
v -0.070389 0.052379 0.432776
v 0.068220 -0.000000 0.432776
v 0.068220 0.052379 0.432776
v 0.068220 0.144103 0.499325
v -0.070389 0.144103 0.499325
v 0.068220 0.144103 0.454484
v -0.070389 0.144103 0.454484
v 0.072528 0.055489 -0.621250
v 0.072528 -0.000000 -0.621250
v -0.066081 0.055489 -0.621250
v -0.066081 -0.000000 -0.621250
v -0.066081 -0.000000 -0.500060
v -0.066081 0.052379 -0.500060
v 0.072528 -0.000000 -0.500060
v 0.072528 0.052379 -0.500060
v 0.072528 -0.000000 -0.566608
v 0.072528 0.052379 -0.566608
v -0.066081 -0.000000 -0.566608
v -0.066081 0.052379 -0.566608
v -0.066081 0.144103 -0.633156
v 0.072528 0.144103 -0.633157
v -0.066081 0.144103 -0.588316
v 0.072528 0.144103 -0.588316
v -0.373128 0.470000 -0.310015
v -0.490000 -0.000000 0.069970
v -0.490000 0.470000 0.069970
v -0.373128 -0.000000 0.069970
v -0.373128 0.470000 0.069970
v -0.373128 -0.000000 -0.310015
v -0.490000 0.470000 -0.310015
v -0.490000 -0.000000 -0.310015
vn 0.0000 1.0000 0.0000
vn -1.0000 0.0000 0.0000
vn 0.0000 -0.0000 1.0000
vn 1.0000 0.0000 0.0000
vn 0.0000 -1.0000 0.0000
vn 0.0000 0.0000 -1.0000
vn -0.9983 -0.0588 0.0000
vn 0.9731 0.2303 0.0000
vn -0.9931 -0.1175 0.0000
vn 0.9983 -0.0588 0.0000
vn -0.9731 0.2303 -0.0000
vn 0.9931 -0.1175 0.0000
vn 0.0000 -0.0604 0.9982
vn -0.0000 0.2303 -0.9731
vn 0.0000 -0.1205 0.9927
vn -0.0000 -0.0667 -0.9978
vn 0.0000 0.2303 0.9731
vn -0.0000 -0.1332 -0.9911
s 1
f 16//1 17//1 57//1 1//1
f 24//2 23//2 63//2 64//2
f 17//1 10//1 7//1 57//1
f 15//1 16//1 1//1 2//1
f 23//2 9//2 8//2 63//2
f 19//3 20//3 41//3 40//3 33//3 35//3
f 23//3 30//3 32//3 13//3 9//3
f 20//3 21//3 47//3 46//3 39//3 41//3
f 21//3 22//3 53//3 52//3 45//3 47//3
f 22//3 12//3 26//3 51//3 53//3
f 50//3 49//3 54//3 56//3 17//3 16//3
f 44//3 43//3 48//3 50//3 16//3 15//3
f 38//3 37//3 42//3 44//3 15//3 14//3
f 24//3 28//3 30//3 23//3
f 32//3 31//3 36//3 38//3 14//3 13//3
f 18//3 19//3 35//3 34//3 27//3 29//3
f 51//3 26//3 25//3 55//3
f 56//3 55//3 25//3 10//3 17//3
f 27//3 28//3 29//3
f 30//3 31//3 32//3
f 33//3 34//3 35//3
f 36//3 37//3 38//3
f 39//3 40//3 41//3
f 42//3 43//3 44//3
f 45//3 46//3 47//3
f 48//3 49//3 50//3
f 51//3 52//3 53//3
f 54//3 55//3 56//3
f 27//3 31//3 30//3 28//3
f 33//3 37//3 36//3 34//3
f 39//3 43//3 42//3 40//3
f 45//3 49//3 48//3 46//3
f 51//3 55//3 54//3 52//3
f 11//3 18//3 29//3 28//3 24//3
f 11//2 24//2 64//2 6//2
f 10//4 25//4 65//4 7//4
f 18//5 11//5 6//5 58//5
f 26//4 12//4 5//4 66//4
f 25//4 26//4 66//4 65//4
f 19//5 18//5 58//5 59//5
f 12//5 22//5 62//5 5//5
f 20//5 19//5 59//5 60//5
f 9//1 13//1 4//1 8//1
f 21//5 20//5 60//5 61//5
f 13//1 14//1 3//1 4//1
f 22//5 21//5 61//5 62//5
f 14//1 15//1 2//1 3//1
f 76//6 63//6 8//6 4//6
f 75//6 64//6 63//6 76//6
f 62//6 67//6 66//6 5//6
f 66//6 67//6 68//6 65//6
f 61//6 69//6 67//6 62//6
f 65//6 68//6 57//6 7//6
f 67//6 69//6 70//6 68//6
f 58//6 6//6 64//6 75//6
f 68//6 70//6 1//6 57//6
f 69//6 71//6 72//6 70//6
f 61//6 60//6 71//6 69//6
f 70//6 72//6 2//6 1//6
f 71//6 73//6 74//6 72//6
f 60//6 59//6 73//6 71//6
f 72//6 74//6 3//6 2//6
f 73//6 75//6 76//6 74//6
f 59//6 58//6 75//6 73//6
f 74//6 76//6 4//6 3//6
f 77//5 79//5 166//5 168//5
f 77//6 78//6 80//6 79//6
f 161//4 166//4 79//4 80//4
f 84//2 83//2 81//2 82//2
f 82//6 81//6 88//6 87//6
f 87//4 88//4 86//4 85//4
f 85//3 86//3 83//3 84//3
f 82//5 87//5 85//5 84//5
f 88//1 81//1 83//1 86//1
f 92//2 91//2 89//2 90//2
f 90//6 89//6 96//6 95//6
f 95//4 96//4 94//4 93//4
f 93//3 94//3 91//3 92//3
f 90//5 95//5 93//5 92//5
f 96//1 89//1 91//1 94//1
f 100//2 99//7 97//7 98//2
f 105//6 106//6 104//6 103//6
f 103//4 104//4 102//4 101//4
f 107//3 108//3 99//3 100//3
f 105//5 103//5 101//5 107//5
f 106//6 97//6 110//6 112//6
f 104//1 106//1 108//1 102//1
f 98//5 105//5 107//5 100//5
f 101//3 102//3 108//3 107//3
f 98//6 97//6 106//6 105//6
f 112//1 110//1 109//1 111//1
f 99//3 108//3 111//3 109//3
f 108//8 106//8 112//8 111//8
f 97//7 99//7 109//9 110//9
f 116//4 115//10 113//10 114//4
f 121//3 122//3 120//3 119//3
f 119//2 120//2 118//2 117//2
f 123//6 124//6 115//6 116//6
f 121//5 119//5 117//5 123//5
f 122//3 113//3 126//3 128//3
f 120//1 122//1 124//1 118//1
f 114//5 121//5 123//5 116//5
f 117//6 118//6 124//6 123//6
f 114//3 113//3 122//3 121//3
f 128//1 126//1 125//1 127//1
f 115//6 124//6 127//6 125//6
f 124//11 122//11 128//11 127//11
f 113//10 115//10 125//12 126//12
f 132//3 131//13 129//13 130//3
f 137//2 138//2 136//2 135//2
f 135//6 136//6 134//6 133//6
f 139//4 140//4 131//4 132//4
f 137//5 135//5 133//5 139//5
f 138//2 129//2 142//2 144//2
f 136//1 138//1 140//1 134//1
f 130//5 137//5 139//5 132//5
f 133//4 134//4 140//4 139//4
f 130//2 129//2 138//2 137//2
f 144//1 142//1 141//1 143//1
f 131//4 140//4 143//4 141//4
f 140//14 138//14 144//14 143//14
f 129//13 131//13 141//15 142//15
f 148//6 147//16 145//16 146//6
f 153//4 154//4 152//4 151//4
f 151//3 152//3 150//3 149//3
f 155//2 156//2 147//2 148//2
f 153//5 151//5 149//5 155//5
f 154//4 145//4 158//4 160//4
f 152//1 154//1 156//1 150//1
f 146//5 153//5 155//5 148//5
f 149//2 150//2 156//2 155//2
f 146//4 145//4 154//4 153//4
f 160//1 158//1 157//1 159//1
f 147//2 156//2 159//2 157//2
f 156//17 154//17 160//17 159//17
f 145//16 147//16 157//18 158//18
f 80//1 78//1 167//1 161//1
f 78//2 77//2 168//2 167//2
f 161//1 167//1 163//1 165//1
f 165//4 164//4 166//4 161//4
f 168//5 166//5 164//5 162//5
f 164//3 165//3 163//3 162//3
f 167//2 168//2 162//2 163//2
