# Blender v2.79 (sub 0) OBJ File: 'bird.blend'
# www.blender.org
o seagull.007_Cube.007
v 0.014744 0.303941 0.154000
v 0.000000 0.291910 0.181194
v 0.000000 0.308969 0.164305
v -0.014744 0.303941 0.154000
vt 0.599940 0.119683
vt 0.592676 0.127924
vt 0.580369 0.116514
vt 0.599940 0.119683
vn 0.5930 0.5665 0.5722
vn 0.0000 0.7035 0.7106
vn -0.5930 0.5665 0.5722
s 1
f 1/1/1 3/2/2 2/3/2
f 4/4/3 2/3/2 3/2/2
o seagull.006_Cube.006
v 0.014744 0.303941 0.154000
v 0.000000 0.291910 0.181194
v -0.014744 0.303941 0.154000
v 0.000000 0.293831 0.152446
vt 0.598228 0.109336
vt 0.599940 0.119683
vt 0.580369 0.116514
vt 0.599940 0.119683
vn 0.0000 -0.9978 -0.0667
vn 0.5686 -0.8208 -0.0548
vn -0.5686 -0.8208 -0.0548
s 1
f 8/5/4 5/6/5 6/7/4
f 8/5/4 6/7/4 7/8/6
o seagull.005_Cube.005
v 0.018552 0.326666 0.143217
v 0.021565 0.322418 0.144909
v 0.019913 0.319420 0.149184
v 0.018699 0.325823 0.149698
v 0.015249 0.320671 0.151767
v 0.012236 0.324919 0.150074
v 0.013888 0.327917 0.145800
v 0.015830 0.323634 0.139135
v 0.019231 0.318838 0.141046
v 0.017366 0.315453 0.145872
v 0.012100 0.316865 0.148788
v 0.008699 0.321662 0.146877
v 0.010564 0.325047 0.142051
v -0.018552 0.326666 0.143217
v -0.021565 0.322418 0.144909
v -0.019913 0.319420 0.149184
v -0.018699 0.325823 0.149698
v -0.015249 0.320671 0.151767
v -0.012236 0.324919 0.150074
v -0.013888 0.327917 0.145800
v -0.015830 0.323634 0.139135
v -0.019231 0.318838 0.141046
v -0.017366 0.315453 0.145872
v -0.012100 0.316865 0.148788
v -0.008699 0.321662 0.146877
v -0.010564 0.325047 0.142051
vt 0.096083 0.930727
vt 0.102010 0.901323
vt 0.114639 0.894651
vt 0.140129 0.916973
vt 0.102856 0.886979
vt 0.114743 0.881444
vt 0.150596 0.864797
vt 0.104577 0.873076
vt 0.104067 0.839362
vt 0.091395 0.878376
vt 0.065193 0.864010
vt 0.089068 0.893355
vt 0.065193 0.904543
vt 0.096083 0.930727
vt 0.140129 0.916973
vt 0.114639 0.894651
vt 0.102010 0.901323
vt 0.102856 0.886979
vt 0.150596 0.864797
vt 0.114743 0.881444
vt 0.104067 0.839362
vt 0.104577 0.873076
vt 0.065193 0.864010
vt 0.091395 0.878376
vt 0.065193 0.904543
vt 0.089068 0.893355
vn -0.4801 0.8482 -0.2238
vn -0.2394 0.9706 0.0251
vn 0.5071 0.7675 -0.3921
vn 0.3584 0.6190 -0.6988
vn 0.5039 0.6035 0.6179
vn 0.9889 0.0829 -0.1231
vn 0.9031 -0.1574 -0.3995
vn 0.7237 -0.3984 0.5635
vn 0.6026 -0.7027 0.3783
vn -0.0232 -0.1950 0.9805
vn -0.2401 -0.4674 0.8508
vn -0.5045 0.4895 0.7112
vn -0.7781 0.3071 0.5479
vn 0.4801 0.8482 -0.2238
vn -0.3584 0.6190 -0.6988
vn -0.5071 0.7675 -0.3921
vn 0.2394 0.9706 0.0251
vn -0.5039 0.6035 0.6179
vn -0.9031 -0.1574 -0.3995
vn -0.9889 0.0829 -0.1231
vn -0.6026 -0.7027 0.3783
vn -0.7237 -0.3984 0.5635
vn 0.2401 -0.4674 0.8508
vn 0.0232 -0.1950 0.9805
vn 0.7781 0.3071 0.5479
vn 0.5045 0.4895 0.7112
s 1
f 21/9/7 15/10/8 9/11/9 16/12/10
f 15/10/8 12/13/11 9/11/9
f 16/12/10 9/11/9 10/14/12 17/15/13
f 9/11/9 12/13/11 10/14/12
f 17/15/13 10/14/12 11/16/14 18/17/15
f 10/14/12 12/13/11 11/16/14
f 18/17/15 11/16/14 13/18/16 19/19/17
f 11/16/14 12/13/11 13/18/16
f 19/19/17 13/18/16 14/20/18 20/21/19
f 13/18/16 12/13/11 14/20/18
f 20/21/19 14/20/18 15/10/8 21/9/7
f 14/20/18 12/13/11 15/10/8
f 34/22/20 29/23/21 22/24/22 28/25/23
f 28/25/23 22/24/22 25/26/24
f 29/23/21 30/27/25 23/28/26 22/24/22
f 22/24/22 23/28/26 25/26/24
f 30/27/25 31/29/27 24/30/28 23/28/26
f 23/28/26 24/30/28 25/26/24
f 31/29/27 32/31/29 26/32/30 24/30/28
f 24/30/28 26/32/30 25/26/24
f 32/31/29 33/33/31 27/34/32 26/32/30
f 26/32/30 27/34/32 25/26/24
f 33/33/31 34/22/20 28/25/23 27/34/32
f 27/34/32 28/25/23 25/26/24
o seagull.004_Cube.004
v 0.027594 0.198522 -0.070533
v 0.036791 0.152617 -0.030828
v 0.023503 0.317960 0.090613
v 0.032157 0.294009 0.110734
v 0.036344 0.278870 0.026749
v 0.052724 0.188539 0.053554
v 0.050464 0.173489 -0.048779
v 0.037066 0.303993 0.102751
v 0.060227 0.232210 0.039095
v 0.014043 0.327392 0.144359
v 0.017546 0.306227 0.148832
v 0.022015 0.317712 0.150281
v 0.018773 0.329321 0.110519
v 0.032336 0.315354 0.122657
v 0.026998 0.303012 0.130640
v 0.014744 0.303941 0.154000
v -0.027594 0.198522 -0.070533
v -0.036791 0.152617 -0.030828
v -0.023503 0.317960 0.090613
v -0.032157 0.294009 0.110734
v 0.000000 0.201017 -0.081202
v 0.000000 0.143562 -0.023217
v 0.000000 0.320690 0.088489
v 0.000000 0.287295 0.117012
v -0.036344 0.278870 0.026749
v -0.052724 0.188539 0.053554
v 0.000000 0.286419 0.025598
v 0.000000 0.169503 0.071711
v -0.050464 0.173489 -0.048779
v -0.037066 0.303993 0.102751
v 0.000000 0.143452 -0.190026
v -0.060227 0.232210 0.039095
v -0.014043 0.327392 0.144359
v -0.017546 0.306227 0.148832
v 0.000000 0.330980 0.148452
v -0.022015 0.317712 0.150281
v 0.000000 0.316855 0.156497
v -0.018773 0.329321 0.110519
v -0.032336 0.315354 0.122657
v -0.026998 0.303012 0.130640
v 0.000000 0.296522 0.136705
v 0.000000 0.332052 0.108395
v 0.000000 0.308969 0.164305
v -0.014744 0.303941 0.154000
v 0.000000 0.293831 0.152446
vt 0.835735 0.118740
vt 0.795812 0.137533
vt 0.792966 0.131482
vt 0.830688 0.106185
vt 0.843493 0.139046
vt 0.877554 0.123122
vt 0.889932 0.128944
vt 0.848790 0.155748
vt 0.782527 0.117736
vt 0.823768 0.081335
vt 0.773076 0.124474
vt 0.782147 0.134360
vt 0.772192 0.135901
vt 0.766073 0.134910
vt 0.764891 0.127764
vt 0.869113 0.112801
vt 0.867987 0.102678
vt 0.874324 0.087573
vt 0.889932 0.105214
vt 0.798450 0.147987
vt 0.798438 0.159567
vt 0.785729 0.140455
vt 0.788341 0.149744
vt 0.774596 0.146386
vt 0.774196 0.140922
vt 0.764985 0.144245
vt 0.761056 0.140602
vt 0.769580 0.151036
vt 0.786925 0.158414
vt 0.835735 0.118740
vt 0.830688 0.106185
vt 0.792966 0.131482
vt 0.795812 0.137533
vt 0.843493 0.139046
vt 0.877554 0.123122
vt 0.766073 0.134910
vt 0.772192 0.135901
vt 0.782147 0.134360
vt 0.869113 0.112801
vt 0.867987 0.102678
vt 0.798450 0.147987
vt 0.785729 0.140455
vt 0.774196 0.140922
vt 0.774596 0.146386
vt 0.788341 0.149744
vn 0.9929 0.1186 0.0021
vn 0.9604 0.2654 0.0848
vn 0.7450 -0.3587 0.5624
vn 0.7288 -0.5190 0.4466
vn 0.5984 0.6727 -0.4350
vn 0.5868 0.6356 -0.5016
vn 0.0000 0.7993 -0.6009
vn 0.0000 0.8287 -0.5597
vn 0.0000 -0.6835 0.7299
vn 0.0000 -0.7384 0.6743
vn 0.0000 -0.9610 0.2764
vn 0.7147 -0.5781 0.3937
vn 0.7184 -0.4589 0.5228
vn 0.6345 -0.3999 0.6614
vn 0.0000 -0.9928 0.1200
vn 0.9540 -0.1684 -0.2477
vn 0.6435 -0.7626 0.0659
vn 0.0000 -0.9901 0.1399
vn 0.0000 -0.2987 -0.9543
vn 0.5419 0.7642 -0.3496
vn 0.0000 0.8749 -0.4843
vn 0.9272 0.3218 0.1914
vn 0.4623 0.8734 -0.1532
vn 0.4106 0.8252 0.3878
vn 0.7095 0.3512 0.6110
vn 0.0000 0.4203 0.9073
vn 0.0000 0.2753 0.9613
vn 0.0000 0.8597 0.5108
vn 0.0000 0.9717 -0.2362
vn -0.9929 0.1186 0.0021
vn -0.7288 -0.5190 0.4466
vn -0.7450 -0.3587 0.5624
vn -0.9604 0.2654 0.0848
vn -0.5984 0.6727 -0.4350
vn -0.5868 0.6356 -0.5016
vn -0.6345 -0.3999 0.6614
vn -0.7184 -0.4589 0.5228
vn -0.7147 -0.5781 0.3937
vn -0.9540 -0.1684 -0.2477
vn -0.6435 -0.7626 0.0659
vn -0.5419 0.7642 -0.3496
vn -0.9272 0.3218 0.1914
vn -0.7095 0.3512 0.6110
vn -0.4106 0.8252 0.3878
vn -0.4623 0.8734 -0.1532
s 1
f 43/35/33 42/36/34 38/37/35 40/38/36
f 39/39/37 35/40/38 55/41/39 61/42/40
f 40/38/36 38/37/35 58/43/41 62/44/42
f 75/45/43 49/46/44 45/47/45 50/48/46 79/49/47
f 41/50/48 36/51/49 56/52/50 65/53/51
f 36/51/49 40/38/36 62/44/42 56/52/50
f 37/54/52 39/39/37 61/42/40 57/55/53
f 41/50/48 43/35/33 40/38/36 36/51/49
f 35/40/38 39/39/37 43/35/33 41/50/48
f 35/40/38 41/50/48 65/53/51 55/41/39
f 48/56/54 47/57/55 44/58/56 46/59/57
f 39/39/37 37/54/52 42/36/34 43/35/33
f 46/59/57 71/60/58 77/61/59 50/48/46 45/47/45
f 44/58/56 69/62/60 71/60/58 46/59/57
f 49/46/44 48/56/54 46/59/57 45/47/45
f 47/57/55 76/63/61 69/62/60 44/58/56
f 37/54/52 57/55/53 76/63/61 47/57/55
f 38/37/35 42/36/34 48/56/54 49/46/44
f 42/36/34 37/54/52 47/57/55 48/56/54
f 58/43/41 38/37/35 49/46/44 75/45/43
f 66/64/62 60/65/63 54/66/64 64/67/65
f 59/68/66 61/42/40 55/41/39 51/69/67
f 60/65/63 62/44/42 58/43/41 54/66/64
f 75/45/43 79/49/47 78/70/68 68/71/69 74/72/70
f 63/73/71 65/53/51 56/52/50 52/74/72
f 52/74/72 56/52/50 62/44/42 60/65/63
f 53/75/73 57/55/53 61/42/40 59/68/66
f 63/73/71 52/74/72 60/65/63 66/64/62
f 51/69/67 63/73/71 66/64/62 59/68/66
f 51/69/67 55/41/39 65/53/51 63/73/71
f 73/76/74 70/77/75 67/78/76 72/79/77
f 59/68/66 66/64/62 64/67/65 53/75/73
f 70/77/75 68/71/69 78/70/68 77/61/59 71/60/58
f 67/78/76 70/77/75 71/60/58 69/62/60
f 74/72/70 68/71/69 70/77/75 73/76/74
f 72/79/77 67/78/76 69/62/60 76/63/61
f 53/75/73 72/79/77 76/63/61 57/55/53
f 54/66/64 74/72/70 73/76/74 64/67/65
f 64/67/65 73/76/74 72/79/77 53/75/73
f 58/43/41 75/45/43 74/72/70 54/66/64
o seagull.003_Cube.003
v 0.025687 -0.000000 0.010000
v 0.030000 -0.000000 -0.006334
v 0.051169 -0.000000 0.016358
v 0.009186 -0.000000 0.016153
v 0.030000 -0.000000 0.030445
v 0.034492 -0.000000 0.010000
v -0.025687 -0.000000 0.010000
v -0.030000 -0.000000 -0.006334
v -0.051169 -0.000000 0.016358
v -0.009186 -0.000000 0.016153
v -0.030000 -0.000000 0.030445
v -0.034492 -0.000000 0.010000
vt 0.554223 0.067462
vt 0.675206 0.067462
vt 0.000000 0.000000
vt 0.554223 0.067462
vt 0.675206 0.067462
vt 0.675206 0.188444
vt 0.554223 0.067462
vt 0.675206 0.067462
vt 0.675206 0.188444
vt 0.554223 0.067462
vt 0.000000 0.000000
vt 0.675206 0.067462
vt 0.554223 0.067462
vt 0.675206 0.188444
vt 0.675206 0.067462
vt 0.554223 0.067462
vt 0.675206 0.188444
vt 0.675206 0.067462
vn 0.0000 -1.0000 0.0000
s 1
f 80/80/78 85/81/78 84/82/78
f 85/83/78 81/84/78 82/85/78
f 81/86/78 80/87/78 83/88/78
f 80/80/78 81/84/78 85/81/78
f 86/89/78 90/90/78 91/91/78
f 91/92/78 88/93/78 87/94/78
f 87/95/78 89/96/78 86/97/78
f 86/89/78 91/91/78 87/94/78
o seagull.002_Cube.002
v 0.025687 -0.000000 0.010000
v 0.030000 0.200000 0.010000
v 0.030000 -0.000000 -0.006334
v 0.021340 0.200000 -0.005000
v 0.038660 0.200000 -0.005000
v 0.024414 0.015000 -0.003225
v 0.035586 0.015000 -0.003225
v 0.030000 0.015000 0.006450
v 0.051169 -0.000000 0.016358
v 0.009186 -0.000000 0.016153
v 0.030000 -0.000000 0.030445
v 0.031778 0.107500 0.014448
v 0.024655 0.107500 0.002110
v 0.038901 0.107500 0.002110
v 0.034492 -0.000000 0.010000
v -0.025687 -0.000000 0.010000
v -0.030000 0.200000 0.010000
v -0.030000 -0.000000 -0.006334
v -0.021340 0.200000 -0.005000
v -0.038660 0.200000 -0.005000
v -0.024414 0.015000 -0.003225
v -0.035586 0.015000 -0.003225
v -0.030000 0.015000 0.006450
v -0.051169 -0.000000 0.016358
v -0.009186 -0.000000 0.016153
v -0.030000 -0.000000 0.030445
v -0.031778 0.107500 0.014448
v -0.024655 0.107500 0.002110
v -0.038901 0.107500 0.002110
v -0.034492 -0.000000 0.010000
vt 0.554223 0.067462
vt 0.675206 0.067462
vt 0.675206 0.188444
vt 0.554223 0.067462
vt 0.675206 0.067462
vt 0.675206 0.188444
vt 0.554223 0.067462
vt 0.675206 0.067462
vt 0.675206 0.188444
vt 0.554223 0.188444
vt 0.675206 0.067462
vt 0.554223 0.067462
vt 0.592175 0.058907
vt 0.554223 0.067462
vt 0.675206 0.188444
vt 0.554223 0.067462
vt 0.675206 0.067462
vt 0.675206 0.188444
vt 0.554223 0.188444
vt 0.554223 0.067462
vt 0.675206 0.067462
vt 0.675206 0.188444
vt 0.554223 0.188444
vt 0.554223 0.067462
vt 0.675206 0.067462
vt 0.675206 0.067462
vt 0.675206 0.188444
vt 0.554223 0.188444
vt 0.675206 0.188444
vt 0.554223 0.188444
vt 0.675206 0.188444
vt 0.554223 0.188444
vt 0.554223 0.067462
vt 0.675206 0.188444
vt 0.675206 0.067462
vt 0.554223 0.067462
vt 0.675206 0.188444
vt 0.675206 0.067462
vt 0.554223 0.067462
vt 0.554223 0.188444
vt 0.675206 0.188444
vt 0.675206 0.067462
vt 0.675206 0.067462
vt 0.592175 0.058907
vt 0.554223 0.067462
vt 0.554223 0.067462
vt 0.675206 0.188444
vt 0.554223 0.067462
vt 0.554223 0.188444
vt 0.675206 0.188444
vt 0.675206 0.067462
vt 0.554223 0.067462
vt 0.554223 0.188444
vt 0.675206 0.188444
vt 0.675206 0.067462
vt 0.554223 0.067462
vt 0.675206 0.067462
vt 0.675206 0.067462
vt 0.554223 0.188444
vt 0.675206 0.188444
vt 0.554223 0.188444
vt 0.675206 0.188444
vt 0.554223 0.188444
vt 0.675206 0.188444
vn -0.0014 -0.0734 -0.9973
vn -0.7844 0.2192 -0.5803
vn 0.7833 0.2078 -0.5859
vn 0.4989 0.6091 0.6165
vn 0.4050 0.8524 0.3307
vn 0.8842 -0.0193 -0.4668
vn -0.8795 -0.0196 -0.4755
vn -0.8509 -0.0705 -0.5204
vn 0.8467 -0.0386 -0.5307
vn -0.0090 0.4283 0.9036
vn -0.0010 0.7464 0.6655
vn -0.5099 0.6031 0.6134
vn -0.4097 0.8485 0.3348
vn 0.0100 -0.0184 0.9998
vn -0.0110 0.0478 0.9988
vn 0.0014 -0.0734 -0.9973
vn -0.7833 0.2078 -0.5859
vn 0.7844 0.2192 -0.5803
vn -0.4050 0.8524 0.3307
vn -0.4989 0.6091 0.6165
vn -0.8842 -0.0193 -0.4668
vn -0.8467 -0.0386 -0.5307
vn 0.8509 -0.0705 -0.5204
vn 0.8795 -0.0196 -0.4755
vn 0.0010 0.7464 0.6655
vn 0.0090 0.4283 0.9036
vn 0.5099 0.6031 0.6134
vn 0.4097 0.8485 0.3348
vn 0.0110 0.0478 0.9988
vn -0.0100 -0.0184 0.9998
s 1
f 94/98/79 97/99/80 98/100/81
f 98/101/81 106/102/82 100/103/83
f 105/104/84 104/105/85 95/106/86 96/107/87
f 98/108/81 99/109/88 102/110/89 106/102/82
f 92/111/90 97/99/80 101/112/91
f 104/113/85 103/114/92 93/115/93 95/116/86
f 103/117/92 105/118/84 96/119/87 93/120/93
f 94/98/79 98/108/81 100/103/83
f 97/121/80 94/122/79 101/112/91
f 99/123/88 97/121/80 92/111/90 102/110/89
f 99/109/88 98/108/81 105/124/84 103/125/92
f 97/121/80 99/123/88 103/126/92 104/127/85
f 98/101/81 97/99/80 104/128/85 105/129/84
f 109/130/94 113/131/95 112/132/96
f 113/133/95 115/134/97 121/135/98
f 120/136/99 111/137/100 110/138/101 119/139/102
f 113/140/95 121/135/98 117/141/103 114/142/104
f 107/143/105 116/144/106 112/132/96
f 119/145/102 110/146/101 108/147/107 118/148/108
f 118/149/108 108/150/107 111/151/100 120/152/99
f 109/130/94 115/134/97 113/140/95
f 112/153/96 116/144/106 109/154/94
f 114/155/104 117/141/103 107/143/105 112/153/96
f 114/142/104 118/156/108 120/157/99 113/140/95
f 112/153/96 119/158/102 118/159/108 114/155/104
f 113/133/95 120/160/99 119/161/102 112/132/96
o seagull.001_Cube.001
v 0.030887 0.282879 0.073099
v 0.027536 0.291116 0.067085
v 0.036464 0.229853 -0.012222
v 0.302457 0.333795 0.017187
v 0.300157 0.339448 0.013059
v 0.409294 0.297842 -0.063256
v 0.155236 0.279331 -0.014885
v 0.151366 0.320368 0.056845
v 0.146692 0.331855 0.048459
v -0.030887 0.282879 0.073099
v -0.027536 0.291116 0.067085
v -0.036464 0.229853 -0.012222
v -0.302457 0.333795 0.017187
v -0.300157 0.339448 0.013059
v -0.409294 0.297842 -0.063256
v -0.155236 0.279331 -0.014885
v -0.151366 0.320368 0.056845
v -0.146692 0.331855 0.048459
vt 0.816406 0.113281
vt 0.816406 0.113281
vt 0.816406 0.113281
vt 0.816406 0.113281
vt 0.816406 0.113281
vt 0.816406 0.113281
vt 0.816406 0.113281
vt 0.816406 0.113281
vt 0.816406 0.113281
vt 0.816406 0.113281
vt 0.816406 0.113281
vt 0.816406 0.113281
vt 0.816406 0.113281
vt 0.816406 0.113281
vt 0.816406 0.113281
vt 0.816406 0.113281
vt 0.816406 0.113281
vt 0.816406 0.113281
vn 0.7124 -0.3025 -0.6332
vn 0.1555 0.9842 0.0847
vn 0.4429 -0.0478 0.8953
vn 0.2153 -0.1029 0.9711
vn -0.1637 0.9775 0.1331
vn -0.2869 0.9439 0.1633
vn 0.1929 -0.1678 0.9667
vn 0.0073 -0.5436 -0.8393
vn 0.0258 -0.5918 -0.8057
vn -0.7124 -0.3025 -0.6332
vn -0.4429 -0.0478 0.8953
vn -0.1555 0.9842 0.0847
vn -0.2153 -0.1029 0.9711
vn -0.1929 -0.1678 0.9667
vn 0.2869 0.9439 0.1633
vn 0.1637 0.9775 0.1331
vn -0.0073 -0.5436 -0.8393
vn -0.0258 -0.5918 -0.8057
s 1
f 127/162/109 126/163/110 125/164/111
f 129/165/112 130/166/113 123/167/114 122/168/115
f 128/169/116 127/162/109 125/164/111 129/165/112
f 128/169/116 124/170/117 123/167/114 130/166/113
f 127/162/109 128/169/116 130/166/113 126/163/110
f 124/170/117 128/169/116 129/165/112 122/168/115
f 125/164/111 126/163/110 130/166/113 129/165/112
f 136/171/118 134/172/119 135/173/120
f 138/174/121 131/175/122 132/176/123 139/177/124
f 137/178/125 138/174/121 134/172/119 136/171/118
f 137/178/125 139/177/124 132/176/123 133/179/126
f 136/171/118 135/173/120 139/177/124 137/178/125
f 133/179/126 131/175/122 138/174/121 137/178/125
f 134/172/119 138/174/121 139/177/124 135/173/120
