# Blender v2.79 (sub 0) OBJ File: 'bird.blend'
# www.blender.org
o seagull.007_Cube.021
v 0.014744 0.303941 0.154000
v 0.000000 0.291910 0.181194
v 0.000000 0.308969 0.164305
v -0.014744 0.303941 0.154000
vt 0.599940 0.119683
vt 0.592676 0.127924
vt 0.580369 0.116514
vt 0.599940 0.119683
vn 0.5930 0.5665 0.5722
vn 0.0000 0.7035 0.7106
vn -0.5930 0.5665 0.5722
s 1
f 1/1/1 3/2/2 2/3/2
f 4/4/3 2/3/2 3/2/2
o seagull.006_Cube.020
v 0.014744 0.303941 0.154000
v 0.000000 0.293831 0.152446
v 0.000000 0.291910 0.181194
v -0.014744 0.303941 0.154000
vt 0.598228 0.109336
vt 0.599940 0.119683
vt 0.580369 0.116514
vt 0.599940 0.119683
vn 0.0000 -0.9978 -0.0667
vn 0.5686 -0.8208 -0.0548
vn -0.5686 -0.8208 -0.0548
s 1
f 6/5/4 5/6/5 7/7/4
f 6/5/4 7/7/4 8/8/6
o seagull.005_Cube.019
v 0.030000 -0.000000 0.030445
v 0.022768 -0.000000 0.016782
v 0.009186 -0.000000 0.016153
v 0.037411 -0.000000 0.016782
v 0.030000 0.200000 0.010000
v 0.030000 -0.000000 -0.006334
v 0.021340 0.200000 -0.005000
v 0.038660 0.200000 -0.005000
v 0.024414 0.015000 -0.003225
v 0.035586 0.015000 -0.003225
v 0.030000 0.015000 0.006450
v 0.051169 -0.000000 0.016358
v 0.031778 0.107500 0.014448
v 0.024655 0.107500 0.002110
v 0.038901 0.107500 0.002110
v -0.030000 -0.000000 0.030445
v -0.022768 -0.000000 0.016782
v -0.009186 -0.000000 0.016153
v -0.037411 -0.000000 0.016782
v -0.030000 0.200000 0.010000
v -0.030000 -0.000000 -0.006334
v -0.021340 0.200000 -0.005000
v -0.038660 0.200000 -0.005000
v -0.024414 0.015000 -0.003225
v -0.035586 0.015000 -0.003225
v -0.030000 0.015000 0.006450
v -0.051169 -0.000000 0.016358
v -0.031778 0.107500 0.014448
v -0.024655 0.107500 0.002110
v -0.038901 0.107500 0.002110
vt 0.554223 0.067462
vt 0.675206 0.067462
vt 0.675206 0.188444
vt 0.554223 0.067462
vt 0.675206 0.067462
vt 0.675206 0.188444
vt 0.554223 0.067462
vt 0.675206 0.067462
vt 0.675206 0.188444
vt 0.554223 0.188444
vt 0.675206 0.067462
vt 0.554223 0.067462
vt 0.592175 0.058907
vt 0.554223 0.067462
vt 0.675206 0.188444
vt 0.554223 0.067462
vt 0.675206 0.067462
vt 0.675206 0.188444
vt 0.554223 0.188444
vt 0.554223 0.067462
vt 0.675206 0.067462
vt 0.675206 0.188444
vt 0.554223 0.188444
vt 0.554223 0.067462
vt 0.675206 0.067462
vt 0.675206 0.067462
vt 0.675206 0.188444
vt 0.554223 0.188444
vt 0.675206 0.188444
vt 0.554223 0.188444
vt 0.675206 0.188444
vt 0.554223 0.188444
vt 0.554223 0.067462
vt 0.675206 0.188444
vt 0.675206 0.067462
vt 0.554223 0.067462
vt 0.675206 0.188444
vt 0.675206 0.067462
vt 0.554223 0.067462
vt 0.554223 0.188444
vt 0.675206 0.188444
vt 0.675206 0.067462
vt 0.675206 0.067462
vt 0.592175 0.058907
vt 0.554223 0.067462
vt 0.554223 0.067462
vt 0.675206 0.188444
vt 0.554223 0.067462
vt 0.554223 0.188444
vt 0.675206 0.188444
vt 0.675206 0.067462
vt 0.554223 0.067462
vt 0.554223 0.188444
vt 0.675206 0.188444
vt 0.675206 0.067462
vt 0.554223 0.067462
vt 0.675206 0.067462
vt 0.675206 0.067462
vt 0.554223 0.188444
vt 0.675206 0.188444
vt 0.554223 0.188444
vt 0.675206 0.188444
vt 0.554223 0.188444
vt 0.675206 0.188444
vn -0.0014 -0.0734 -0.9973
vn -0.7574 0.2623 -0.5979
vn 0.7564 0.2509 -0.6040
vn 0.4445 0.7376 0.5082
vn 0.4618 0.8423 0.2777
vn 0.8842 -0.0193 -0.4668
vn -0.8795 -0.0196 -0.4755
vn -0.8509 -0.0705 -0.5204
vn 0.8467 -0.0386 -0.5307
vn -0.0077 0.6201 0.7844
vn -0.0004 0.8436 0.5369
vn -0.4555 0.7326 0.5058
vn -0.4688 0.8377 0.2800
vn 0.0100 -0.0184 0.9998
vn -0.0110 0.0478 0.9988
vn 0.0014 -0.0734 -0.9973
vn -0.7564 0.2509 -0.6040
vn 0.7574 0.2623 -0.5979
vn -0.4618 0.8423 0.2777
vn -0.4445 0.7376 0.5082
vn -0.8842 -0.0193 -0.4668
vn -0.8467 -0.0386 -0.5307
vn 0.8509 -0.0705 -0.5204
vn 0.8795 -0.0196 -0.4755
vn 0.0004 0.8436 0.5369
vn 0.0077 0.6201 0.7844
vn 0.4555 0.7326 0.5058
vn 0.4688 0.8377 0.2800
vn 0.0110 0.0478 0.9988
vn -0.0100 -0.0184 0.9998
s 1
f 14/9/7 17/10/8 18/11/9
f 18/12/9 12/13/10 20/14/11
f 23/15/12 22/16/13 15/17/14 16/18/15
f 18/19/9 19/20/16 9/21/17 12/13/10
f 10/22/18 17/10/8 11/23/19
f 22/24/13 21/25/20 13/26/21 15/27/14
f 21/28/20 23/29/12 16/30/15 13/31/21
f 14/9/7 18/19/9 20/14/11
f 17/32/8 14/33/7 11/23/19
f 19/34/16 17/32/8 10/22/18 9/21/17
f 19/20/16 18/19/9 23/35/12 21/36/20
f 17/32/8 19/34/16 21/37/20 22/38/13
f 18/12/9 17/10/8 22/39/13 23/40/12
f 29/41/22 33/42/23 32/43/24
f 33/44/23 35/45/25 27/46/26
f 38/47/27 31/48/28 30/49/29 37/50/30
f 33/51/23 27/46/26 24/52/31 34/53/32
f 25/54/33 26/55/34 32/43/24
f 37/56/30 30/57/29 28/58/35 36/59/36
f 36/60/36 28/61/35 31/62/28 38/63/27
f 29/41/22 35/45/25 33/51/23
f 32/64/24 26/55/34 29/65/22
f 34/66/32 24/52/31 25/54/33 32/64/24
f 34/53/32 36/67/36 38/68/27 33/51/23
f 32/64/24 37/69/30 36/70/36 34/66/32
f 33/44/23 38/71/27 37/72/30 32/43/24
o seagull.004_Cube.018
v 0.014744 0.303941 0.154000
v 0.027594 0.198522 -0.070533
v 0.036791 0.152617 -0.030828
v 0.023503 0.317960 0.090613
v 0.032157 0.294009 0.110734
v 0.036344 0.278870 0.026749
v 0.052724 0.188539 0.053554
v 0.050464 0.173489 -0.048779
v 0.037066 0.303993 0.102751
v 0.060227 0.232210 0.039095
v 0.014043 0.327392 0.144359
v 0.017546 0.306227 0.148832
v 0.022015 0.317712 0.150281
v 0.018773 0.329321 0.110519
v 0.032336 0.315354 0.122657
v 0.026998 0.303012 0.130640
v 0.000000 0.293831 0.152446
v 0.000000 0.308969 0.164305
v -0.014744 0.303941 0.154000
v -0.027594 0.198522 -0.070533
v -0.036791 0.152617 -0.030828
v -0.023503 0.317960 0.090613
v -0.032157 0.294009 0.110734
v 0.000000 0.201017 -0.081202
v 0.000000 0.143562 -0.023217
v 0.000000 0.320690 0.088489
v 0.000000 0.287295 0.117012
v -0.036344 0.278870 0.026749
v -0.052724 0.188539 0.053554
v 0.000000 0.286419 0.025598
v 0.000000 0.169503 0.071711
v -0.050464 0.173489 -0.048779
v -0.037066 0.303993 0.102751
v 0.000000 0.143452 -0.190026
v -0.060227 0.232210 0.039095
v -0.014043 0.327392 0.144359
v -0.017546 0.306227 0.148832
v 0.000000 0.330980 0.148452
v -0.022015 0.317712 0.150281
v 0.000000 0.316855 0.156497
v -0.018773 0.329321 0.110519
v -0.032336 0.315354 0.122657
v -0.026998 0.303012 0.130640
v 0.000000 0.296522 0.136705
v 0.000000 0.332052 0.108395
vt 0.835735 0.118740
vt 0.795812 0.137533
vt 0.792966 0.131482
vt 0.830688 0.106185
vt 0.843493 0.139046
vt 0.877554 0.123122
vt 0.889932 0.128944
vt 0.848790 0.155748
vt 0.782527 0.117736
vt 0.823768 0.081335
vt 0.773076 0.124474
vt 0.782147 0.134360
vt 0.772192 0.135901
vt 0.766073 0.134910
vt 0.764891 0.127764
vt 0.869113 0.112801
vt 0.867987 0.102678
vt 0.874324 0.087573
vt 0.889932 0.105214
vt 0.798450 0.147987
vt 0.798438 0.159567
vt 0.785729 0.140455
vt 0.788341 0.149744
vt 0.774596 0.146386
vt 0.774196 0.140922
vt 0.764985 0.144245
vt 0.761056 0.140602
vt 0.769580 0.151036
vt 0.786925 0.158414
vt 0.835735 0.118740
vt 0.830688 0.106185
vt 0.792966 0.131482
vt 0.795812 0.137533
vt 0.843493 0.139046
vt 0.877554 0.123122
vt 0.766073 0.134910
vt 0.772192 0.135901
vt 0.782147 0.134360
vt 0.869113 0.112801
vt 0.867987 0.102678
vt 0.798450 0.147987
vt 0.785729 0.140455
vt 0.774196 0.140922
vt 0.774596 0.146386
vt 0.788341 0.149744
vn 0.9929 0.1186 0.0021
vn 0.9604 0.2654 0.0848
vn 0.7450 -0.3587 0.5624
vn 0.7288 -0.5190 0.4466
vn 0.5984 0.6727 -0.4350
vn 0.5868 0.6356 -0.5016
vn 0.0000 0.7993 -0.6009
vn 0.0000 0.8287 -0.5597
vn 0.0000 -0.6835 0.7299
vn 0.0000 -0.7384 0.6743
vn 0.0000 -0.9610 0.2764
vn 0.7147 -0.5781 0.3937
vn 0.7184 -0.4589 0.5228
vn 0.6345 -0.3999 0.6614
vn 0.0000 -0.9928 0.1200
vn 0.9540 -0.1684 -0.2477
vn 0.6435 -0.7626 0.0659
vn 0.0000 -0.9901 0.1399
vn 0.0000 -0.2987 -0.9543
vn 0.5419 0.7642 -0.3496
vn 0.0000 0.8749 -0.4843
vn 0.9272 0.3218 0.1914
vn 0.4623 0.8734 -0.1532
vn 0.4106 0.8252 0.3878
vn 0.7095 0.3512 0.6110
vn 0.0000 0.4203 0.9073
vn 0.0000 0.2753 0.9613
vn 0.0000 0.8597 0.5108
vn 0.0000 0.9717 -0.2362
vn -0.9929 0.1186 0.0021
vn -0.7288 -0.5190 0.4466
vn -0.7450 -0.3587 0.5624
vn -0.9604 0.2654 0.0848
vn -0.5984 0.6727 -0.4350
vn -0.5868 0.6356 -0.5016
vn -0.6345 -0.3999 0.6614
vn -0.7184 -0.4589 0.5228
vn -0.7147 -0.5781 0.3937
vn -0.9540 -0.1684 -0.2477
vn -0.6435 -0.7626 0.0659
vn -0.5419 0.7642 -0.3496
vn -0.9272 0.3218 0.1914
vn -0.7095 0.3512 0.6110
vn -0.4106 0.8252 0.3878
vn -0.4623 0.8734 -0.1532
s 1
f 48/73/37 47/74/38 43/75/39 45/76/40
f 44/77/41 40/78/42 62/79/43 68/80/44
f 45/76/40 43/75/39 65/81/45 69/82/46
f 82/83/47 54/84/48 50/85/49 39/86/50 55/87/51
f 46/88/52 41/89/53 63/90/54 72/91/55
f 41/89/53 45/76/40 69/82/46 63/90/54
f 42/92/56 44/77/41 68/80/44 64/93/57
f 46/88/52 48/73/37 45/76/40 41/89/53
f 40/78/42 44/77/41 48/73/37 46/88/52
f 40/78/42 46/88/52 72/91/55 62/79/43
f 53/94/58 52/95/59 49/96/60 51/97/61
f 44/77/41 42/92/56 47/74/38 48/73/37
f 51/97/61 78/98/62 56/99/63 39/86/50 50/85/49
f 49/96/60 76/100/64 78/98/62 51/97/61
f 54/84/48 53/94/58 51/97/61 50/85/49
f 52/95/59 83/101/65 76/100/64 49/96/60
f 42/92/56 64/93/57 83/101/65 52/95/59
f 43/75/39 47/74/38 53/94/58 54/84/48
f 47/74/38 42/92/56 52/95/59 53/94/58
f 65/81/45 43/75/39 54/84/48 82/83/47
f 73/102/66 67/103/67 61/104/68 71/105/69
f 66/106/70 68/80/44 62/79/43 58/107/71
f 67/103/67 69/82/46 65/81/45 61/104/68
f 82/83/47 55/87/51 57/108/72 75/109/73 81/110/74
f 70/111/75 72/91/55 63/90/54 59/112/76
f 59/112/76 63/90/54 69/82/46 67/103/67
f 60/113/77 64/93/57 68/80/44 66/106/70
f 70/111/75 59/112/76 67/103/67 73/102/66
f 58/107/71 70/111/75 73/102/66 66/106/70
f 58/107/71 62/79/43 72/91/55 70/111/75
f 80/114/78 77/115/79 74/116/80 79/117/81
f 66/106/70 73/102/66 71/105/69 60/113/77
f 77/115/79 75/109/73 57/108/72 56/99/63 78/98/62
f 74/116/80 77/115/79 78/98/62 76/100/64
f 81/110/74 75/109/73 77/115/79 80/114/78
f 79/117/81 74/116/80 76/100/64 83/101/65
f 60/113/77 79/117/81 83/101/65 64/93/57
f 61/104/68 81/110/74 80/114/78 71/105/69
f 71/105/69 80/114/78 79/117/81 60/113/77
f 65/81/45 82/83/47 81/110/74 61/104/68
o seagull.003_Cube.017
v 0.018552 0.326666 0.143217
v 0.021565 0.322418 0.144909
v 0.019913 0.319420 0.149184
v 0.018699 0.325823 0.149698
v 0.015249 0.320671 0.151767
v 0.012236 0.324919 0.150074
v 0.013888 0.327917 0.145800
v 0.015830 0.323634 0.139135
v 0.019231 0.318838 0.141046
v 0.017366 0.315453 0.145872
v 0.012100 0.316865 0.148788
v 0.008699 0.321662 0.146877
v 0.010564 0.325047 0.142051
v -0.018552 0.326666 0.143217
v -0.021565 0.322418 0.144909
v -0.019913 0.319420 0.149184
v -0.018699 0.325823 0.149698
v -0.015249 0.320671 0.151767
v -0.012236 0.324919 0.150074
v -0.013888 0.327917 0.145800
v -0.015830 0.323634 0.139135
v -0.019231 0.318838 0.141046
v -0.017366 0.315453 0.145872
v -0.012100 0.316865 0.148788
v -0.008699 0.321662 0.146877
v -0.010564 0.325047 0.142051
vt 0.096083 0.930727
vt 0.102010 0.901323
vt 0.114639 0.894651
vt 0.140129 0.916973
vt 0.102856 0.886979
vt 0.114743 0.881444
vt 0.150596 0.864797
vt 0.104577 0.873076
vt 0.104067 0.839362
vt 0.091395 0.878376
vt 0.065193 0.864010
vt 0.089068 0.893355
vt 0.065193 0.904543
vt 0.096083 0.930727
vt 0.140129 0.916973
vt 0.114639 0.894651
vt 0.102010 0.901323
vt 0.102856 0.886979
vt 0.150596 0.864797
vt 0.114743 0.881444
vt 0.104067 0.839362
vt 0.104577 0.873076
vt 0.065193 0.864010
vt 0.091395 0.878376
vt 0.065193 0.904543
vt 0.089068 0.893355
vn -0.4801 0.8482 -0.2238
vn -0.2394 0.9706 0.0251
vn 0.5071 0.7675 -0.3921
vn 0.3584 0.6190 -0.6988
vn 0.5039 0.6035 0.6179
vn 0.9889 0.0829 -0.1231
vn 0.9031 -0.1574 -0.3995
vn 0.7237 -0.3984 0.5635
vn 0.6026 -0.7027 0.3783
vn -0.0232 -0.1950 0.9805
vn -0.2401 -0.4674 0.8508
vn -0.5045 0.4895 0.7112
vn -0.7781 0.3071 0.5479
vn 0.4801 0.8482 -0.2238
vn -0.3584 0.6190 -0.6988
vn -0.5071 0.7675 -0.3921
vn 0.2394 0.9706 0.0251
vn -0.5039 0.6035 0.6179
vn -0.9031 -0.1574 -0.3995
vn -0.9889 0.0829 -0.1231
vn -0.6026 -0.7027 0.3783
vn -0.7237 -0.3984 0.5635
vn 0.2401 -0.4674 0.8508
vn 0.0232 -0.1950 0.9805
vn 0.7781 0.3071 0.5479
vn 0.5045 0.4895 0.7112
s 1
f 96/118/82 90/119/83 84/120/84 91/121/85
f 90/119/83 87/122/86 84/120/84
f 91/121/85 84/120/84 85/123/87 92/124/88
f 84/120/84 87/122/86 85/123/87
f 92/124/88 85/123/87 86/125/89 93/126/90
f 85/123/87 87/122/86 86/125/89
f 93/126/90 86/125/89 88/127/91 94/128/92
f 86/125/89 87/122/86 88/127/91
f 94/128/92 88/127/91 89/129/93 95/130/94
f 88/127/91 87/122/86 89/129/93
f 95/130/94 89/129/93 90/119/83 96/118/82
f 89/129/93 87/122/86 90/119/83
f 109/131/95 104/132/96 97/133/97 103/134/98
f 103/134/98 97/133/97 100/135/99
f 104/132/96 105/136/100 98/137/101 97/133/97
f 97/133/97 98/137/101 100/135/99
f 105/136/100 106/138/102 99/139/103 98/137/101
f 98/137/101 99/139/103 100/135/99
f 106/138/102 107/140/104 101/141/105 99/139/103
f 99/139/103 101/141/105 100/135/99
f 107/140/104 108/142/106 102/143/107 101/141/105
f 101/141/105 102/143/107 100/135/99
f 108/142/106 109/131/95 103/134/98 102/143/107
f 102/143/107 103/134/98 100/135/99
o seagull.002_Cube.016
v 0.030000 -0.000000 0.030445
v 0.022768 -0.000000 0.016782
v 0.009186 -0.000000 0.016153
v 0.037411 -0.000000 0.016782
v 0.030000 -0.000000 -0.006334
v 0.051169 -0.000000 0.016358
v -0.030000 -0.000000 0.030445
v -0.022768 -0.000000 0.016782
v -0.009186 -0.000000 0.016153
v -0.037411 -0.000000 0.016782
v -0.030000 -0.000000 -0.006334
v -0.051169 -0.000000 0.016358
vt 0.554223 0.067462
vt 0.675206 0.067462
vt 0.000000 0.000000
vt 0.554223 0.067462
vt 0.675206 0.067462
vt 0.675206 0.188444
vt 0.554223 0.067462
vt 0.675206 0.067462
vt 0.675206 0.188444
vt 0.554223 0.067462
vt 0.000000 0.000000
vt 0.675206 0.067462
vt 0.554223 0.067462
vt 0.675206 0.188444
vt 0.675206 0.067462
vt 0.554223 0.067462
vt 0.675206 0.188444
vt 0.675206 0.067462
vn 0.0000 -1.0000 0.0000
s 1
f 111/144/108 113/145/108 110/146/108
f 113/147/108 114/148/108 115/149/108
f 114/150/108 111/151/108 112/152/108
f 111/144/108 114/148/108 113/145/108
f 117/153/108 116/154/108 119/155/108
f 119/156/108 121/157/108 120/158/108
f 120/159/108 118/160/108 117/161/108
f 117/153/108 119/155/108 120/158/108
