# Blender v2.79 (sub 0) OBJ File: 'sofa.blend'
# www.blender.org
o sofa.008_Cube.026
v -0.002099 0.052458 -0.000000
v 0.068647 0.052458 -0.000000
v 0.059286 0.045067 -0.139902
v 0.057293 0.044856 -0.051748
v -0.002099 0.052458 -0.148417
v -0.002099 0.052458 0.051748
v -0.002099 0.052458 0.103496
v 0.059286 0.045067 0.139902
v 0.057293 0.044856 0.051748
v 0.068647 0.052458 -0.103496
v -0.002099 0.052458 -0.103496
v -0.002099 0.052458 0.148417
v -0.002099 0.052458 -0.051748
v 0.068647 0.052458 0.103496
vt 0.833724 0.622275
vt 0.833112 0.635743
vt 0.824418 0.635216
vt 0.826671 0.623616
vt 0.872447 0.622275
vt 0.873059 0.635743
vt 0.863125 0.636216
vt 0.862803 0.624822
vt 0.853086 0.622839
vt 0.853086 0.636313
vt 0.843047 0.636216
vt 0.843369 0.624822
vt 0.879501 0.623616
vt 0.881754 0.635216
vn 0.0602 0.9982 0.0079
vn 0.0602 0.9981 0.0090
vn 0.0618 0.9933 0.0974
vn 0.0602 0.9982 -0.0079
vn 0.0602 0.9981 -0.0090
vn 0.0583 0.9983 0.0000
vn 0.0618 0.9933 -0.0974
s 1
f 14/1/1 7/2/2 12/3/3 8/4/3
f 10/5/4 11/6/5 13/7/6 4/8/6
f 2/9/6 1/10/6 6/11/6 9/12/6
f 9/12/6 6/11/6 7/2/2 14/1/1
f 4/8/6 13/7/6 1/10/6 2/9/6
f 3/13/7 5/14/7 11/6/5 10/5/4
o sofa.007_Cube.025
v 0.068647 0.052458 -0.000000
v 0.059286 0.045067 -0.139902
v 0.057293 0.044856 -0.051748
v 0.064449 0.000080 -0.000000
v 0.064449 0.000080 -0.103496
v 0.064449 0.000080 0.155244
v 0.064449 0.000080 0.103496
v 0.059286 0.045067 0.139902
v 0.057293 0.044856 0.051748
v 0.064449 0.000080 -0.051748
v 0.068647 0.052458 -0.103496
v 0.064449 0.000080 -0.155244
v 0.064449 0.000080 0.051748
v 0.068647 0.052458 0.103496
vt 0.342744 0.847178
vt 0.342258 0.857086
vt 0.335273 0.855209
vt 0.333000 0.846474
vt 0.381811 0.847178
vt 0.382297 0.857086
vt 0.372254 0.855975
vt 0.372044 0.847417
vt 0.362278 0.847657
vt 0.362278 0.857577
vt 0.352301 0.855975
vt 0.352511 0.847417
vt 0.391555 0.846474
vt 0.389282 0.855209
vn 0.9996 0.0287 -0.0017
vn 0.9996 0.0287 -0.0039
vn 0.9938 0.0268 0.1078
vn 0.9996 0.0287 0.0017
vn 0.9996 0.0287 0.0039
vn 0.9995 0.0304 0.0000
vn 0.9938 0.0268 -0.1078
s 1
f 21/15/8 28/16/9 22/17/10 20/18/10
f 19/19/11 25/20/12 17/21/13 24/22/13
f 18/23/13 15/24/13 23/25/13 27/26/13
f 27/26/13 23/25/13 28/16/9 21/15/8
f 24/22/13 17/21/13 15/24/13 18/23/13
f 26/27/14 16/28/14 25/20/12 19/19/11
o sofa.006_Cube.024
v -0.039461 0.122927 -0.051748
v -0.002099 0.052458 -0.000000
v -0.039461 0.122927 -0.145459
v -0.002099 0.052458 -0.148417
v -0.002099 0.052458 0.051748
v -0.002099 0.052458 0.103496
v -0.023807 0.144183 -0.000000
v -0.039461 0.122927 0.051748
v -0.023807 0.144183 0.103496
v -0.002099 0.052458 -0.103496
v -0.002099 0.052458 0.148417
v -0.039461 0.122927 0.145459
v -0.002099 0.052458 -0.051748
v -0.023807 0.144183 -0.103496
vt 0.390746 0.623439
vt 0.399440 0.622912
vt 0.400125 0.638380
vt 0.391892 0.639404
vt 0.350798 0.623439
vt 0.360733 0.623912
vt 0.360097 0.640681
vt 0.349653 0.639404
vt 0.370772 0.624009
vt 0.380811 0.623912
vt 0.381447 0.640681
vt 0.370772 0.640701
vt 0.342104 0.622912
vt 0.341419 0.638380
vn 0.9387 0.3442 -0.0196
vn 0.9093 0.3356 -0.2459
vn 0.9388 0.3442 -0.0146
vn 0.9387 0.3442 0.0196
vn 0.9396 0.3422 0.0000
vn 0.9388 0.3442 0.0146
vn 0.9093 0.3356 0.2459
s 1
f 38/29/15 32/30/16 31/31/16 42/32/17
f 34/33/18 33/34/19 36/35/19 37/36/20
f 30/37/19 41/38/19 29/39/19 35/40/19
f 39/41/21 34/33/18 37/36/20 40/42/21
f 33/34/19 30/37/19 35/40/19 36/35/19
f 41/38/19 38/29/15 42/32/17 29/39/19
o sofa.005_Cube.023
v -0.002099 0.000080 0.051748
v -0.002099 0.000080 -0.103496
v -0.002099 0.000080 -0.000000
v -0.053390 0.000080 -0.000000
v -0.053390 0.000080 -0.155244
v -0.053390 0.000080 0.103496
v -0.002099 0.000080 0.103496
v 0.064449 0.000080 -0.000000
v -0.053390 0.000080 -0.103496
v 0.064449 0.000080 -0.103496
v -0.002099 0.000080 -0.155244
v 0.064449 0.000080 0.155244
v -0.002099 0.000080 -0.051748
v 0.064449 0.000080 0.103496
v -0.002099 0.000080 0.155244
v -0.053390 0.000080 -0.051748
v 0.064449 0.000080 -0.051748
v -0.053390 0.000080 0.155244
v 0.064449 0.000080 -0.155244
v 0.064449 0.000080 0.051748
v -0.053390 0.000080 0.051748
vt 0.369839 0.144850
vt 0.369839 0.157413
vt 0.360069 0.157413
vt 0.360069 0.144850
vt 0.369839 0.134265
vt 0.360069 0.134265
vt 0.408916 0.134265
vt 0.408916 0.144850
vt 0.399147 0.144850
vt 0.399147 0.134265
vt 0.389377 0.134265
vt 0.389377 0.144850
vt 0.379608 0.144850
vt 0.379608 0.134265
vt 0.408916 0.157413
vt 0.399147 0.157413
vt 0.389377 0.157413
vt 0.379608 0.157413
vt 0.418686 0.144850
vt 0.418686 0.157413
vt 0.418686 0.134265
vn 0.0000 -1.0000 0.0000
s 1
f 49/43/22 56/44/22 54/45/22 57/46/22
f 48/47/22 49/43/22 57/46/22 60/48/22
f 51/49/22 44/50/22 55/51/22 58/52/22
f 46/53/22 45/54/22 43/55/22 63/56/22
f 44/50/22 52/57/22 59/58/22 55/51/22
f 45/54/22 50/59/22 62/60/22 43/55/22
f 63/56/22 43/55/22 49/43/22 48/47/22
f 43/55/22 62/60/22 56/44/22 49/43/22
f 55/51/22 59/58/22 50/59/22 45/54/22
f 58/52/22 55/51/22 45/54/22 46/53/22
f 53/61/22 61/62/22 52/57/22 44/50/22
f 47/63/22 53/61/22 44/50/22 51/49/22
o sofa.004_Cube.022
v -0.053390 0.000080 -0.155244
v -0.039461 0.122927 -0.145459
v 0.059286 0.045067 -0.139902
v -0.058164 0.055569 -0.155244
v -0.002099 0.052458 -0.148417
v -0.002099 0.000080 -0.155244
v -0.068648 0.122927 -0.155244
v 0.064449 0.000080 -0.155244
vt 0.659302 0.385158
vt 0.651412 0.391257
vt 0.645172 0.381262
vt 0.651770 0.375103
vt 0.657538 0.400005
vt 0.648835 0.409485
vt 0.645172 0.404973
vt 0.665775 0.393533
vn 0.0717 0.1461 -0.9867
vn 0.1024 0.1290 -0.9863
vn 0.0777 0.2252 -0.9712
vn 0.1367 0.0784 -0.9875
vn 0.1936 0.0882 -0.9771
vn 0.0652 0.0659 -0.9957
s 1
f 69/64/23 68/65/24 66/66/25 71/67/25
f 68/65/24 67/68/26 70/69/27 65/70/27
f 64/71/28 67/68/26 68/65/24 69/64/23
o sofa.003_Cube.021
v -0.068648 0.122927 0.155244
v -0.058164 0.055569 0.155244
v 0.064449 0.000080 0.155244
v 0.059286 0.045067 0.139902
v -0.002099 0.000080 0.155244
v -0.053390 0.000080 0.155244
v -0.002099 0.052458 0.148417
v -0.039461 0.122927 0.145459
vt 0.834372 0.374167
vt 0.828273 0.382056
vt 0.819525 0.375931
vt 0.825997 0.367693
vt 0.844427 0.381698
vt 0.838268 0.388296
vt 0.814557 0.388296
vt 0.810045 0.384634
vn 0.0717 0.1461 0.9867
vn 0.1024 0.1290 0.9863
vn 0.1367 0.0784 0.9875
vn 0.0652 0.0659 0.9957
vn 0.0777 0.2252 0.9712
vn 0.1936 0.0882 0.9771
s 1
f 76/72/29 78/73/30 73/74/31 77/75/32
f 74/76/33 75/77/33 78/73/30 76/72/29
f 73/74/31 78/73/30 79/78/34 72/79/34
o sofa.002_Cube.020
v -0.039461 0.122927 -0.051748
v -0.068648 0.122927 -0.051748
v -0.039461 0.122927 -0.145459
v -0.068648 0.122927 0.155244
v -0.068648 0.144183 -0.103496
v -0.068648 0.122927 0.051748
v -0.068648 0.144183 -0.000000
v -0.023807 0.144183 -0.000000
v -0.039461 0.122927 0.051748
v -0.068648 0.122927 -0.155244
v -0.023807 0.144183 0.103496
v -0.068648 0.144183 0.103496
v -0.039461 0.122927 0.145459
v -0.023807 0.144183 -0.103496
vt 0.334888 0.383483
vt 0.333654 0.390845
vt 0.323157 0.387426
vt 0.326654 0.382459
vt 0.377127 0.383483
vt 0.378361 0.390845
vt 0.367093 0.390889
vt 0.366682 0.384760
vt 0.356008 0.384779
vt 0.356008 0.392287
vt 0.344922 0.390889
vt 0.345333 0.384760
vt 0.874401 0.357691
vt 0.873991 0.363820
vt 0.862723 0.363776
vt 0.863956 0.356414
vt 0.895751 0.357691
vt 0.896161 0.363820
vt 0.885076 0.365219
vt 0.885076 0.357711
vt 0.914429 0.355390
vt 0.917926 0.360358
vt 0.907429 0.363776
vt 0.906195 0.356414
vn 0.0297 0.9995 0.0136
vn 0.0303 0.9993 0.0219
vn 0.0555 0.9057 0.4202
vn 0.0297 0.9995 -0.0136
vn 0.0303 0.9993 -0.0219
vn 0.0000 1.0000 0.0000
vn 0.0555 0.9057 -0.4202
s 1
f 90/80/35 91/81/36 83/82/37 92/83/37
f 93/84/38 84/85/39 81/86/40 80/87/40
f 87/88/40 86/89/40 85/90/40 88/91/40
f 88/92/40 85/93/40 91/94/36 90/95/35
f 80/96/40 81/97/40 86/98/40 87/99/40
f 82/100/41 89/101/41 84/102/39 93/103/38
o sofa.001_Cube.019
v -0.068648 0.122927 -0.051748
v -0.058164 0.055569 -0.000000
v -0.053390 0.000080 -0.000000
v -0.053390 0.000080 -0.155244
v -0.058164 0.055569 0.103496
v -0.058164 0.055569 0.051748
v -0.053390 0.000080 0.103496
v -0.068648 0.122927 0.155244
v -0.058164 0.055569 -0.155244
v -0.058164 0.055569 -0.103496
v -0.058164 0.055569 0.155244
v -0.053390 0.000080 -0.103496
v -0.068648 0.144183 -0.103496
v -0.058164 0.055569 -0.051748
v -0.068648 0.122927 0.051748
v -0.068648 0.144183 -0.000000
v -0.068648 0.122927 -0.155244
v -0.053390 0.000080 -0.051748
v -0.068648 0.144183 0.103496
v -0.053390 0.000080 0.155244
v -0.053390 0.000080 0.051748
vt 0.123492 0.638669
vt 0.123499 0.628193
vt 0.133268 0.628205
vt 0.133258 0.638677
vt 0.084410 0.628195
vt 0.074638 0.628208
vt 0.074618 0.615340
vt 0.084394 0.611347
vt 0.113728 0.628189
vt 0.113733 0.615321
vt 0.123515 0.611348
vt 0.103955 0.628186
vt 0.094183 0.628190
vt 0.094177 0.615321
vt 0.103955 0.611338
vt 0.084420 0.638674
vt 0.094188 0.638667
vt 0.103957 0.638663
vt 0.113724 0.638664
vt 0.074650 0.638684
vt 0.133288 0.615340
vn -0.9963 -0.0857 0.0000
vn -0.9940 -0.1095 -0.0000
vn -0.9939 -0.1095 0.0137
vn -0.9939 -0.1095 -0.0137
vn -0.9907 -0.1332 -0.0274
vn -0.9911 -0.1332 -0.0000
vn -0.9907 -0.1332 0.0274
s 1
f 105/104/42 103/105/43 102/106/44 97/107/42
f 98/108/43 104/109/45 101/110/46 112/111/47
f 103/105/43 107/112/43 94/113/47 106/114/47
f 95/115/43 99/116/43 108/117/47 109/118/47
f 100/119/42 98/108/43 99/116/43 114/120/42
f 96/121/42 95/115/43 107/112/43 111/122/42
f 113/123/42 104/109/45 98/108/43 100/119/42
f 99/116/43 98/108/43 112/111/47 108/117/47
f 114/120/42 99/116/43 95/115/43 96/121/42
f 107/112/43 95/115/43 109/118/47 94/113/47
f 102/106/44 103/105/43 106/114/47 110/124/48
f 111/122/42 107/112/43 103/105/43 105/104/42
