# Blender v2.79 (sub 0) OBJ File: 'sofa.blend'
# www.blender.org
o Cube.001
v -0.058164 0.055569 -0.155244
v -0.058164 0.000080 -0.155244
v -0.058164 0.055569 0.155244
v -0.058164 0.000080 0.155244
v 0.064449 0.000080 0.155244
v 0.059286 0.045067 0.139902
v 0.064449 0.000080 -0.155244
v 0.059286 0.045067 -0.139902
v -0.002099 0.000080 -0.155244
v -0.002099 0.052458 -0.148417
v -0.002099 0.000080 0.155244
v -0.002099 0.052458 0.148417
v -0.068648 0.122927 0.155244
v -0.068648 0.122927 -0.155244
v -0.039461 0.122927 0.145459
v -0.039461 0.122927 -0.145459
v -0.058164 0.055569 0.051748
v -0.058164 0.055569 -0.051748
v -0.058164 0.000080 -0.051748
v -0.058164 0.000080 0.051748
v 0.064449 0.000080 0.051748
v 0.064449 0.000080 -0.051748
v 0.057293 0.044856 -0.051748
v 0.057293 0.044856 0.051748
v -0.002099 0.052458 -0.051748
v -0.002099 0.052458 0.051748
v -0.002099 0.000080 -0.051748
v -0.002099 0.000080 0.051748
v -0.068648 0.122927 0.051748
v -0.068648 0.122927 -0.051748
v -0.039461 0.122927 -0.051748
v -0.039461 0.122927 0.051748
v -0.058164 0.000080 0.103496
v 0.068647 0.052458 0.103496
v -0.002099 0.052458 0.103496
v -0.002099 0.000080 0.103496
v -0.023807 0.144183 0.103496
v -0.058164 0.055569 0.103496
v 0.064449 0.000080 0.103496
v -0.068648 0.144183 0.103496
v -0.058164 0.055569 -0.000000
v -0.058164 0.000080 -0.000000
v 0.064449 0.000080 -0.000000
v 0.068647 0.052458 -0.000000
v -0.002099 0.052458 -0.000000
v -0.002099 0.000080 -0.000000
v -0.068648 0.144183 -0.000000
v -0.023807 0.144183 -0.000000
v -0.058164 0.055569 -0.103496
v 0.064449 0.000080 -0.103496
v -0.068648 0.144183 -0.103496
v -0.058164 0.000080 -0.103496
v 0.068647 0.052458 -0.103496
v -0.002099 0.052458 -0.103496
v -0.002099 0.000080 -0.103496
v -0.023807 0.144183 -0.103496
vt 0.123492 0.638669
vt 0.123499 0.628193
vt 0.133268 0.628205
vt 0.133258 0.638677
vt 0.659302 0.385158
vt 0.651412 0.391257
vt 0.645172 0.381262
vt 0.651770 0.375103
vt 0.342744 0.847178
vt 0.342258 0.857086
vt 0.335273 0.855209
vt 0.333000 0.846474
vt 0.834372 0.374167
vt 0.828273 0.382056
vt 0.819525 0.375931
vt 0.825997 0.367693
vt 0.369839 0.144850
vt 0.369839 0.157413
vt 0.360069 0.157413
vt 0.360069 0.144850
vt 0.657538 0.400005
vt 0.648835 0.409485
vt 0.645172 0.404973
vt 0.351411 0.609971
vt 0.350798 0.623439
vt 0.342104 0.622912
vt 0.344357 0.611313
vt 0.369839 0.134265
vt 0.360069 0.134265
vt 0.844427 0.381698
vt 0.838268 0.388296
vt 0.665775 0.393533
vt 0.349653 0.639404
vt 0.348419 0.646766
vt 0.337922 0.643348
vt 0.341419 0.638380
vt 0.814557 0.388296
vt 0.810045 0.384634
vt 0.390746 0.623439
vt 0.399440 0.622912
vt 0.400125 0.638380
vt 0.391892 0.639404
vt 0.084410 0.628195
vt 0.074638 0.628208
vt 0.074618 0.615340
vt 0.084394 0.611347
vt 0.113728 0.628189
vt 0.113733 0.615321
vt 0.123515 0.611348
vt 0.103955 0.628186
vt 0.094183 0.628190
vt 0.094177 0.615321
vt 0.103955 0.611338
vt 0.360733 0.623912
vt 0.360097 0.640681
vt 0.370772 0.624009
vt 0.380811 0.623912
vt 0.381447 0.640681
vt 0.370772 0.640701
vt 0.393125 0.646766
vt 0.381857 0.646810
vt 0.370772 0.648209
vt 0.359687 0.646810
vt 0.408916 0.134265
vt 0.408916 0.144850
vt 0.399147 0.144850
vt 0.399147 0.134265
vt 0.389377 0.134265
vt 0.389377 0.144850
vt 0.379608 0.144850
vt 0.379608 0.134265
vt 0.390133 0.609971
vt 0.380489 0.612518
vt 0.370772 0.610535
vt 0.361055 0.612518
vt 0.408916 0.157413
vt 0.399147 0.157413
vt 0.389377 0.157413
vt 0.379608 0.157413
vt 0.381811 0.847178
vt 0.382297 0.857086
vt 0.372254 0.855975
vt 0.372044 0.847417
vt 0.362278 0.847657
vt 0.362278 0.857577
vt 0.352301 0.855975
vt 0.352511 0.847417
vt 0.084420 0.638674
vt 0.094188 0.638667
vt 0.103957 0.638663
vt 0.113724 0.638664
vt 0.074650 0.638684
vt 0.391555 0.846474
vt 0.389282 0.855209
vt 0.418686 0.144850
vt 0.418686 0.157413
vt 0.397187 0.611313
vt 0.418686 0.134265
vt 0.403622 0.643348
vt 0.133288 0.615340
vn -1.0000 0.0000 0.0000
vn -0.9978 -0.0667 -0.0000
vn -0.9977 -0.0667 0.0137
vn 0.0703 0.1446 -0.9870
vn 0.1013 0.1278 -0.9866
vn 0.0777 0.2252 -0.9712
vn 0.9996 0.0287 -0.0017
vn 0.9996 0.0287 -0.0039
vn 0.9938 0.0268 0.1078
vn 0.0703 0.1446 0.9870
vn 0.1013 0.1278 0.9866
vn 0.1335 0.0768 0.9881
vn 0.0624 0.0630 0.9961
vn 0.0000 -1.0000 0.0000
vn 0.1335 0.0768 -0.9881
vn 0.1482 0.5467 -0.8241
vn 0.1408 0.5912 -0.7941
vn 0.0602 0.9982 0.0079
vn 0.0602 0.9981 0.0090
vn 0.0618 0.9933 0.0974
vn 0.0777 0.2252 0.9712
vn 0.0624 0.0630 -0.9961
vn 0.0297 0.9995 0.0136
vn 0.0303 0.9993 0.0219
vn 0.1482 0.5467 0.8241
vn 0.1408 0.5912 0.7941
vn 0.9387 0.3442 -0.0196
vn 0.9093 0.3356 -0.2459
vn 0.9388 0.3442 -0.0146
vn -0.9977 -0.0667 -0.0137
vn -0.9907 -0.1332 -0.0274
vn -0.9911 -0.1332 -0.0000
vn 0.9387 0.3442 0.0196
vn 0.9396 0.3422 0.0000
vn 0.9388 0.3442 0.0146
vn 0.0297 0.9995 -0.0136
vn 0.0303 0.9993 -0.0219
vn 0.0000 1.0000 0.0000
vn 0.0602 0.9982 -0.0079
vn 0.0602 0.9981 -0.0090
vn 0.0583 0.9983 0.0000
vn 0.9996 0.0287 0.0017
vn 0.9996 0.0287 0.0039
vn 0.9995 0.0304 0.0000
vn 0.9093 0.3356 0.2459
vn 0.9938 0.0268 -0.1078
vn 0.0618 0.9933 -0.0974
vn -0.9907 -0.1332 0.0274
s 1
f 52/1/1 49/2/2 1/3/3 2/4/1
f 9/5/4 10/6/5 8/7/6 7/8/6
f 39/9/7 34/10/8 6/11/9 5/12/9
f 11/13/10 12/14/11 3/15/12 4/16/13
f 36/17/14 39/18/14 5/19/14 11/20/14
f 10/6/5 1/21/15 14/22/16 16/23/17
f 34/24/18 35/25/19 12/26/20 6/27/20
f 33/28/14 36/17/14 11/20/14 4/29/14
f 5/30/21 6/31/21 12/14/11 11/13/10
f 2/32/22 1/21/15 10/6/5 9/5/4
f 37/33/23 40/34/24 13/35/25 15/36/26
f 3/15/12 12/14/11 15/37/26 13/38/25
f 54/39/27 10/40/28 16/41/28 56/42/29
f 38/43/2 3/44/30 13/45/31 40/46/32
f 49/2/2 18/47/2 30/48/32 51/49/32
f 41/50/2 17/51/2 29/52/32 47/53/32
f 35/25/33 26/54/34 32/55/34 37/33/35
f 45/56/34 25/57/34 31/58/34 48/59/34
f 56/42/36 51/60/37 30/61/38 31/58/38
f 48/59/38 47/62/38 29/63/38 32/55/38
f 52/64/14 55/65/14 27/66/14 19/67/14
f 42/68/14 46/69/14 28/70/14 20/71/14
f 53/72/39 54/39/40 25/57/41 23/73/41
f 44/74/41 45/56/41 26/54/41 24/75/41
f 55/65/14 50/76/14 22/77/14 27/66/14
f 46/69/14 43/78/14 21/79/14 28/70/14
f 50/80/42 53/81/43 23/82/44 22/83/44
f 43/84/44 44/85/44 24/86/44 21/87/44
f 33/88/1 38/43/2 17/51/2 20/89/1
f 42/90/1 41/50/2 18/47/2 19/91/1
f 4/92/1 3/44/30 38/43/2 33/88/1
f 12/26/45 35/25/33 37/33/35 15/36/45
f 17/51/2 38/43/2 40/46/32 29/52/32
f 32/55/38 29/63/38 40/34/24 37/33/23
f 20/71/14 28/70/14 36/17/14 33/28/14
f 24/75/41 26/54/41 35/25/19 34/24/18
f 28/70/14 21/79/14 39/18/14 36/17/14
f 21/87/44 24/86/44 34/10/8 39/9/7
f 20/89/1 17/51/2 41/50/2 42/90/1
f 22/83/44 23/82/44 44/85/44 43/84/44
f 27/66/14 22/77/14 43/78/14 46/69/14
f 23/73/41 25/57/41 45/56/41 44/74/41
f 19/67/14 27/66/14 46/69/14 42/68/14
f 31/58/38 30/61/38 47/62/38 48/59/38
f 26/54/34 45/56/34 48/59/34 32/55/34
f 18/47/2 41/50/2 47/53/32 30/48/32
f 7/93/46 8/94/46 53/81/43 50/80/42
f 9/95/14 7/96/14 50/76/14 55/65/14
f 8/97/47 10/40/47 54/39/40 53/72/39
f 2/98/14 9/95/14 55/65/14 52/64/14
f 16/41/17 14/99/16 51/60/37 56/42/36
f 1/3/3 49/2/2 51/49/32 14/100/48
f 25/57/34 54/39/27 56/42/29 31/58/34
f 19/91/1 18/47/2 49/2/2 52/1/1
