# Blender v2.79 (sub 0) OBJ File: 'bird.blend'
# www.blender.org
o sunglasses.001_Cube.002
v 0.021750 0.313052 0.159486
v 0.021750 0.330254 0.159486
v 0.021750 0.313052 0.153576
v 0.021750 0.330254 0.153576
v 0.030012 0.318106 0.159486
v 0.030012 0.330254 0.159486
v 0.030012 0.318106 0.153576
v 0.030012 0.330254 0.153576
v 0.018893 0.309194 0.090381
v 0.018893 0.311641 0.089528
v 0.022215 0.309194 0.090381
v 0.022215 0.311641 0.089528
v 0.007179 0.330254 0.153576
v 0.007179 0.313052 0.159486
v 0.007179 0.313052 0.153576
v 0.007179 0.330254 0.159486
v 0.030012 0.330254 0.150985
v 0.025734 0.330254 0.150985
v 0.025734 0.327663 0.150985
v 0.030012 0.327663 0.150985
v 0.028820 0.326932 0.120470
v 0.025498 0.324341 0.120470
v 0.025498 0.326932 0.120470
v 0.028820 0.324341 0.120470
v -0.021750 0.313052 0.159486
v -0.021750 0.330254 0.159486
v -0.021750 0.313052 0.153576
v -0.021750 0.330254 0.153576
v 0.000000 0.318106 0.153576
v 0.000000 0.330254 0.153576
v 0.000000 0.318106 0.159486
v 0.000000 0.330254 0.159486
v -0.030012 0.318106 0.159486
v -0.030012 0.330254 0.159486
v -0.030012 0.318106 0.153576
v -0.030012 0.330254 0.153576
v -0.018893 0.309194 0.090381
v -0.018893 0.311641 0.089528
v -0.022215 0.309194 0.090381
v -0.022215 0.311641 0.089528
v -0.007179 0.330254 0.153576
v -0.007179 0.313052 0.159486
v -0.007179 0.313052 0.153576
v -0.007179 0.330254 0.159486
v -0.030012 0.330254 0.150985
v -0.025734 0.330254 0.150985
v -0.025734 0.327663 0.150985
v -0.030012 0.327663 0.150985
v -0.028820 0.326932 0.120470
v -0.025498 0.324341 0.120470
v -0.025498 0.326932 0.120470
v -0.028820 0.324341 0.120470
vt 0.100794 0.905014
vt 0.101087 0.904993
vt 0.101471 0.905018
vt 0.100715 0.904990
vt 0.101211 0.905009
vt 0.100223 0.905049
vt 0.100934 0.904984
vt 0.101448 0.904922
vt 0.100714 0.905067
vt 0.101069 0.904978
vt 0.101041 0.905085
vt 0.101040 0.905045
vt 0.100814 0.905071
vt 0.101168 0.904995
vt 0.101795 0.904885
vt 0.127766 0.903091
vt 0.127314 0.902717
vt 0.168084 0.899726
vt 0.168034 0.899915
vt 0.168063 0.899626
vt 0.167769 0.899973
vt 0.128123 0.903092
vt 0.128511 0.902606
vt 0.100851 0.904978
vt 0.102076 0.905096
vt 0.102005 0.904697
vt 0.101995 0.905114
vt 0.101984 0.904763
vt 0.100794 0.905014
vt 0.100715 0.904990
vt 0.101471 0.905018
vt 0.101087 0.904993
vt 0.101211 0.905009
vt 0.101448 0.904922
vt 0.100934 0.904984
vt 0.100223 0.905049
vt 0.100714 0.905067
vt 0.101040 0.905045
vt 0.101168 0.904995
vt 0.101795 0.904885
vt 0.127766 0.903091
vt 0.168034 0.899915
vt 0.168084 0.899726
vt 0.127314 0.902717
vt 0.168063 0.899626
vt 0.167769 0.899973
vt 0.128123 0.903092
vt 0.128511 0.902606
vt 0.102005 0.904697
vt 0.102076 0.905096
vt 0.101984 0.904763
vt 0.101995 0.905114
vn -0.2307 -0.7285 -0.6450
vn 0.0000 0.7071 -0.7071
vn -0.1790 0.7770 -0.6034
vn 0.1756 -0.7546 -0.6322
vn 0.0000 0.7071 0.7071
vn 0.2058 -0.7307 0.6509
vn 0.6900 -0.3868 0.6118
vn 0.5773 0.5773 0.5773
vn -0.2307 -0.7285 0.6450
vn 0.0000 -0.5069 0.8620
vn 0.7222 -0.4591 -0.5173
vn 0.7071 0.7071 0.0000
vn -0.6498 0.7414 -0.1676
vn 0.6793 0.6855 -0.2621
vn 0.5121 0.3102 -0.8009
vn -0.6521 0.3058 -0.6937
vn -0.6184 -0.7434 -0.2545
vn 0.5153 -0.7803 -0.3543
vn 0.7635 -0.6414 0.0752
vn -0.7168 -0.6364 0.2848
vn 0.0000 -0.5069 -0.8620
vn 0.8940 -0.3566 -0.2712
vn 0.6990 0.7132 -0.0514
vn -0.4670 0.8327 -0.2973
vn -0.5677 -0.3674 -0.7367
vn 0.2307 -0.7285 -0.6450
vn -0.1756 -0.7546 -0.6322
vn 0.1790 0.7770 -0.6034
vn -0.5773 0.5773 0.5773
vn -0.6900 -0.3868 0.6118
vn -0.2058 -0.7307 0.6509
vn 0.2307 -0.7285 0.6450
vn -0.7222 -0.4591 -0.5173
vn -0.7071 0.7071 0.0000
vn 0.6498 0.7414 -0.1676
vn 0.6521 0.3058 -0.6937
vn -0.5121 0.3102 -0.8009
vn -0.6793 0.6855 -0.2621
vn 0.6184 -0.7434 -0.2545
vn -0.5153 -0.7803 -0.3543
vn -0.7635 -0.6414 0.0752
vn 0.7168 -0.6364 0.2848
vn -0.6990 0.7132 -0.0514
vn -0.8940 -0.3566 -0.2712
vn 0.5677 -0.3674 -0.7367
vn 0.4670 0.8327 -0.2973
s 1
f 15/1/1 13/2/2 4/3/3 3/4/4
f 2/5/5 1/6/6 5/7/7 6/8/8
f 15/1/1 3/4/4 1/6/6 14/9/9
f 13/2/2 30/10/2 32/11/5 16/12/5
f 14/9/9 16/12/5 32/11/5 31/13/10
f 7/14/11 8/15/12 6/8/8 5/7/7
f 1/6/6 3/4/4 7/14/11 5/7/7
f 4/3/3 2/5/5 6/8/8 8/15/12
f 23/16/13 21/17/14 12/18/15 10/19/16
f 9/20/17 10/19/16 12/18/15 11/21/18
f 24/22/19 22/23/20 9/20/17 11/21/18
f 22/23/20 23/16/13 10/19/16 9/20/17
f 21/17/14 24/22/19 11/21/18 12/18/15
f 1/6/6 2/5/5 16/12/5 14/9/9
f 4/3/3 13/2/2 16/12/5 2/5/5
f 29/24/21 15/1/1 14/9/9 31/13/10
f 29/24/21 30/10/2 13/2/2 15/1/1
f 8/15/12 7/14/11 20/25/22 17/26/23
f 3/4/4 4/3/3 18/27/24 19/28/25
f 7/14/11 3/4/4 19/28/25 20/25/22
f 4/3/3 8/15/12 17/26/23 18/27/24
f 17/26/23 20/25/22 24/22/19 21/17/14
f 19/28/25 18/27/24 23/16/13 22/23/20
f 20/25/22 19/28/25 22/23/20 24/22/19
f 18/27/24 17/26/23 21/17/14 23/16/13
f 43/29/26 27/30/27 28/31/28 41/32/2
f 26/33/5 34/34/29 33/35/30 25/36/31
f 43/29/26 42/37/32 25/36/31 27/30/27
f 41/32/2 44/38/5 32/11/5 30/10/2
f 42/37/32 31/13/10 32/11/5 44/38/5
f 35/39/33 33/35/30 34/34/29 36/40/34
f 25/36/31 33/35/30 35/39/33 27/30/27
f 28/31/28 36/40/34 34/34/29 26/33/5
f 51/41/35 38/42/36 40/43/37 49/44/38
f 37/45/39 39/46/40 40/43/37 38/42/36
f 52/47/41 39/46/40 37/45/39 50/48/42
f 50/48/42 37/45/39 38/42/36 51/41/35
f 49/44/38 40/43/37 39/46/40 52/47/41
f 25/36/31 42/37/32 44/38/5 26/33/5
f 28/31/28 26/33/5 44/38/5 41/32/2
f 29/24/21 31/13/10 42/37/32 43/29/26
f 29/24/21 43/29/26 41/32/2 30/10/2
f 36/40/34 45/49/43 48/50/44 35/39/33
f 27/30/27 47/51/45 46/52/46 28/31/28
f 35/39/33 48/50/44 47/51/45 27/30/27
f 28/31/28 46/52/46 45/49/43 36/40/34
f 45/49/43 49/44/38 52/47/41 48/50/44
f 47/51/45 50/48/42 51/41/35 46/52/46
f 48/50/44 52/47/41 50/48/42 47/51/45
f 46/52/46 51/41/35 49/44/38 45/49/43
