# Blender v2.79 (sub 0) OBJ File: 'sofa.blend'
# www.blender.org
o table.030_Cube.040
v 0.152894 0.097743 0.271150
v 0.152894 0.097743 0.257960
v 0.142398 0.097743 0.271150
v 0.142398 0.097743 0.257960
vt 0.394391 0.902765
vt 0.394391 0.905186
vt 0.391652 0.905186
vt 0.391652 0.902765
vn 0.0000 1.0000 0.0000
s 1
f 2/1/1 4/2/1 3/3/1 1/4/1
o table.029_Cube.039
v -0.147602 0.097743 0.257960
v -0.147602 0.097743 0.271150
v -0.147602 -0.000000 0.257960
v -0.147602 -0.000000 0.271150
vt 0.617619 0.117491
vt 0.617619 0.129036
vt 0.614880 0.129036
vt 0.614880 0.117491
vn -1.0000 0.0000 0.0000
s 1
f 8/5/2 6/6/2 5/7/2 7/8/2
o table.028_Cube.038
v -0.147602 0.097743 0.257960
v -0.137106 -0.000000 0.257960
v -0.147602 -0.000000 0.257960
v -0.137106 0.097743 0.257960
vt 0.372068 0.402892
vt 0.372068 0.414437
vt 0.369647 0.414437
vt 0.369647 0.402892
vn 0.0000 0.0000 -1.0000
s 1
f 11/9/3 9/10/3 12/11/3 10/12/3
o table.027_Cube.037
v -0.137106 -0.000000 0.257960
v -0.137106 -0.000000 0.271150
v -0.137106 0.097743 0.271150
v -0.137106 0.097743 0.257960
vt 0.605218 0.647026
vt 0.605218 0.658571
vt 0.602478 0.658571
vt 0.602478 0.647026
vn 1.0000 0.0000 0.0000
s 1
f 13/13/4 16/14/4 15/15/4 14/16/4
o table.026_Cube.036
v -0.147602 0.097743 0.271150
v -0.137106 -0.000000 0.271150
v -0.137106 0.097743 0.271150
v -0.147602 -0.000000 0.271150
vt 0.340444 0.356221
vt 0.340444 0.367766
vt 0.338023 0.367766
vt 0.338023 0.356221
vn 0.0000 0.0000 1.0000
s 1
f 18/17/5 19/18/5 17/19/5 20/20/5
o table.025_Cube.035
v -0.137106 -0.000000 0.257960
v -0.137106 -0.000000 0.271150
v -0.147602 -0.000000 0.257960
v -0.147602 -0.000000 0.271150
vt 0.611116 0.587056
vt 0.611116 0.589477
vt 0.608377 0.589477
vt 0.608377 0.587056
vn 0.0000 -1.0000 0.0000
s 1
f 23/21/6 21/22/6 22/23/6 24/24/6
o table.024_Cube.033
v -0.147602 0.097743 0.257960
v -0.147602 0.097743 0.271150
v -0.137106 0.097743 0.271150
v -0.137106 0.097743 0.257960
vt 0.397189 0.902765
vt 0.397189 0.905186
vt 0.394450 0.905186
vt 0.394450 0.902765
vn 0.0000 1.0000 0.0000
s 1
f 28/25/7 25/26/7 26/27/7 27/28/7
o table.023_Cube.032
v 0.142398 -0.000000 -0.272040
v 0.142398 0.097743 -0.258850
v 0.142398 0.097743 -0.272040
v 0.142398 -0.000000 -0.258850
vt 0.118154 0.164793
vt 0.118154 0.176339
vt 0.115415 0.176339
vt 0.115415 0.164793
vn -1.0000 0.0000 0.0000
s 1
f 32/29/8 30/30/8 31/31/8 29/32/8
o table.022_Cube.031
v 0.142398 -0.000000 -0.272040
v 0.152894 -0.000000 -0.272040
v 0.152894 0.097743 -0.272040
v 0.142398 0.097743 -0.272040
vt 0.942540 0.327520
vt 0.942540 0.339066
vt 0.940119 0.339066
vt 0.940119 0.327520
vn 0.0000 0.0000 -1.0000
s 1
f 33/33/9 36/34/9 35/35/9 34/36/9
o table.021_Cube.030
v 0.152894 0.097743 -0.258850
v 0.152894 -0.000000 -0.258850
v 0.152894 -0.000000 -0.272040
v 0.152894 0.097743 -0.272040
vt 0.385090 0.632321
vt 0.385090 0.643867
vt 0.382351 0.643867
vt 0.382351 0.632321
vn 1.0000 0.0000 0.0000
s 1
f 39/37/10 40/38/10 37/39/10 38/40/10
o table.020_Cube.029
v 0.152894 0.097743 -0.258850
v 0.142398 0.097743 -0.258850
v 0.152894 -0.000000 -0.258850
v 0.142398 -0.000000 -0.258850
vt 0.861310 0.860788
vt 0.861310 0.872333
vt 0.858889 0.872333
vt 0.858889 0.860788
vn 0.0000 0.0000 1.0000
s 1
f 43/41/11 41/42/11 42/43/11 44/44/11
o table.019_Cube.028
v 0.142398 -0.000000 -0.272040
v 0.152894 -0.000000 -0.258850
v 0.152894 -0.000000 -0.272040
v 0.142398 -0.000000 -0.258850
vt 0.595916 0.360828
vt 0.595916 0.363249
vt 0.593177 0.363249
vt 0.593177 0.360828
vn 0.0000 -1.0000 0.0000
s 1
f 45/45/12 47/46/12 46/47/12 48/48/12
o table.018_Cube.027
v 0.152894 0.097743 -0.258850
v 0.142398 0.097743 -0.258850
v 0.152894 0.097743 -0.272040
v 0.142398 0.097743 -0.272040
vt 0.394391 0.853866
vt 0.394391 0.856287
vt 0.391652 0.856287
vt 0.391652 0.853866
vn 0.0000 1.0000 0.0000
s 1
f 51/49/13 52/50/13 50/51/13 49/52/13
o table.017_Cube.026
v -0.147602 0.097743 -0.258850
v -0.147602 -0.000000 -0.258850
v -0.147602 -0.000000 -0.272040
v -0.147602 0.097743 -0.272040
vt 0.890454 0.085058
vt 0.890454 0.096603
vt 0.887715 0.096603
vt 0.887715 0.085058
vn -1.0000 0.0000 0.0000
s 1
f 54/53/14 53/54/14 56/55/14 55/56/14
o table.016_Cube.025
v -0.137106 -0.000000 -0.272040
v -0.147602 -0.000000 -0.272040
v -0.137106 0.097743 -0.272040
v -0.147602 0.097743 -0.272040
vt 0.623200 0.385631
vt 0.623200 0.397176
vt 0.620779 0.397176
vt 0.620779 0.385631
vn 0.0000 0.0000 -1.0000
s 1
f 58/57/15 60/58/15 59/59/15 57/60/15
o table.015_Cube.024
v -0.137106 -0.000000 -0.272040
v -0.137106 -0.000000 -0.258850
v -0.137106 0.097743 -0.258850
v -0.137106 0.097743 -0.272040
vt 0.853249 0.649961
vt 0.853249 0.661506
vt 0.850510 0.661506
vt 0.850510 0.649961
vn 1.0000 0.0000 0.0000
s 1
f 61/61/16 64/62/16 63/63/16 62/64/16
o table.014_Cube.023
v -0.147602 0.097743 -0.258850
v -0.147602 -0.000000 -0.258850
v -0.137106 -0.000000 -0.258850
v -0.137106 0.097743 -0.258850
vt 0.861930 0.411396
vt 0.861930 0.422942
vt 0.859509 0.422942
vt 0.859509 0.411396
vn 0.0000 0.0000 1.0000
s 1
f 67/65/17 68/66/17 65/67/17 66/68/17
o table.013_Cube.022
v -0.137106 -0.000000 -0.272040
v -0.147602 -0.000000 -0.258850
v -0.137106 -0.000000 -0.258850
v -0.147602 -0.000000 -0.272040
vt 0.136756 0.620540
vt 0.136756 0.622961
vt 0.134017 0.622961
vt 0.134017 0.620540
vn 0.0000 -1.0000 0.0000
s 1
f 72/69/18 69/70/18 71/71/18 70/72/18
o table.012_Cube.021
v -0.147602 0.097743 -0.258850
v -0.137106 0.097743 -0.258850
v -0.137106 0.097743 -0.272040
v -0.147602 0.097743 -0.272040
vt 0.394391 0.851386
vt 0.394391 0.853807
vt 0.391652 0.853807
vt 0.391652 0.851386
vn 0.0000 1.0000 0.0000
s 1
f 75/73/19 76/74/19 73/75/19 74/76/19
o table.011_Cube.020
v -0.184186 0.097743 -0.307357
v -0.184186 0.097743 0.307338
v -0.184186 0.112575 -0.307357
v -0.184186 0.112575 0.307338
vt 0.788472 0.666600
vt 0.788473 0.662373
vt 0.875253 0.662373
vt 0.875253 0.666600
vn -1.0000 0.0000 0.0000
s 1
f 78/77/20 80/78/20 79/79/20 77/80/20
o table.010_Cube.019
v -0.184186 0.097743 -0.307357
v 0.184186 0.097743 -0.307357
v 0.184186 0.112575 -0.307357
v -0.184186 0.112575 -0.307357
vt 0.822742 0.339144
vt 0.822742 0.334917
vt 0.866254 0.334917
vt 0.866254 0.339144
vn 0.0000 0.0000 -1.0000
s 1
f 81/81/21 84/82/21 83/83/21 82/84/21
o table.009_Cube.018
v 0.184186 0.097743 -0.307357
v 0.184186 0.097743 0.307338
v 0.184186 0.112575 0.307338
v 0.184186 0.112575 -0.307357
vt 0.391592 0.899917
vt 0.391592 0.904144
vt 0.304811 0.904144
vt 0.304811 0.899917
vn 1.0000 0.0000 0.0000
s 1
f 85/85/22 88/86/22 87/87/22 86/88/22
o table.008_Cube.017
v 0.184186 0.097743 0.307338
v -0.184186 0.097743 0.307338
v 0.184186 0.112575 0.307338
v -0.184186 0.112575 0.307338
vt 0.869189 0.387624
vt 0.869189 0.391850
vt 0.825677 0.391850
vt 0.825677 0.387624
vn 0.0000 0.0000 1.0000
s 1
f 89/89/23 91/90/23 92/91/23 90/92/23
o table.007_Cube.016
v -0.184186 0.097743 -0.307357
v 0.184186 0.097743 -0.307357
v 0.184186 0.097743 0.307338
v -0.184186 0.097743 0.307338
vt 0.379191 0.335315
vt 0.379191 0.378827
vt 0.292410 0.378827
vt 0.292410 0.335315
vn 0.0000 -1.0000 0.0000
s 1
f 93/93/24 94/94/24 95/95/24 96/96/24
o table.006_Cube.015
v 0.184186 0.112575 0.307338
v 0.184186 0.112575 -0.307357
v -0.184186 0.112575 -0.307357
v -0.184186 0.112575 0.307338
vt 0.624122 0.096750
vt 0.624122 0.140262
vt 0.537341 0.140262
vt 0.537341 0.096750
vn 0.0000 1.0000 0.0000
s 1
f 98/97/25 99/98/25 100/99/25 97/100/25
o table.005_Cube.014
v 0.142398 -0.000000 0.271150
v 0.142398 -0.000000 0.257960
v 0.142398 0.097743 0.271150
v 0.142398 0.097743 0.257960
vt 0.360287 0.149292
vt 0.360287 0.160837
vt 0.357547 0.160837
vt 0.357547 0.149292
vn -1.0000 0.0000 0.0000
s 1
f 101/101/26 103/102/26 104/103/26 102/104/26
o table.004_Cube.013
v 0.152894 -0.000000 0.257960
v 0.152894 0.097743 0.257960
v 0.142398 -0.000000 0.257960
v 0.142398 0.097743 0.257960
vt 0.120936 0.353121
vt 0.120936 0.364666
vt 0.118515 0.364666
vt 0.118515 0.353121
vn 0.0000 0.0000 -1.0000
s 1
f 107/105/27 108/106/27 106/107/27 105/108/27
o table.003_Cube.012
v 0.152894 -0.000000 0.271150
v 0.152894 -0.000000 0.257960
v 0.152894 0.097743 0.271150
v 0.152894 0.097743 0.257960
vt 0.137058 0.648620
vt 0.137058 0.660165
vt 0.134319 0.660165
vt 0.134319 0.648620
vn 1.0000 0.0000 0.0000
s 1
f 110/109/28 112/110/28 111/111/28 109/112/28
o table.002_Cube.011
v 0.152894 -0.000000 0.271150
v 0.142398 -0.000000 0.271150
v 0.152894 0.097743 0.271150
v 0.142398 0.097743 0.271150
vt 0.589096 0.900461
vt 0.589096 0.912007
vt 0.586675 0.912007
vt 0.586675 0.900461
vn 0.0000 0.0000 1.0000
s 1
f 113/113/29 115/114/29 116/115/29 114/116/29
o table.001_Cube.010
v 0.152894 -0.000000 0.271150
v 0.152894 -0.000000 0.257960
v 0.142398 -0.000000 0.271150
v 0.142398 -0.000000 0.257960
vt 0.803341 0.149204
vt 0.803341 0.151625
vt 0.800602 0.151625
vt 0.800602 0.149204
vn 0.0000 -1.0000 0.0000
s 1
f 120/117/30 118/118/30 117/119/30 119/120/30
