# Blender v2.79 (sub 0) OBJ File: 'bird.blend'
# www.blender.org
o wineglass.002_Cylinder.008
v -0.000000 0.200000 -0.015701
v 0.012356 0.200000 0.005701
v -0.012356 0.200000 0.005701
v -0.000000 0.221227 -0.006289
v 0.001488 0.221227 -0.003711
v -0.001488 0.221227 -0.003711
v 0.001488 0.202765 -0.003711
v -0.001488 0.202765 -0.003711
v -0.000000 0.202765 -0.006289
v 0.013848 0.229711 0.006993
v -0.000000 0.229711 -0.016993
v -0.013848 0.229711 0.006993
vt 0.655652 0.365561
vt 0.662537 0.363019
vt 0.658336 0.368405
vt 0.655919 0.368081
vt 0.603829 0.407504
vt 0.605754 0.404054
vt 0.655740 0.367975
vt 0.657002 0.367390
vt 0.606288 0.408393
vt 0.839503 0.383290
vt 0.778976 0.429784
vt 0.841767 0.327478
vt 0.841847 0.379089
vt 0.842496 0.384372
vt 0.896530 0.429784
vn 0.0000 -0.0989 -0.9951
vn 0.8337 -0.0662 0.5481
vn -0.8337 -0.0662 0.5481
vn -0.4759 0.8680 0.1416
vn -0.6927 -0.6793 0.2423
vn 0.0000 -0.5736 -0.8191
vn 0.0000 0.8381 -0.5454
vn 0.4759 0.8680 0.1416
vn 0.6927 -0.6793 0.2423
vn -0.3885 -0.8859 0.2535
vn 0.0000 -0.7837 -0.6211
vn 0.3885 -0.8859 0.2535
s 1
f 1/1/1 2/2/2 3/3/3
f 8/4/4 6/5/5 4/6/6 9/7/7
f 7/8/8 5/9/9 6/5/5 8/4/4
f 9/7/7 4/6/6 5/9/9 7/8/8
f 1/1/1 9/7/7 7/8/8 2/2/2
f 2/2/2 7/8/8 8/4/4 3/3/3
f 3/3/3 8/4/4 9/7/7 1/1/1
f 6/10/5 12/11/10 11/12/11 4/13/6
f 5/14/9 10/15/12 12/11/10 6/10/5
f 4/13/6 11/12/11 10/15/12 5/14/9
o wineglass.001_Cylinder.007
v 0.013848 0.229711 0.006993
v -0.000000 0.229722 -0.014226
v 0.013003 0.229722 0.006320
v -0.013003 0.229722 0.006320
v -0.000000 0.229711 -0.016993
v -0.013848 0.229711 0.006993
v 0.017321 0.232094 0.010000
v 0.000000 0.232094 -0.020000
v -0.017321 0.232094 0.010000
vt 0.607141 0.450858
vt 0.614191 0.432288
vt 0.647512 0.379082
vt 0.665747 0.381245
vt 0.623929 0.372426
vt 0.607141 0.352864
vt 0.813411 0.366797
vt 0.793657 0.398341
vt 0.799430 0.362851
vt 0.620035 0.416943
vt 0.639789 0.385399
vt 0.625808 0.381453
vn 0.0000 -0.7837 -0.6211
vn 0.0000 0.1309 -0.9914
vn 0.8129 0.5275 0.2468
vn 0.5069 -0.8568 0.0937
vn -0.8129 0.5275 0.2468
vn -0.5069 -0.8568 0.0937
vn -0.3122 0.9481 -0.0609
vn 0.0000 0.9328 0.3604
vn 0.3122 0.9481 -0.0609
s 1
f 17/16/13 20/17/14 19/18/15 13/19/16
f 13/19/16 19/18/15 21/20/17 18/21/18
f 15/22/19 14/23/20 16/24/21
f 18/21/18 21/20/17 20/17/14 17/16/13
f 14/25/20 15/26/19 19/18/15 20/17/14
f 15/26/19 16/27/21 21/20/17 19/18/15
f 16/27/21 14/25/20 20/17/14 21/20/17
